<?xml version="1.0" standalone="no"?>
<!DOCTYPE svg PUBLIC "-//W3C//DTD SVG 1.1//EN" "http://www.w3.org/Graphics/SVG/1.1/DTD/svg11.dtd" >
<svg xmlns="http://www.w3.org/2000/svg" xmlns:xlink="http://www.w3.org/1999/xlink" version="1.1">
<metadata>
Created by FontForge 20201107 at Thu Dec 12 11:38:44 2024
 By 
(c) Copyright David Jonathan Ross, 2016. All rights reserved.
</metadata>
<defs>
<font id="FormaDJRCyrillicDisplay-Bold" horiz-adv-x="1501" >
  <font-face 
    font-family="Forma DJR Cyrillic Display"
    font-weight="700"
    font-stretch="normal"
    units-per-em="2048"
    panose-1="0 0 0 0 0 0 0 9 0 0"
    ascent="1536"
    descent="-512"
    x-height="1055"
    cap-height="1434"
    bbox="-1095.32 -512 2484 2251"
    underline-thickness="102"
    underline-position="-204"
    unicode-range="U+0020-F8FF"
  />
<missing-glyph horiz-adv-x="1024" 
d="M209 -512q-8 0 -13.5 5.5t-5.5 12.5v2012q0 7 5.5 12.5t13.5 5.5h612q8 0 13.5 -5.5t5.5 -12.5v-2012q0 -7 -5.5 -12.5t-13.5 -5.5h-612zM547 1313q0 7 5.5 12.5t12.5 5.5h117v68h-338v-68h115q7 0 12.5 -5.5t5.5 -12.5v-39q0 -8 -5.5 -13.5t-12.5 -5.5h-117v-67h340v67
h-117q-7 0 -12.5 5.5t-5.5 13.5v39zM682 991h-117q-7 0 -12.5 5.5t-5.5 13.5v125h-205v-213h340v69zM428 991q-7 0 -12.5 5.5t-5.5 13.5v37q0 7 5 12.5t13 5.5h31q7 0 12.5 -5.5t5.5 -12.5v-37q0 -8 -5.5 -13.5t-12.5 -5.5h-31zM547 780q0 8 5.5 13.5t12.5 5.5h117v67h-340
v-67h117q7 0 12.5 -5.5t5.5 -13.5v-39q0 -7 -5.5 -12.5t-12.5 -5.5h-117v-68h205v125zM342 539h340v204h-68v-116q0 -8 -5.5 -13.5t-12.5 -5.5h-254v-69zM342 262h340v232h-205v-115h70v29q0 8 5.5 13t12.5 5h31q8 0 13 -5t5 -13v-60q0 -8 -5 -13t-13 -5h-168q-8 0 -13 5
t-5 13v146h-68v-232zM342 -92h340v231h-340v-231zM428 -25q-7 0 -12.5 5.5t-5.5 13.5v59q0 8 5.5 13.5t12.5 5.5h168q7 0 12.5 -5.5t5.5 -13.5v-59q0 -8 -5.5 -13.5t-12.5 -5.5h-168zM606 -213q8 6 23 6h53v68h-340v-68h102q12 0 15.5 -7.5t-6.5 -14.5l-111 -74v-68h340v68
h-168q-12 0 -15 7.5t7 14.5z" />
    <glyph glyph-name=".notdef" horiz-adv-x="1024" 
d="M209 -512q-8 0 -13.5 5.5t-5.5 12.5v2012q0 7 5.5 12.5t13.5 5.5h612q8 0 13.5 -5.5t5.5 -12.5v-2012q0 -7 -5.5 -12.5t-13.5 -5.5h-612zM547 1313q0 7 5.5 12.5t12.5 5.5h117v68h-338v-68h115q7 0 12.5 -5.5t5.5 -12.5v-39q0 -8 -5.5 -13.5t-12.5 -5.5h-117v-67h340v67
h-117q-7 0 -12.5 5.5t-5.5 13.5v39zM682 991h-117q-7 0 -12.5 5.5t-5.5 13.5v125h-205v-213h340v69zM428 991q-7 0 -12.5 5.5t-5.5 13.5v37q0 7 5 12.5t13 5.5h31q7 0 12.5 -5.5t5.5 -12.5v-37q0 -8 -5.5 -13.5t-12.5 -5.5h-31zM547 780q0 8 5.5 13.5t12.5 5.5h117v67h-340
v-67h117q7 0 12.5 -5.5t5.5 -13.5v-39q0 -7 -5.5 -12.5t-12.5 -5.5h-117v-68h205v125zM342 539h340v204h-68v-116q0 -8 -5.5 -13.5t-12.5 -5.5h-254v-69zM342 262h340v232h-205v-115h70v29q0 8 5.5 13t12.5 5h31q8 0 13 -5t5 -13v-60q0 -8 -5 -13t-13 -5h-168q-8 0 -13 5
t-5 13v146h-68v-232zM342 -92h340v231h-340v-231zM428 -25q-7 0 -12.5 5.5t-5.5 13.5v59q0 8 5.5 13.5t12.5 5.5h168q7 0 12.5 -5.5t5.5 -13.5v-59q0 -8 -5.5 -13.5t-12.5 -5.5h-168zM606 -213q8 6 23 6h53v68h-340v-68h102q12 0 15.5 -7.5t-6.5 -14.5l-111 -74v-68h340v68
h-168q-12 0 -15 7.5t7 14.5z" />
    <glyph glyph-name=".null" horiz-adv-x="0" 
 />
    <glyph glyph-name="nonmarkingreturn" horiz-adv-x="682" 
 />
    <glyph glyph-name="space" unicode=" " horiz-adv-x="397" 
 />
    <glyph glyph-name="space" unicode="&#xa0;" horiz-adv-x="397" 
 />
    <glyph glyph-name="exclam" unicode="!" horiz-adv-x="411" 
d="M340 1434q7 0 12.5 -5.5t5.5 -13.5v-981q0 -8 -5 -13t-13 -5h-268q-8 0 -13.5 5.5t-5.5 12.5v981q0 7 5.5 13t13.5 6h268zM340 295q7 0 12.5 -5.5t5.5 -13.5v-258q0 -8 -5 -13t-13 -5h-268q-8 0 -13.5 5.5t-5.5 12.5v258q0 8 5.5 13.5t13.5 5.5h268z" />
    <glyph glyph-name="quotedbl" unicode="&#x22;" horiz-adv-x="741" 
d="M326 1434q16 0 16 -19l-35 -495q0 -7 -6 -13t-14 -6h-176q-8 0 -14.5 6t-6.5 13l-35 495q0 19 17 19h254zM670 1434q16 0 16 -19l-35 -495q0 -7 -6 -13t-14 -6h-176q-8 0 -14.5 6t-6.5 13l-35 495q0 19 17 19h254z" />
    <glyph glyph-name="numbersign" unicode="#" horiz-adv-x="1376" 
d="M1141 1151h213q9 0 14 -6t4 -15l-26 -184q-3 -16 -19 -16h-217l-59 -418h213q19 0 16 -20l-33 -185q-3 -16 -18 -16h-211l-39 -275q-3 -16 -18 -16h-250q-9 0 -14.5 5.5t-4.5 14.5l39 271h-205l-39 -275q-3 -16 -18 -16h-250q-21 0 -18 20l39 271h-217q-20 0 -17 20
l33 185q3 16 18 16h215l60 418h-211q-9 0 -14.5 5.5t-4.5 14.5l27 185q3 16 18 16h215l39 266q3 17 19 17h250q9 0 14 -6t4 -15l-39 -262h205l39 266q3 17 18 17h250q9 0 14.5 -6t4.5 -15zM618 930l-59 -418h205l59 418h-205z" />
    <glyph glyph-name="dollar" unicode="$" horiz-adv-x="1288" 
d="M1212 434q0 -194 -109 -311.5t-308 -147.5v-161q0 -8 -5.5 -13.5t-13.5 -5.5h-274q-8 0 -13.5 5.5t-5.5 13.5v172q-184 36 -291 157.5t-114 321.5q0 18 18 18h289q18 0 21 -18q15 -132 72.5 -198t193.5 -66q113 0 170 45.5t57 144.5q0 52 -27 87.5t-73 56t-105.5 34.5
t-125 27t-131.5 30t-125.5 47t-105.5 73.5t-73 115.5t-27 166q0 170 96 281t273 143v127q0 7 5.5 12.5t13.5 5.5h274q8 0 13 -5.5t5 -12.5v-131q329 -65 383 -418q3 -20 -18 -20h-289q-17 0 -20 18q-9 97 -69.5 149t-164.5 52q-89 0 -140.5 -42t-51.5 -128q0 -48 27 -82
t73.5 -52.5t106 -32t125.5 -26.5t132 -29.5t125.5 -47t106 -74t73.5 -115.5t27 -166z" />
    <glyph glyph-name="percent" unicode="%" horiz-adv-x="1699" 
d="M418 717q-180 0 -283.5 92t-103.5 270q0 179 103.5 277t283.5 98q178 0 281.5 -98t103.5 -277q0 -177 -103 -269.5t-282 -92.5zM1485 1434q11 0 14.5 -7t-2.5 -16l-1044 -1401q-7 -10 -23 -10h-213q-11 0 -14.5 7t2.5 16l1044 1400q8 11 23 11h213zM418 895
q64 0 94.5 43.5t30.5 140.5q0 197 -127 197q-125 0 -125 -197q0 -184 127 -184zM1282 -20q-178 0 -281.5 97.5t-103.5 276.5q0 178 103 270.5t282 92.5q180 0 283.5 -92.5t103.5 -270.5q0 -179 -103.5 -276.5t-283.5 -97.5zM1284 158q125 0 125 196q0 185 -127 185
q-64 0 -94.5 -44t-30.5 -141q0 -196 127 -196z" />
    <glyph glyph-name="ampersand" unicode="&#x26;" horiz-adv-x="1411" 
d="M1161 301l228 -278q7 -9 3.5 -16t-14.5 -7h-321q-13 0 -23 10l-71 88q-181 -125 -412 -125q-105 0 -198.5 27t-166.5 77.5t-116 131t-43 180.5q0 81 27 150t78 123t106 93.5t129 78.5q-148 188 -148 325q0 136 115.5 225t310.5 89q172 0 285.5 -83.5t116.5 -230.5
q0 -62 -23.5 -114.5t-70 -96t-93 -74.5t-115.5 -69q34 -38 170 -203l70 -84q35 107 43 199q3 18 21 18h245q9 0 14.5 -5.5t4.5 -14.5q-30 -228 -152 -414zM508 1153q0 -37 23.5 -79t82.5 -113q87 46 133 91.5t46 104.5q0 65 -39 101t-109 36q-63 0 -100 -36t-37 -105z
M575 182q139 0 248 92l-262 328q-19 24 -57 68q-83 -57 -128.5 -119.5t-45.5 -144.5q0 -114 66 -169t179 -55z" />
    <glyph glyph-name="quotesingle" unicode="'" horiz-adv-x="399" 
d="M326 1434q16 0 16 -19l-35 -495q0 -7 -6 -13t-14 -6h-176q-8 0 -14.5 6t-6.5 13l-35 495q0 19 17 19h254z" />
    <glyph glyph-name="parenleft" unicode="(" horiz-adv-x="520" 
d="M481 -264q4 -10 -0.5 -16.5t-13.5 -6.5h-203q-14 0 -20 15q-105 212 -160 427t-55 459q0 466 213 869q6 12 20 12h203q10 0 14 -6t0 -16q-186 -413 -186 -859q0 -455 188 -878z" />
    <glyph glyph-name="parenright" unicode=")" horiz-adv-x="520" 
d="M276 -272q-6 -15 -20 -15h-203q-9 0 -13.5 6.5t-0.5 16.5q188 423 188 878q0 446 -186 859q-4 10 0 16t14 6h203q15 0 21 -12q213 -403 213 -869q0 -244 -55 -458.5t-161 -427.5z" />
    <glyph glyph-name="asterisk" unicode="*" horiz-adv-x="733" 
d="M451 1047l10 -183q0 -18 -19 -18h-149q-19 0 -19 18l9 185l-156 -101q-17 -10 -27 6l-71 121q-9 16 6 25l153 82l-155 80q-14 9 -8 24l67 133q8 16 25 6l164 -98l-11 191q0 18 19 18h145q19 0 19 -18l-7 -189l162 107q17 14 27 -6l70 -125q9 -14 -9 -25l-157 -88l151 -76
q14 -9 8 -24l-63 -134q-3 -8 -10 -10t-15 2z" />
    <glyph glyph-name="plus" unicode="+" horiz-adv-x="1116" 
d="M659 1229q7 0 13 -5.5t6 -13.5v-391h344q8 0 13 -5.5t5 -12.5v-191q0 -8 -5 -13t-13 -5h-344v-389q0 -7 -6 -13t-13 -6h-198q-7 0 -13 6t-6 13v389h-346q-8 0 -13 5t-5 13v191q0 7 5 12.5t13 5.5h346v391q0 8 6 13.5t13 5.5h198z" />
    <glyph glyph-name="comma" unicode="," horiz-adv-x="380" 
d="M342 23q0 -11 -8 -23l-170 -229q-8 -11 -23 -11h-143q-20 0 -14 21l61 227v266q0 8 5.5 13.5t12.5 5.5h261q7 0 12.5 -5.5t5.5 -13.5v-251z" />
    <glyph glyph-name="hyphen" unicode="-" horiz-adv-x="598" 
d="M565 686q8 0 13.5 -5.5t5.5 -12.5v-176q0 -8 -6 -13.5t-13 -5.5h-532q-7 0 -13 5.5t-6 13.5v176q0 7 5.5 12.5t13.5 5.5h532z" />
    <glyph glyph-name="hyphen" unicode="&#x2011;" horiz-adv-x="598" 
d="M565 686q8 0 13.5 -5.5t5.5 -12.5v-176q0 -8 -6 -13.5t-13 -5.5h-532q-7 0 -13 5.5t-6 13.5v176q0 7 5.5 12.5t13.5 5.5h532z" />
    <glyph glyph-name="hyphen" unicode="&#x2010;" horiz-adv-x="598" 
d="M565 686q8 0 13.5 -5.5t5.5 -12.5v-176q0 -8 -6 -13.5t-13 -5.5h-532q-7 0 -13 5.5t-6 13.5v176q0 7 5.5 12.5t13.5 5.5h532z" />
    <glyph glyph-name="hyphen" unicode="&#xad;" horiz-adv-x="598" 
d="M565 686q8 0 13.5 -5.5t5.5 -12.5v-176q0 -8 -6 -13.5t-13 -5.5h-532q-7 0 -13 5.5t-6 13.5v176q0 7 5.5 12.5t13.5 5.5h532z" />
    <glyph glyph-name="period" unicode="." horiz-adv-x="389" 
d="M336 293q7 0 12.5 -5.5t5.5 -13.5v-256q0 -8 -5 -13t-13 -5h-283q-7 0 -12.5 5t-5.5 13v256q0 8 5.5 13.5t12.5 5.5h283z" />
    <glyph glyph-name="slash" unicode="/" horiz-adv-x="733" 
d="M676 1495q19 0 16 -20l-426 -1745q-3 -17 -20 -17h-189q-19 0 -16 21l426 1745q3 16 20 16h189z" />
    <glyph glyph-name="zero" unicode="0" horiz-adv-x="1206" 
d="M602 -31q-262 0 -415.5 195t-153.5 549q0 366 152 558.5t417 192.5q266 0 419 -191t153 -560q0 -354 -154 -549t-418 -195zM604 209q123 0 185.5 121.5t62.5 382.5q0 512 -250 512q-125 0 -186.5 -122.5t-61.5 -389.5q0 -504 250 -504z" />
    <glyph glyph-name="one" unicode="1" horiz-adv-x="729" 
d="M639 698l6 -680q0 -8 -5.5 -13t-12.5 -5h-281q-8 0 -13 5t-5 13l4 574l-2 498q-109 -104 -285 -158q-9 -3 -14.5 2t-5.5 14v199q0 16 14 22q209 74 305 252q6 13 21 13h262q7 0 12.5 -5.5t5.5 -13.5z" />
    <glyph glyph-name="two" unicode="2" horiz-adv-x="1079" 
d="M1018 231q8 0 13 -5.5t5 -12.5v-195q0 -8 -5 -13t-13 -5h-961q-7 0 -12.5 5t-5.5 13v183q0 91 24.5 168t65.5 131.5t94 99.5t111.5 78.5t117.5 63.5t112 59t94 59.5t65.5 71t24.5 88.5q5 103 -48.5 160.5t-152.5 56.5q-98 -2 -154.5 -71.5t-60.5 -198.5q0 -19 -19 -19
h-247q-19 0 -19 19q0 236 127 364t373 129q235 0 359 -112.5t130 -317.5q0 -85 -24 -157t-65 -123.5t-94 -94.5t-111.5 -75.5t-117 -62t-111.5 -57t-94 -57t-65 -66.5t-24 -81v-25h688z" />
    <glyph glyph-name="three" unicode="3" horiz-adv-x="1101" 
d="M530 -20q-235 0 -361.5 114.5t-143.5 337.5q-3 19 16 19h264q19 0 19 -19q6 -119 60 -182t155 -62q95 0 153.5 64.5t61.5 177.5q3 123 -67 177.5t-230 54.5h-43q-8 0 -13.5 5.5t-5.5 12.5v162q0 7 5.5 12.5t13.5 5.5h43q136 0 204 52.5t68 142.5q0 83 -51.5 136.5
t-128.5 53.5q-188 0 -203 -213q-3 -18 -20 -18h-260q-20 0 -17 18q13 203 147.5 312.5t368.5 109.5q210 0 339 -101t130 -268q0 -231 -235 -309q131 -34 201.5 -120t70.5 -216q0 -143 -75 -249t-196.5 -158.5t-269.5 -52.5z" />
    <glyph glyph-name="four" unicode="4" horiz-adv-x="1157" 
d="M965 1434q7 0 12.5 -5.5t5.5 -13.5v-858h139q8 0 13.5 -5.5t5.5 -12.5v-195q0 -7 -5.5 -12.5t-13.5 -5.5h-139v-310q0 -8 -5.5 -13t-12.5 -5h-275q-8 0 -13 5t-5 13v310h-623q-7 0 -12.5 5t-5.5 13v234q0 10 6 22l526 821q7 13 23 13h379zM672 918l10 288l-406 -649h396
v361z" />
    <glyph glyph-name="five" unicode="5" horiz-adv-x="1138" 
d="M553 -33q-225 0 -356 108.5t-152 289.5q-3 18 16 18h273q18 0 18 -18q6 -89 59.5 -137t139.5 -48q112 0 172.5 80.5t60.5 235.5q0 151 -55 228t-174 77q-82 0 -136 -39.5t-73 -112.5q-6 -16 -20 -16h-236q-16 0 -16 18l53 764q0 7 6 13t14 6h861q7 0 12.5 -5.5t5.5 -13.5
v-194q0 -8 -5.5 -13.5t-12.5 -5.5h-605l-28 -272q110 88 278 88q195 0 328 -140.5t133 -359.5q0 -253 -154 -402t-407 -149z" />
    <glyph glyph-name="six" unicode="6" horiz-adv-x="1155" 
d="M594 -31q-265 0 -411 189.5t-146 554.5q0 358 156.5 554.5t427.5 196.5q194 0 311 -94.5t139 -267.5q3 -21 -18 -21h-267q-15 0 -18 17q-13 68 -56 109.5t-116 41.5q-114 0 -175 -105.5t-63 -299.5q104 119 301 119q210 0 337.5 -126.5t127.5 -340.5q0 -142 -68.5 -263
t-191 -192.5t-270.5 -71.5zM578 193q101 0 162 71t61 197q0 134 -52.5 209t-154.5 75q-105 0 -165 -71.5t-60 -200.5q0 -131 55 -205.5t154 -74.5z" />
    <glyph glyph-name="seven" unicode="7" horiz-adv-x="970" 
d="M561 14q-3 -16 -18 -16h-287q-18 0 -18 20q117 727 383 1184h-590q-7 0 -13 6t-6 13v194q0 7 6 13t13 6h909q7 0 12.5 -5.5t5.5 -13.5v-207q0 -6 -4 -22q-313 -616 -393 -1172z" />
    <glyph glyph-name="eight" unicode="8" horiz-adv-x="1167" 
d="M584 -29q-116 0 -215.5 29.5t-174 84t-117 138.5t-42.5 187q0 123 68 213t200 135q-112 44 -172 128.5t-57 190.5q3 188 134.5 287.5t375.5 99.5q245 0 376 -99.5t136 -287.5q1 -105 -60 -189t-172 -130q132 -45 201.5 -135t69.5 -213q0 -137 -74 -237.5t-197.5 -151
t-279.5 -50.5zM584 840q95 0 152 56t57 148q0 97 -56.5 155t-152.5 58t-152.5 -58t-56.5 -155q0 -92 57 -148t152 -56zM584 180q107 0 176 68t69 172q0 106 -66 167.5t-179 61.5t-179.5 -61.5t-66.5 -167.5q0 -104 69.5 -172t176.5 -68z" />
    <glyph glyph-name="nine" unicode="9" horiz-adv-x="1155" 
d="M537 -31q-193 0 -311 95t-140 268q-3 20 18 20h267q15 0 18 -16q13 -68 56 -110t116 -42q114 0 175 106t63 300q-104 -119 -301 -119q-210 0 -337.5 126.5t-127.5 340.5q0 232 143.5 379t386.5 147q264 0 410.5 -185t146.5 -558q0 -358 -156.5 -555t-426.5 -197zM563 688
q105 0 165 71.5t60 201.5q0 131 -54.5 205.5t-153.5 74.5q-101 0 -162.5 -71t-61.5 -197q0 -134 52.5 -209.5t154.5 -75.5z" />
    <glyph glyph-name="colon" unicode=":" horiz-adv-x="389" 
d="M336 1055q7 0 12.5 -5.5t5.5 -13.5v-256q0 -8 -5 -13t-13 -5h-283q-7 0 -12.5 5t-5.5 13v256q0 8 5.5 13.5t12.5 5.5h283zM336 293q7 0 12.5 -5.5t5.5 -13.5v-256q0 -8 -5 -13t-13 -5h-283q-7 0 -12.5 5t-5.5 13v256q0 8 5.5 13.5t12.5 5.5h283z" />
    <glyph glyph-name="semicolon" unicode=";" horiz-adv-x="385" 
d="M334 1055q7 0 12.5 -5.5t5.5 -13.5v-256q0 -8 -5 -13t-13 -5h-283q-7 0 -12.5 5t-5.5 13v256q0 8 5.5 13.5t12.5 5.5h283zM342 23q0 -11 -8 -23l-170 -229q-8 -11 -23 -11h-143q-20 0 -14 21l61 227v266q0 8 5.5 13.5t12.5 5.5h261q7 0 12.5 -5.5t5.5 -13.5v-251z" />
    <glyph glyph-name="less" unicode="&#x3c;" horiz-adv-x="1116" 
d="M1026 406q14 -7 14 -23v-197q0 -9 -6.5 -13.5t-15.5 -0.5l-926 414q-14 7 -14 20v199q0 13 14 20l926 414q9 4 15.5 -0.5t6.5 -13.5v-197q0 -15 -14 -22l-713 -299z" />
    <glyph glyph-name="equal" unicode="=" horiz-adv-x="1116" 
d="M1022 1085q8 0 13 -5.5t5 -12.5v-190q0 -8 -5.5 -13.5t-12.5 -5.5h-926q-7 0 -12.5 5.5t-5.5 13.5v190q0 7 5 12.5t13 5.5h926zM1022 553q8 0 13 -5.5t5 -12.5v-191q0 -8 -5 -13t-13 -5h-926q-8 0 -13 5t-5 13v191q0 7 5 12.5t13 5.5h926z" />
    <glyph glyph-name="greater" unicode="&#x3e;" horiz-adv-x="1116" 
d="M1026 825q14 -7 14 -20v-199q0 -13 -14 -20l-926 -414q-9 -4 -15.5 0.5t-6.5 13.5v197q0 16 14 23l713 301l-713 299q-14 7 -14 22v197q0 9 6.5 13.5t15.5 0.5z" />
    <glyph glyph-name="question" unicode="?" horiz-adv-x="1048" 
d="M676 434q0 -18 -19 -18h-272q-18 0 -18 18q2 80 22.5 148t51 114.5t67.5 86.5t73.5 71.5t66.5 61t48.5 64.5t18.5 73q0 90 -54.5 140t-144.5 52q-103 1 -154 -54t-57 -167q0 -18 -18 -18h-256q-19 0 -19 18q13 209 146.5 318.5t373.5 109.5q141 0 251 -46.5t174.5 -139
t64.5 -219.5q0 -64 -18.5 -116.5t-48 -89.5t-65.5 -70.5t-72.5 -66.5t-67.5 -69t-51.5 -87.5t-22.5 -113.5zM657 295q7 0 13 -5.5t6 -13.5v-258q0 -7 -5.5 -12.5t-13.5 -5.5h-274q-7 0 -12.5 5t-5.5 13v258q0 8 5.5 13.5t12.5 5.5h274z" />
    <glyph glyph-name="at" unicode="@" horiz-adv-x="1652" 
d="M711 1034q179 0 280 -123l-4 84q0 19 17 19h241q7 0 13 -6t6 -13v-696q0 -60 16.5 -85.5t50.5 -25.5q59 0 96 83t37 241q0 354 -174.5 554t-474.5 200q-290 0 -459.5 -200.5t-169.5 -553.5q0 -343 169.5 -538t459.5 -195q148 0 258 47t189 160q9 12 22 12h135q11 0 15 -7
t-2 -16q-214 -344 -617 -344q-357 0 -572.5 238t-215.5 645q0 277 98.5 481t276.5 311t415 107q182 0 332 -62t255.5 -177t163.5 -284.5t58 -377.5q0 -220 -85 -345.5t-210 -125.5q-56 0 -114.5 16.5t-113 59.5t-73.5 104q-50 -91 -132.5 -140.5t-190.5 -49.5
q-133 0 -229 66.5t-142.5 177t-46.5 253.5q0 141 50 255.5t147 182.5t225 68zM997 526q2 154 -51.5 237.5t-154.5 84.5q-107 3 -161.5 -75t-54.5 -228q0 -163 53.5 -246.5t155.5 -81.5q210 0 213 309z" />
    <glyph glyph-name="A" unicode="A" horiz-adv-x="1357" 
d="M877 1434q14 0 20 -15l477 -1399q6 -20 -16 -20h-283q-17 0 -20 14l-113 351h-539l-106 -349q-3 -16 -21 -16h-278q-20 0 -14 20l483 1399q6 15 22 15h388zM864 612l-196 613l-187 -613h383z" />
    <glyph glyph-name="B" unicode="B" horiz-adv-x="1263" 
d="M702 0h-626q-8 0 -13.5 5.5t-5.5 12.5l11 699l-11 698q0 7 5.5 13t13.5 6h616q151 0 263 -36t179.5 -117.5t67.5 -201.5q0 -243 -248 -317q141 -31 214 -118.5t73 -209.5q0 -112 -45 -198t-122.5 -136t-171 -75t-200.5 -25zM696 1217h-321l-8 -361h329q92 0 143.5 45.5
t51.5 132.5q0 91 -55 137t-140 46zM696 639h-329l8 -422h321q230 0 230 217q0 107 -63.5 156t-166.5 49z" />
    <glyph glyph-name="C" unicode="C" horiz-adv-x="1411" 
d="M739 -31q-216 0 -378.5 94.5t-248 262t-85.5 385.5q0 343 193 548t517 205q532 0 641 -508q3 -20 -16 -20h-268q-15 0 -21 16q-30 132 -116 202.5t-224 70.5q-186 0 -285.5 -135t-99.5 -377q0 -240 100 -372t283 -132q288 0 348 305q3 16 19 16h274q20 0 17 -24
q-60 -281 -224 -409t-426 -128z" />
    <glyph glyph-name="D" unicode="D" horiz-adv-x="1368" 
d="M586 0h-510q-8 0 -13.5 5.5t-5.5 12.5l11 699l-11 698q0 7 5.5 13t13.5 6h506q126 0 237.5 -26.5t207.5 -84t165.5 -141.5t109 -205.5t39.5 -269.5t-40 -268t-109.5 -201t-166 -135t-206 -78.5t-233.5 -24.5zM375 1202l-8 -479l8 -492h227q89 0 163 27.5t132 83.5
t90.5 149.5t32.5 217.5t-32.5 220t-90.5 155t-134.5 88.5t-168.5 29.5h-219z" />
    <glyph glyph-name="E" unicode="E" horiz-adv-x="1101" 
d="M1059 231q7 0 12.5 -5.5t5.5 -12.5v-195q0 -8 -5.5 -13t-12.5 -5h-983q-8 0 -13.5 5.5t-5.5 12.5l11 699l-11 698q0 7 5.5 13t13.5 6h966q8 0 13.5 -6t5.5 -13v-194q0 -7 -5.5 -13t-13.5 -6h-667l-8 -330h616q7 0 12.5 -5t5.5 -13v-195q0 -7 -5.5 -12.5t-12.5 -5.5h-616
l8 -410h684z" />
    <glyph glyph-name="F" unicode="F" horiz-adv-x="1044" 
d="M367 578l8 -560q0 -7 -5.5 -12.5t-13.5 -5.5h-280q-8 0 -13.5 5.5t-5.5 12.5l11 699l-11 698q0 7 5.5 13t13.5 6h936q7 0 12.5 -5.5t5.5 -13.5v-194q0 -8 -5.5 -13.5t-12.5 -5.5h-637l-8 -393h616q7 0 12.5 -5.5t5.5 -12.5v-195q0 -8 -5.5 -13t-12.5 -5h-616z" />
    <glyph glyph-name="G" unicode="G" horiz-adv-x="1447" 
d="M739 -31q-210 0 -372 94t-251 264t-89 390q0 168 51.5 307.5t143.5 236t222 150t285 53.5q263 0 432 -123.5t228 -351.5q3 -20 -17 -20h-285q-17 0 -20 16q-71 242 -336 242q-185 0 -284 -136.5t-99 -377.5q0 -236 102.5 -371t290.5 -135q155 0 246.5 89t97.5 253h-356
q-7 0 -12.5 5.5t-5.5 12.5v193q0 8 5.5 13t12.5 5h672q18 0 18 -22q3 -392 -171.5 -589.5t-508.5 -197.5z" />
    <glyph glyph-name="H" unicode="H" horiz-adv-x="1363" 
d="M993 881l-6 534q0 7 5.5 13t13.5 6h282q8 0 13.5 -6t5.5 -13l-11 -698l11 -699q0 -7 -5.5 -12.5t-13.5 -5.5h-282q-8 0 -13.5 5.5t-5.5 12.5l8 631h-626l8 -631q0 -7 -5.5 -12.5t-13.5 -5.5h-282q-8 0 -13.5 5.5t-5.5 12.5l11 699l-11 698q0 7 5.5 13t13.5 6h282
q8 0 13.5 -6t5.5 -13l-6 -534h622z" />
    <glyph glyph-name="I" unicode="I" horiz-adv-x="450" 
d="M373 717l10 -699q0 -8 -5.5 -13t-12.5 -5h-279q-8 0 -13 5t-5 13l10 699l-10 698q0 8 5.5 13.5t12.5 5.5h279q7 0 12.5 -5.5t5.5 -13.5z" />
    <glyph glyph-name="J" unicode="J" horiz-adv-x="1058" 
d="M502 -31q-237 0 -361 141.5t-129 397.5q0 18 19 18h266q18 0 18 -18q3 -150 47.5 -222.5t141.5 -72.5q100 0 141 71t43 230v422l-6 479q0 8 5.5 13.5t12.5 5.5h287q7 0 13 -6t6 -13l-7 -479l2 -424q1 -272 -125 -407.5t-374 -135.5z" />
    <glyph glyph-name="K" unicode="K" horiz-adv-x="1253" 
d="M791 1421q10 13 22 13h326q11 0 14 -7t-4 -16l-459 -561l572 -827q6 -9 2.5 -16t-13.5 -7h-344q-16 0 -22 12l-166 248l-230 346l-118 -147l4 -441q0 -7 -5.5 -12.5t-13.5 -5.5h-280q-8 0 -13.5 5.5t-5.5 12.5l11 699l-9 698q0 7 5.5 13t13.5 6h278q8 0 13.5 -6t5.5 -13
l-6 -579z" />
    <glyph glyph-name="L" unicode="L" horiz-adv-x="976" 
d="M956 231q8 0 13.5 -5.5t5.5 -12.5v-195q0 -7 -5.5 -12.5t-13.5 -5.5h-880q-8 0 -13.5 5.5t-5.5 12.5l11 699l-11 698q0 7 5.5 13t13.5 6h280q8 0 13.5 -6t5.5 -13l-8 -680l8 -504h581z" />
    <glyph glyph-name="M" unicode="M" horiz-adv-x="1677" 
d="M340 606v-588q0 -8 -5 -13t-13 -5h-246q-8 0 -13.5 5.5t-5.5 12.5l9 699l-9 698q0 7 5.5 13t13.5 6h381q16 0 22 -15l383 -1034l361 1034q6 15 22 15h357q7 0 12.5 -5.5t5.5 -13.5l-8 -698l8 -699q0 -8 -5 -13t-13 -5h-277q-7 0 -12.5 5t-5.5 13v588l10 402l-348 -994
q-6 -14 -23 -14h-213q-16 0 -22 14l-383 1037z" />
    <glyph glyph-name="N" unicode="N" horiz-adv-x="1357" 
d="M350 633v-615q0 -8 -5 -13t-13 -5h-256q-8 0 -13.5 5.5t-5.5 12.5l9 699l-9 698q0 7 5.5 13t13.5 6h346q16 0 22 -13l576 -1015l-12 325v684q0 8 5.5 13.5t12.5 5.5h256q7 0 12.5 -5.5t5.5 -13.5l-8 -698l8 -699q0 -8 -5 -13t-13 -5h-358q-17 0 -23 12l-563 1010z" />
    <glyph glyph-name="O" unicode="O" 
d="M750 -31q-216 0 -381 94.5t-253.5 263t-88.5 386.5q0 343 196.5 547t526.5 204q329 0 527 -203t198 -548q0 -217 -89 -386t-254.5 -263.5t-381.5 -94.5zM752 209q192 0 296.5 133.5t104.5 370.5q0 238 -104.5 375t-298.5 137t-298 -135t-104 -377q0 -235 106 -369.5
t298 -134.5z" />
    <glyph glyph-name="P" unicode="P" horiz-adv-x="1177" 
d="M57 1415q0 7 5.5 13t13.5 6h540q262 0 403.5 -117.5t141.5 -343.5q0 -225 -145 -350t-402 -125h-243l6 -480q0 -7 -5.5 -12.5t-13.5 -5.5h-282q-8 0 -13.5 5.5t-5.5 12.5l11 699zM375 1206l-6 -481h268q98 0 160.5 60t62.5 182q0 239 -231 239h-254z" />
    <glyph glyph-name="Q" unicode="Q" horiz-adv-x="1515" 
d="M1384 240h93q7 0 12.5 -5.5t5.5 -13.5v-203q0 -8 -5.5 -13t-12.5 -5h-500q-112 -31 -229 -31q-216 0 -381 94.5t-253.5 263t-88.5 386.5q0 343 196.5 547t526.5 204q329 0 527 -203t198 -548q0 -277 -148 -477zM346 713q0 -235 106 -369.5t298 -134.5t296.5 133.5
t104.5 370.5q0 238 -104.5 375t-298.5 137t-298 -135t-104 -377z" />
    <glyph glyph-name="R" unicode="R" horiz-adv-x="1259" 
d="M903 565l352 -542q6 -9 2.5 -16t-14.5 -7h-321q-17 0 -23 12l-184 307l-142 213h-204l6 -514q0 -7 -5.5 -12.5t-13.5 -5.5h-280q-8 0 -13.5 5.5t-5.5 12.5l9 699l-9 698q0 7 5.5 13t13.5 6h581q272 0 419 -114.5t147 -336.5q0 -157 -83 -264.5t-237 -153.5zM670 1206
h-297l-6 -446h311q107 0 175.5 53.5t68.5 163.5q0 115 -65 172t-187 57z" />
    <glyph glyph-name="S" unicode="S" horiz-adv-x="1292" 
d="M668 -33q-192 0 -333 52.5t-225.5 166t-91.5 279.5q0 18 19 18h289q17 0 20 -18q7 -63 26 -109t56 -82.5t98.5 -54.5t147.5 -18q143 0 216 45.5t73 144.5q0 52 -31.5 88.5t-84.5 57.5t-121.5 36.5t-144.5 29.5t-152 31.5t-144.5 48t-121.5 73t-84.5 112t-31.5 160.5
q0 203 151.5 319.5t424.5 116.5q261 0 419 -106t191 -328q1 -9 -4.5 -14.5t-14.5 -5.5h-288q-18 0 -21 18q-10 97 -87 149t-208 52q-116 0 -185 -42t-69 -128q0 -49 31.5 -83t84.5 -54t122 -34.5t145.5 -28.5t153 -31.5t145.5 -48t122 -73t84.5 -112t31.5 -160.5
q0 -225 -161.5 -346t-446.5 -121z" />
    <glyph glyph-name="T" unicode="T" horiz-adv-x="1165" 
d="M733 717l12 -699q0 -8 -5.5 -13t-12.5 -5h-289q-8 0 -13 5t-5 13l12 699l-8 485h-397q-7 0 -13 6t-6 13v194q0 7 6 13t13 6h1110q7 0 12.5 -5.5t5.5 -13.5v-194q0 -8 -5.5 -13.5t-12.5 -5.5h-396z" />
    <glyph glyph-name="U" unicode="U" horiz-adv-x="1269" 
d="M641 -31q-285 0 -434.5 144.5t-147.5 418.5v390l-6 493q0 7 5.5 13t13.5 6h286q8 0 13.5 -6t5.5 -13l-6 -485l2 -395q0 -318 268 -318q289 0 289 318v389l-6 491q0 8 5.5 13.5t12.5 5.5h256q8 0 13.5 -6t5.5 -13l-5 -493v-390q0 -276 -143.5 -419.5t-427.5 -143.5z" />
    <glyph glyph-name="V" unicode="V" horiz-adv-x="1292" 
d="M858 14q-3 -14 -20 -14h-375q-15 0 -21 14l-460 1399q-6 21 16 21h307q18 0 21 -17l344 -1149l334 1149q3 17 20 17h268q23 0 17 -21z" />
    <glyph glyph-name="W" unicode="W" horiz-adv-x="1871" 
d="M721 16q-3 -16 -21 -16h-354q-17 0 -20 16l-328 1397q-4 21 16 21h281q17 0 20 -17l226 -1087l215 1087q3 17 20 17h330q17 0 20 -17l228 -1108l223 1108q3 17 20 17h261q20 0 16 -21l-336 -1397q-3 -16 -20 -16h-344q-18 0 -21 16l-225 990z" />
    <glyph glyph-name="X" unicode="X" horiz-adv-x="1284" 
d="M637 506l-291 -494q-6 -12 -22 -12h-316q-11 0 -14.5 6t2.5 17l465 731l-428 657q-6 9 -2.5 16t14.5 7h334q15 0 22 -13l246 -420l250 420q7 13 23 13h313q11 0 14.5 -6t-2.5 -17l-426 -666l469 -722q6 -9 2.5 -16t-14.5 -7h-338q-17 0 -23 12z" />
    <glyph glyph-name="Y" unicode="Y" horiz-adv-x="1222" 
d="M471 0q-7 0 -12.5 5t-5.5 13l6 453l-482 940q-4 10 0 16.5t15 6.5h317q13 0 21 -15l293 -661l299 661q8 15 20 15h289q11 0 14.5 -6t-0.5 -17l-481 -940l6 -453q0 -8 -5 -13t-13 -5h-281z" />
    <glyph glyph-name="Z" unicode="Z" horiz-adv-x="1187" 
d="M1143 231q7 0 12.5 -5.5t5.5 -12.5v-195q0 -8 -5.5 -13t-12.5 -5h-1098q-7 0 -12.5 5t-5.5 13v224q0 14 8 22l751 938h-686q-7 0 -12.5 5.5t-5.5 13.5v194q0 8 5.5 13.5t12.5 5.5h1041q7 0 12.5 -5.5t5.5 -13.5v-231q0 -15 -8 -23l-739 -930h731z" />
    <glyph glyph-name="bracketleft" unicode="[" horiz-adv-x="593" 
d="M514 -55q7 0 12.5 -5.5t5.5 -13.5v-194q0 -8 -5.5 -13.5t-12.5 -5.5h-434q-8 0 -13.5 5.5t-5.5 13.5v1745q0 7 5.5 12.5t13.5 5.5h434q8 0 13 -5.5t5 -12.5v-195q0 -8 -5 -13t-13 -5h-186v-1319h186z" />
    <glyph glyph-name="backslash" unicode="\" horiz-adv-x="733" 
d="M246 1495q17 0 20 -16l426 -1745q4 -21 -16 -21h-189q-17 0 -20 17l-426 1745q-3 20 16 20h189z" />
    <glyph glyph-name="bracketright" unicode="]" horiz-adv-x="593" 
d="M514 1495q8 0 13 -5.5t5 -12.5v-1745q0 -8 -5.5 -13.5t-12.5 -5.5h-434q-8 0 -13.5 5.5t-5.5 13.5v194q0 8 5.5 13.5t13.5 5.5h186v1319h-186q-8 0 -13.5 5.5t-5.5 12.5v195q0 7 5.5 12.5t13.5 5.5h434z" />
    <glyph glyph-name="asciicircum" unicode="^" horiz-adv-x="1116" 
d="M557 1198l-299 -713q-7 -14 -22 -14h-197q-9 0 -13.5 6.5t-0.5 16.5l413 925q8 15 21 15h198q13 0 21 -15l414 -925q4 -10 -0.5 -16.5t-14.5 -6.5h-196q-16 0 -23 14z" />
    <glyph glyph-name="underscore" unicode="_" horiz-adv-x="835" 
d="M799 -135q7 0 12.5 -5.5t5.5 -13.5v-176q0 -8 -5.5 -13t-12.5 -5h-762q-8 0 -13.5 5.5t-5.5 12.5v176q0 8 6 13.5t13 5.5h762z" />
    <glyph glyph-name="grave" unicode="`" horiz-adv-x="802" 
d="M172 1483q8 19 25 10l487 -211q16 -6 10 -25l-43 -110q-6 -17 -22 -12l-508 133q-8 2 -11.5 8.5t-0.5 13.5z" />
    <glyph glyph-name="a" unicode="a" horiz-adv-x="1144" 
d="M793 942l-5 94q0 19 17 19h274q7 0 13 -5.5t6 -13.5l-6 -510l6 -508q0 -7 -5.5 -12.5t-13.5 -5.5h-272q-19 0 -19 18l5 105q-118 -143 -312 -143q-110 0 -197 41.5t-143.5 115.5t-86 172.5t-29.5 214.5q0 153 55 277.5t161 199t246 74.5q195 0 306 -133zM567 184
q229 0 232 336q1 168 -57 258t-169 92q-116 3 -175.5 -81t-59.5 -248q0 -177 59 -268t170 -89z" />
    <glyph glyph-name="b" unicode="b" horiz-adv-x="1144" 
d="M664 1075q145 0 250 -73t155.5 -194.5t50.5 -277.5q0 -153 -55 -277.5t-161.5 -198.5t-246.5 -74q-194 0 -305 133l4 -95q0 -18 -16 -18h-274q-8 0 -13.5 5.5t-5.5 12.5l6 699l-6 698q0 7 5.5 13t13.5 6h272q7 0 12.5 -5.5t5.5 -13.5l-2 -481q116 141 310 141zM571 188
q116 -3 176 83t60 247q0 172 -59 261t-170 87q-229 0 -232 -327q-1 -169 57 -259t168 -92z" />
    <glyph glyph-name="c" unicode="c" horiz-adv-x="1073" 
d="M563 -27q-252 0 -395 148.5t-143 402.5q0 255 144.5 406t399.5 151q200 0 326 -104.5t145 -278.5q3 -18 -16 -18h-250q-15 0 -18 16q-17 87 -67.5 132.5t-119.5 45.5q-117 -1 -173 -87t-56 -261q0 -180 56 -263t173 -85q80 -2 133 53t62 156q3 19 20 19h254q20 0 17 -17
q-15 -183 -151 -299.5t-341 -116.5z" />
    <glyph glyph-name="d" unicode="d" horiz-adv-x="1144" 
d="M791 944l-3 471q0 7 6 13t13 6h272q7 0 13 -6t6 -13l-4 -698l4 -699q0 -7 -5.5 -12.5t-13.5 -5.5h-274q-19 0 -19 18l7 105q-118 -143 -312 -143q-110 0 -197 41.5t-143.5 115.5t-86 172.5t-29.5 214.5q0 153 55 277.5t161 199t246 74.5q194 0 304 -131zM567 182
q229 0 232 336q1 170 -57.5 261t-168.5 93q-116 3 -175.5 -82.5t-59.5 -250.5q0 -177 59 -268t170 -89z" />
    <glyph glyph-name="e" unicode="e" horiz-adv-x="1128" 
d="M571 178q167 0 205 162q6 16 21 16h258q21 0 18 -18q-21 -154 -157.5 -259.5t-348.5 -105.5q-257 0 -399.5 152.5t-142.5 398.5q0 254 143 405.5t393 151.5q257 0 398.5 -159t146.5 -439q0 -18 -19 -18h-753q9 -148 67.5 -217.5t169.5 -69.5zM563 879q-183 0 -221 -220
h432q-10 94 -63 157t-148 63z" />
    <glyph glyph-name="f" unicode="f" horiz-adv-x="753" 
d="M596 1235q-115 0 -115 -139v-41h234q7 0 12.5 -5.5t5.5 -13.5v-180q0 -8 -5.5 -13t-12.5 -5h-234v-373l11 -447q0 -7 -5.5 -12.5t-13.5 -5.5h-283q-8 0 -13 5t-5 13l8 447v373h-141q-8 0 -13.5 5.5t-5.5 12.5v180q0 8 6 13.5t13 5.5h141v69q0 87 28.5 152.5t78 103
t109 56t128.5 18.5q78 0 193 -18q16 -3 16 -19v-178q0 -9 -3.5 -13t-10.5 -3q-47 12 -123 12z" />
    <glyph glyph-name="g" unicode="g" horiz-adv-x="1142" 
d="M793 940l-7 96q0 19 19 19h270q7 0 13 -5.5t6 -13.5l-4 -524l2 -483q0 -204 -134 -321.5t-389 -117.5q-215 -3 -353 84.5t-150 255.5q0 19 18 19h266q18 0 21 -17q9 -67 62.5 -103t146.5 -36q104 0 164.5 60t60.5 180v121q-113 -148 -303 -148q-152 0 -261.5 71
t-162.5 189t-53 269q0 148 54.5 268.5t161 193t246.5 72.5q195 0 306 -129zM567 207q229 0 232 319q1 164 -57.5 252t-168.5 90q-116 3 -175.5 -79.5t-59.5 -241.5q0 -169 59 -255.5t170 -84.5z" />
    <glyph glyph-name="h" unicode="h" horiz-adv-x="1087" 
d="M346 625l8 -607q0 -8 -5 -13t-13 -5h-268q-8 0 -13.5 5.5t-5.5 12.5l8 701l-8 696q0 7 5.5 13t13.5 6h268q7 0 12.5 -5.5t5.5 -13.5l-6 -477q111 141 320 141q183 0 281.5 -112t94.5 -338v-226l7 -385q0 -7 -5.5 -12.5t-13.5 -5.5h-276q-8 0 -13.5 5.5t-5.5 12.5l6 381
l-2 267q-1 91 -44.5 139.5t-110.5 48.5q-79 0 -147.5 -60.5t-92.5 -168.5z" />
    <glyph glyph-name="i" unicode="i" horiz-adv-x="421" 
d="M348 1434q8 0 13.5 -6t5.5 -13v-239q0 -8 -5.5 -13.5t-13.5 -5.5h-274q-8 0 -13.5 5.5t-5.5 13.5v239q0 7 5.5 13t13.5 6h274zM362 526l7 -508q0 -7 -5.5 -12.5t-13.5 -5.5h-276q-8 0 -13.5 5.5t-5.5 12.5l6 508l-6 510q0 8 5.5 13.5t13.5 5.5h276q8 0 13.5 -5.5
t5.5 -13.5z" />
    <glyph glyph-name="j" unicode="j" horiz-adv-x="421" 
d="M348 1434q8 0 13.5 -6t5.5 -13v-239q0 -8 -5.5 -13.5t-13.5 -5.5h-274q-8 0 -13.5 5.5t-5.5 13.5v239q0 7 5.5 13t13.5 6h274zM362 362l7 -692q0 -7 -5.5 -12.5t-13.5 -5.5h-276q-8 0 -13.5 5.5t-5.5 12.5l6 692l-6 674q0 8 5.5 13.5t13.5 5.5h276q8 0 13.5 -5.5
t5.5 -13.5z" />
    <glyph glyph-name="k" unicode="k" horiz-adv-x="1024" 
d="M655 1044q11 11 23 11h293q11 0 14 -7t-4 -16l-317 -356l376 -653q5 -9 1.5 -16t-13.5 -7h-317q-16 0 -21 12l-108 209l-131 234l-101 -127l2 -310q0 -8 -5 -13t-13 -5h-268q-8 0 -13.5 5.5t-5.5 12.5l8 699l-8 698q0 7 5.5 13t13.5 6h268q7 0 12.5 -5.5t5.5 -13.5
l-6 -692v-64z" />
    <glyph glyph-name="l" unicode="l" horiz-adv-x="419" 
d="M354 717l8 -699q0 -8 -5 -13t-13 -5h-268q-8 0 -13.5 5.5t-5.5 12.5l9 699l-9 698q0 7 5.5 13t13.5 6h268q7 0 12.5 -5.5t5.5 -13.5z" />
    <glyph glyph-name="m" unicode="m" horiz-adv-x="1646" 
d="M1606 379l4 -361q0 -7 -5.5 -12.5t-13.5 -5.5h-276q-8 0 -13.5 5.5t-5.5 12.5l7 361v287q0 93 -36 140.5t-100 47.5q-70 0 -128 -89t-58 -239v-147l6 -361q0 -8 -5.5 -13t-12.5 -5h-277q-8 0 -13 5t-5 13l6 361v287q0 188 -135 188q-71 0 -129 -88.5t-58 -239.5v-147
l7 -361q0 -7 -5.5 -12.5t-13.5 -5.5h-280q-8 0 -13.5 5.5t-5.5 12.5l6 361l-2 657q0 8 5.5 13.5t13.5 5.5h262q18 0 18 -19l-6 -114q114 157 303 157q229 0 301 -198q63 112 141 155t181 43q163 0 249.5 -101t86.5 -308v-291z" />
    <glyph glyph-name="n" unicode="n" horiz-adv-x="1093" 
d="M360 449l5 -431q0 -7 -5.5 -12.5t-13.5 -5.5h-278q-8 0 -13.5 5.5t-5.5 12.5l6 488l-2 530q0 8 5.5 13.5t13.5 5.5h260q18 0 18 -19l-6 -114q56 72 144.5 114.5t195.5 42.5q169 0 268 -108.5t99 -300.5v-221l6 -431q0 -7 -5.5 -12.5t-13.5 -5.5h-274q-8 0 -13.5 5.5
t-5.5 12.5l5 431v217q0 85 -45 136.5t-115 51.5q-92 0 -161 -85t-69 -243v-77z" />
    <glyph glyph-name="o" unicode="o" horiz-adv-x="1132" 
d="M567 -27q-256 0 -399 148t-143 403t143.5 406t398.5 151t397 -148t142 -403q0 -256 -142 -406.5t-397 -150.5zM567 178q115 0 169.5 83t54.5 263q0 353 -226 353q-117 -1 -172 -88.5t-55 -266.5q0 -177 56.5 -260.5t172.5 -83.5z" />
    <glyph glyph-name="p" unicode="p" horiz-adv-x="1144" 
d="M664 1075q145 0 250 -73t155.5 -194.5t50.5 -277.5q0 -153 -55 -277.5t-161.5 -198.5t-246.5 -74q-190 0 -301 129l4 -439q0 -8 -5 -13t-13 -5h-276q-8 0 -13.5 5.5t-5.5 12.5l6 758l-6 608q0 8 5.5 13.5t13.5 5.5h274q18 0 18 -19l-6 -104q118 143 312 143zM571 186
q117 0 176.5 83t59.5 245q0 174 -58 263t-171 89t-172 -83.5t-60 -247.5q-2 -168 56.5 -258.5t168.5 -90.5z" />
    <glyph glyph-name="q" unicode="q" horiz-adv-x="1144" 
d="M793 942l-5 94q0 19 17 19h274q7 0 13 -5.5t6 -13.5l-6 -678l6 -688q0 -7 -5.5 -12.5t-13.5 -5.5h-272q-8 0 -13.5 5.5t-5.5 12.5v449q-117 -139 -307 -139q-110 0 -197 41.5t-143.5 115.5t-86 172.5t-29.5 214.5q0 153 55 277.5t161 199t246 74.5q195 0 306 -133z
M567 184q229 0 232 332q2 169 -57 261.5t-169 92.5q-113 0 -174 -82.5t-61 -250.5q0 -353 229 -353z" />
    <glyph glyph-name="r" unicode="r" horiz-adv-x="794" 
d="M354 469v-451q0 -8 -5 -13t-13 -5h-270q-8 0 -13.5 5.5t-5.5 12.5l8 510l-8 508q0 8 5.5 13.5t13.5 5.5h270q18 0 18 -19l-8 -159q60 91 159 138.5t218 47.5q21 0 49 -4q16 -3 16 -21v-190q0 -19 -18 -19q-12 2 -39 2q-170 0 -274 -93.5t-103 -268.5z" />
    <glyph glyph-name="s" unicode="s" horiz-adv-x="1054" 
d="M537 -25q-234 0 -370.5 93t-143.5 268q0 18 18 18h262q19 0 19 -18q11 -170 229 -170q90 0 138 33.5t48 95.5q0 32 -23.5 53.5t-63.5 33.5t-92 20t-109 17t-114 21t-109 35t-92 56t-63.5 87t-23.5 125q0 162 122 249t339 87q212 0 340 -84.5t141 -246.5q3 -19 -16 -19
h-252q-16 0 -19 16q-26 148 -198 148q-164 0 -164 -127q0 -32 23.5 -53t63.5 -32.5t92 -19t109 -16t114 -19.5t109 -34t92 -56t63.5 -87.5t23.5 -126.5q0 -162 -137 -254.5t-356 -92.5z" />
    <glyph glyph-name="t" unicode="t" horiz-adv-x="724" 
d="M440 1319q8 0 13.5 -5.5t5.5 -13.5l-2 -245h233q8 0 13.5 -5.5t5.5 -13.5v-180q0 -7 -5.5 -12.5t-13.5 -5.5h-235l2 -521q0 -64 28.5 -91t83.5 -27t117 16q9 3 15 -2t6 -14v-162q0 -17 -15 -23q-115 -34 -194 -34q-70 0 -130 18t-110 55.5t-79 103t-29 152.5l2 529h-119
q-8 0 -13.5 5.5t-5.5 12.5v180q0 8 6 13.5t13 5.5h119l-2 245q0 8 5.5 13.5t12.5 5.5h272z" />
    <glyph glyph-name="u" unicode="u" horiz-adv-x="1093" 
d="M412 -25q-169 0 -269 109t-100 301v221l-4 430q0 8 5.5 13.5t12.5 5.5h275q7 0 12.5 -5.5t5.5 -13.5l-6 -430v-217q0 -85 46 -136.5t116 -51.5q92 0 160.5 84.5t68.5 242.5v78l-4 430q0 8 5.5 13.5t13.5 5.5h278q8 0 13.5 -5.5t5.5 -13.5l-7 -487l2 -531q0 -8 -5 -13
t-13 -5h-260q-19 0 -19 18l7 115q-56 -72 -144.5 -115t-195.5 -43z" />
    <glyph glyph-name="v" unicode="v" horiz-adv-x="1052" 
d="M711 12q-6 -14 -23 -14h-330q-16 0 -22 14l-354 1022q-6 21 14 21h293q17 0 20 -17l226 -780l251 782q3 15 21 15h250q20 0 14 -21z" />
    <glyph glyph-name="w" unicode="w" horiz-adv-x="1488" 
d="M590 16q-3 -16 -21 -16h-327q-18 0 -21 16l-225 1018q-3 21 16 21h273q15 0 18 -17l119 -780l145 780q3 17 21 17h338q15 0 18 -17l141 -764l125 764q3 17 19 17h248q19 0 16 -21l-223 -1018q-3 -16 -21 -16h-329q-18 0 -21 16l-166 777z" />
    <glyph glyph-name="x" unicode="x" horiz-adv-x="1007" 
d="M492 367l-189 -355q-6 -12 -20 -12h-279q-10 0 -13.5 7t1.5 16l313 534l-297 475q-6 10 -2.5 16.5t14.5 6.5h304q14 0 20 -13l182 -337l166 335q8 15 21 15h270q10 0 13.5 -7t-1.5 -16l-286 -491l305 -518q5 -9 0 -16t-15 -7h-305q-15 0 -20 12z" />
    <glyph glyph-name="y" unicode="y" horiz-adv-x="1034" 
d="M309 -348q-20 0 -14 20l108 318l-421 1044q-3 9 1 15t13 6h307q17 0 23 -15l229 -661l190 659q3 17 21 17h272q21 0 15 -21l-467 -1368q-6 -14 -23 -14h-254z" />
    <glyph glyph-name="z" unicode="z" horiz-adv-x="958" 
d="M907 217q8 0 13.5 -5.5t5.5 -12.5v-181q0 -7 -5.5 -12.5t-13.5 -5.5h-854q-7 0 -12.5 5t-5.5 13v187q0 14 8 22l477 611h-424q-8 0 -13 5t-5 13v180q0 8 5.5 13.5t12.5 5.5h781q7 0 12.5 -5.5t5.5 -13.5v-190q0 -15 -8 -23l-484 -606h504z" />
    <glyph glyph-name="braceleft" unicode="{" horiz-adv-x="593" 
d="M530 1495q8 0 13.5 -5.5t5.5 -12.5v-195q0 -7 -5.5 -12.5t-13.5 -5.5h-81q-72 0 -93 -55.5t19 -178.5l59 -164q14 -38 14.5 -76t-12 -73.5t-44.5 -66t-81 -48.5q48 -19 80 -50.5t44 -67.5t12 -72.5t-13 -69.5l-51 -139q-34 -90 -33 -149.5t27 -84t72 -24.5h81
q8 0 13.5 -5.5t5.5 -13.5v-194q0 -8 -5.5 -13.5t-13.5 -5.5h-84q-97 0 -170 26.5t-115.5 73.5t-62 109t-13.5 134t34 149l51 137q15 38 17.5 70.5t-13.5 56t-55 23.5h-43q-8 0 -13.5 5.5t-5.5 12.5v188q0 8 5.5 13.5t13.5 5.5h43q39 0 55 23t13.5 55t-17.5 71l-59 164
q-38 98 -27.5 183t54.5 147.5t124.5 98.5t183.5 36h84z" />
    <glyph glyph-name="bar" unicode="|" horiz-adv-x="342" 
d="M264 1495q8 0 13.5 -5.5t5.5 -12.5v-1745q0 -8 -5.5 -13.5t-13.5 -5.5h-188q-8 0 -13.5 5.5t-5.5 13.5v1745q0 7 5.5 12.5t13.5 5.5h188z" />
    <glyph glyph-name="braceright" unicode="}" horiz-adv-x="593" 
d="M477 717h43q8 0 13.5 -5.5t5.5 -13.5v-188q0 -7 -5.5 -12.5t-13.5 -5.5h-43q-39 0 -55 -23.5t-13.5 -56t17.5 -70.5l51 -137q28 -77 34 -149t-13.5 -134t-62 -109t-115.5 -73.5t-170 -26.5h-84q-8 0 -13.5 5.5t-5.5 13.5v194q0 8 5.5 13.5t13.5 5.5h81q46 0 72 24.5
t27 84t-33 149.5l-51 139q-13 33 -13 69.5t12 72.5t44 67.5t80 50.5q-49 18 -81 48.5t-44.5 66t-12 73.5t14.5 76l59 164q40 123 19 178.5t-93 55.5h-81q-8 0 -13.5 5.5t-5.5 12.5v195q0 7 5.5 12.5t13.5 5.5h84q103 0 183.5 -36t124.5 -98.5t54.5 -147.5t-27.5 -183
l-59 -164q-15 -39 -17.5 -71t13.5 -55t55 -23z" />
    <glyph glyph-name="asciitilde" unicode="~" horiz-adv-x="1116" 
d="M264 584q0 -19 -18 -19h-180q-19 0 -19 19q2 138 34.5 241t103 165.5t173.5 62.5q48 0 91.5 -15t74.5 -38.5t59 -52.5t50 -57.5t41.5 -52t39 -38.5t38.5 -15q55 0 77.5 61t24.5 173q0 18 18 18h181q18 0 18 -18q-3 -212 -79 -330.5t-226 -118.5q-64 0 -118.5 27.5
t-91 67.5t-68 79.5t-63.5 67t-63 27.5q-95 0 -98 -254z" />
    <glyph glyph-name="exclamdown" unicode="&#xa1;" horiz-adv-x="411" 
d="M72 760q-8 0 -13.5 5.5t-5.5 12.5v258q0 8 5.5 13.5t13.5 5.5h268q7 0 12.5 -5.5t5.5 -13.5v-258q0 -8 -5 -13t-13 -5h-268zM72 -379q-8 0 -13.5 5.5t-5.5 13.5v981q0 7 5.5 12.5t13.5 5.5h268q8 0 13 -5.5t5 -12.5v-981q0 -8 -5.5 -13.5t-12.5 -5.5h-268z" />
    <glyph glyph-name="cent" unicode="&#xa2;" horiz-adv-x="1083" 
d="M774 592q3 18 21 18h254q19 0 16 -18q-14 -143 -102.5 -248t-229.5 -145v-181q0 -8 -5.5 -13t-12.5 -5h-275q-8 0 -13 5t-5 13v177q-184 41 -285.5 181t-101.5 353q0 212 101 354.5t286 184.5v147q0 8 5.5 13.5t12.5 5.5h275q7 0 12.5 -5.5t5.5 -13.5v-147
q137 -35 221 -131t97 -234q3 -18 -17 -18h-250q-15 0 -18 16q-17 88 -67 133t-119 45q-117 -1 -173.5 -87t-56.5 -261q0 -179 56.5 -262.5t173.5 -85.5q80 -2 132.5 53t61.5 156z" />
    <glyph glyph-name="sterling" unicode="&#xa3;" horiz-adv-x="1247" 
d="M913 481q0 19 19 19h274q19 0 19 -19q-4 -262 -129.5 -383.5t-354.5 -115.5l-688 18q-7 0 -12.5 5t-5.5 13v187q0 15 16 20l43 13q132 36 139 200q2 74 -30 211h-189q-7 0 -12.5 5.5t-5.5 13.5v174q0 8 5 13t13 5h136q-25 109 -25 176q0 191 137.5 309.5t376.5 118.5
q223 0 363.5 -109t168.5 -337q3 -21 -18 -21h-266q-18 0 -21 19q-12 99 -72 154t-159 55q-93 0 -141 -55.5t-48 -133.5q0 -76 21 -176h278q8 0 13.5 -5.5t5.5 -12.5v-174q0 -8 -6 -13.5t-13 -5.5h-229q19 -105 19 -168q0 -75 -43 -146t-130 -104l353 -10q61 -1 101 15.5
t60.5 53.5t28 80.5t8.5 110.5z" />
    <glyph glyph-name="currency" unicode="&#xa4;" horiz-adv-x="1167" 
d="M1012 702q0 -116 -70 -223l170 -170q12 -12 0 -24l-117 -115q-12 -12 -24 0l-178 178q-92 -53 -209 -53q-113 0 -211 53l-178 -178q-13 -12 -25 0l-117 115q-12 12 0 24l172 172q-69 97 -69 221q0 125 69 222l-172 172q-12 12 0 24l117 115q12 13 25 0l178 -178
q98 53 211 53q117 0 209 -53l178 178q12 12 24 0l117 -115q12 -12 0 -24l-170 -170q70 -107 70 -224zM584 465q88 0 152.5 67t64.5 170q0 105 -64.5 171.5t-152.5 66.5q-92 0 -154.5 -66t-62.5 -172q0 -104 63 -170.5t154 -66.5z" />
    <glyph glyph-name="yen" unicode="&#xa5;" horiz-adv-x="1247" 
d="M637 823l297 596q8 15 20 15h287q10 0 14.5 -7t-0.5 -16l-391 -653h223q7 0 13 -6t6 -13v-170q0 -7 -5.5 -12.5t-13.5 -5.5h-313l2 -131h311q7 0 13 -6t6 -13v-170q0 -7 -5.5 -12.5t-13.5 -5.5h-305l4 -195q0 -8 -5 -13t-13 -5h-289q-18 0 -18 18l6 195h-305
q-8 0 -13.5 5.5t-5.5 12.5v170q0 7 5.5 13t13.5 6h311l2 131h-313q-8 0 -13.5 5.5t-5.5 12.5v170q0 7 5.5 13t13.5 6h223l-393 653q-6 11 -1.5 17t15.5 6h316q12 0 20 -15z" />
    <glyph glyph-name="brokenbar" unicode="&#xa6;" horiz-adv-x="342" 
d="M264 1495q8 0 13.5 -5.5t5.5 -12.5v-721q0 -8 -5.5 -13.5t-13.5 -5.5h-188q-8 0 -13.5 5.5t-5.5 13.5v721q0 7 5.5 12.5t13.5 5.5h188zM264 471q8 0 13.5 -5.5t5.5 -12.5v-721q0 -8 -5.5 -13.5t-13.5 -5.5h-188q-8 0 -13.5 5.5t-5.5 13.5v721q0 7 5.5 12.5t13.5 5.5h188z
" />
    <glyph glyph-name="section" unicode="&#xa7;" horiz-adv-x="1257" 
d="M989 266q225 -92 225 -305q0 -121 -74.5 -209.5t-200.5 -133t-286 -44.5q-171 0 -305 40t-216 122.5t-89 197.5q0 19 18 19h263q18 0 18 -19q7 -88 84.5 -129t226.5 -41q130 0 199.5 34t69.5 96q0 42 -29 72.5t-78.5 49t-113.5 33.5t-135 29t-142 31.5t-135 45.5
t-113.5 66t-78.5 98.5t-29 137.5q0 108 58.5 185.5t166.5 119.5q-225 92 -225 285q0 191 143.5 294t398.5 103q249 0 398 -90t166 -262q3 -19 -17 -19h-252q-15 0 -18 17q-29 167 -281 167q-246 0 -246 -147q0 -36 24 -63.5t65 -44t95.5 -31t116 -24.5t126.5 -24.5
t126.5 -30.5t116 -44.5t95.5 -64t65 -90t24 -122.5q0 -103 -59 -180.5t-166 -124.5zM360 520q0 -40 25 -68.5t75 -47.5t102 -31.5t127 -26.5q9 -1 13 -2q220 45 220 160q0 38 -24.5 66.5t-75 48.5t-100.5 33t-127 30q-7 1 -11 2q-113 -26 -168.5 -62t-55.5 -102z" />
    <glyph glyph-name="dieresis" unicode="&#xa8;" horiz-adv-x="884" 
d="M334 1434q7 0 12.5 -5.5t5.5 -13.5v-239q0 -8 -5.5 -13.5t-12.5 -5.5h-213q-7 0 -13 5.5t-6 13.5v239q0 7 6 13t13 6h213zM764 1434q7 0 12.5 -5.5t5.5 -13.5v-239q0 -8 -5.5 -13.5t-12.5 -5.5h-213q-7 0 -13 5.5t-6 13.5v239q0 7 6 13t13 6h213z" />
    <glyph glyph-name="copyright" unicode="&#xa9;" 
d="M750 -31q-216 0 -381 94.5t-253.5 263t-88.5 386.5q0 343 196.5 547t526.5 204q329 0 527 -203t198 -548q0 -217 -89 -386t-254.5 -263.5t-381.5 -94.5zM752 86q280 0 432.5 166t152.5 461t-152.5 465t-434.5 170q-284 0 -435 -167.5t-151 -467.5q0 -293 154 -460
t434 -167zM766 248q-207 0 -329 129.5t-122 337.5q0 217 122.5 347t326.5 130q332 0 403 -313q3 -21 -16 -21h-156q-14 0 -20 16q-19 80 -73 123t-140 43q-118 0 -181 -85t-63 -238q0 -152 63.5 -236t178.5 -84q180 0 219 189q6 16 20 16h160q20 0 17 -24
q-40 -173 -143 -251.5t-267 -78.5z" />
    <glyph glyph-name="ordfeminine" unicode="&#xaa;" horiz-adv-x="892" 
d="M588 1382l-2 33q0 19 16 19h232q7 0 12.5 -5.5t5.5 -13.5l-4 -356l4 -375q0 -8 -5 -13t-13 -5h-230q-18 0 -18 18l2 45q-90 -84 -228 -84q-157 0 -245 116t-88 296q0 169 93 283t247 114q134 0 221 -72zM446 809q150 0 150 244q1 114 -35.5 174.5t-107.5 62.5
q-154 3 -154 -237q0 -121 38 -183.5t109 -60.5z" />
    <glyph glyph-name="guillemotleft" unicode="&#xab;" horiz-adv-x="1048" 
d="M281 530l309 -370q7 -9 4 -16t-14 -7h-211q-13 0 -23 10l-309 371q-9 12 0 25l309 383q10 10 23 10h211q11 0 14 -7t-4 -16zM696 530l310 -370q7 -9 3.5 -16t-14.5 -7h-211q-12 0 -22 10l-309 371q-9 12 0 25l309 383q10 10 22 10h211q11 0 14.5 -7t-3.5 -16z" />
    <glyph glyph-name="logicalnot" unicode="&#xac;" horiz-adv-x="1126" 
d="M100 592q-8 0 -13 5t-5 13v191q0 7 5 12.5t13 5.5h926q8 0 13 -5.5t5 -12.5v-598q0 -8 -5.5 -13.5t-12.5 -5.5h-199q-7 0 -12.5 5.5t-5.5 13.5v389h-709z" />
    <glyph glyph-name="registered" unicode="&#xae;" horiz-adv-x="763" 
d="M383 725q-160 0 -258 101.5t-98 263.5q0 169 96.5 268.5t259.5 99.5q161 0 257.5 -99.5t96.5 -268.5q0 -162 -97 -263.5t-257 -101.5zM383 799q129 0 200.5 77.5t71.5 213.5q0 137 -71 215.5t-201 78.5q-133 0 -203.5 -77t-70.5 -217q0 -136 71.5 -213.5t202.5 -77.5z
M313 1042v-131q0 -7 -5.5 -12.5t-12.5 -5.5h-68q-7 0 -12.5 5.5t-5.5 12.5v365q0 8 5.5 13t12.5 5h150q84 0 129 -32t45 -93q0 -86 -90 -114l90 -140q6 -9 2.5 -15.5t-14.5 -6.5h-80q-17 0 -23 12l-86 137h-37zM379 1221h-66v-107h68q30 0 49 13.5t19 39.5q0 54 -70 54z" />
    <glyph glyph-name="macron" unicode="&#xaf;" horiz-adv-x="874" 
d="M754 1372q8 0 13 -5t5 -13v-168q0 -8 -5.5 -13.5t-12.5 -5.5h-633q-7 0 -13 5.5t-6 13.5v168q0 7 5.5 12.5t13.5 5.5h633z" />
    <glyph glyph-name="macron" unicode="&#x2c9;" horiz-adv-x="874" 
d="M754 1372q8 0 13 -5t5 -13v-168q0 -8 -5.5 -13.5t-12.5 -5.5h-633q-7 0 -13 5.5t-6 13.5v168q0 7 5.5 12.5t13.5 5.5h633z" />
    <glyph glyph-name="degree" unicode="&#xb0;" horiz-adv-x="743" 
d="M373 803q-149 0 -247.5 92.5t-98.5 232.5t98.5 233t247.5 93t247.5 -93t98.5 -233t-98.5 -232.5t-247.5 -92.5zM373 973q59 0 97 41t38 114q0 74 -38 115t-97 41q-62 0 -98.5 -40.5t-36.5 -115.5q0 -74 37 -114.5t98 -40.5z" />
    <glyph glyph-name="plusminus" unicode="&#xb1;" horiz-adv-x="1116" 
d="M659 1311q7 0 13 -5.5t6 -13.5v-391h344q8 0 13 -5.5t5 -12.5v-191q0 -8 -5 -13t-13 -5h-344v-389q0 -7 -6 -13t-13 -6h-198q-7 0 -13 6t-6 13v389h-346q-8 0 -13 5t-5 13v191q0 7 5 12.5t13 5.5h346v391q0 8 6 13.5t13 5.5h198zM1022 227q8 0 13 -5.5t5 -12.5v-191
q0 -8 -5 -13t-13 -5h-926q-8 0 -13 5t-5 13v191q0 7 5 12.5t13 5.5h926z" />
    <glyph glyph-name="two.sups" unicode="&#xb2;" horiz-adv-x="641" 
d="M586 797q7 0 12.5 -5.5t5.5 -13.5v-114q0 -8 -5.5 -13.5t-12.5 -5.5h-537q-7 0 -12.5 5.5t-5.5 13.5v96q0 65 21 117t55 85t74.5 59.5t81.5 46t75 38t55 43t21 53.5q3 50 -21.5 76.5t-68.5 26.5q-42 -2 -68.5 -32.5t-30.5 -86.5q0 -19 -18 -19h-150q-18 0 -18 19
q0 126 72.5 194.5t212.5 69.5q135 0 204 -62.5t74 -179.5q0 -60 -21 -109.5t-54.5 -81t-74.5 -57t-81.5 -44t-74 -35.5t-54.5 -37.5t-21 -44.5v-2h365z" />
    <glyph glyph-name="three.sups" unicode="&#xb3;" horiz-adv-x="636" 
d="M311 635q-259 0 -284 239q-3 19 16 19h160q18 0 18 -19q5 -51 29.5 -78t66.5 -26q37 0 64.5 30t28.5 83q3 64 -22 90t-87 26h-51q-8 0 -13.5 5.5t-5.5 13.5v90q0 7 5.5 12.5t13.5 5.5h51q49 0 73.5 26.5t24.5 68.5q0 37 -22.5 63.5t-54.5 26.5q-77 0 -86 -86
q-3 -19 -21 -19h-160q-19 0 -16 19q11 106 86.5 163.5t206.5 57.5q120 0 192 -56.5t74 -146.5q0 -126 -127 -170q147 -42 147 -182q0 -120 -90 -188t-217 -68z" />
    <glyph glyph-name="acute" unicode="&#xb4;" horiz-adv-x="800" 
d="M608 1493q18 9 25 -10l59 -193q3 -7 -0.5 -13.5t-11.5 -8.5l-504 -133q-16 -5 -22 12l-45 110q-6 19 10 25z" />
    <glyph glyph-name="uni03BC" unicode="&#xb5;" horiz-adv-x="1116" 
d="M754 1036q0 8 5.5 13.5t12.5 5.5h279q7 0 12.5 -5.5t5.5 -13.5l-6 -487l2 -531q0 -8 -5.5 -13t-12.5 -5h-261q-18 0 -18 18l6 115q-56 -72 -144.5 -115t-195.5 -43q-34 0 -78 7l2 -312q0 -8 -5 -13t-13 -5h-274q-8 0 -13.5 5.5t-5.5 12.5l4 758l-4 608q0 8 5.5 13.5
t13.5 5.5h288q8 0 13.5 -5.5t5.5 -13.5l-6 -430v-217q0 -85 45.5 -136.5t115.5 -51.5q92 0 161 84.5t69 242.5v78z" />
    <glyph glyph-name="uni03BC" unicode="&#x3bc;" horiz-adv-x="1116" 
d="M754 1036q0 8 5.5 13.5t12.5 5.5h279q7 0 12.5 -5.5t5.5 -13.5l-6 -487l2 -531q0 -8 -5.5 -13t-12.5 -5h-261q-18 0 -18 18l6 115q-56 -72 -144.5 -115t-195.5 -43q-34 0 -78 7l2 -312q0 -8 -5 -13t-13 -5h-274q-8 0 -13.5 5.5t-5.5 12.5l4 758l-4 608q0 8 5.5 13.5
t13.5 5.5h288q8 0 13.5 -5.5t5.5 -13.5l-6 -430v-217q0 -85 45.5 -136.5t115.5 -51.5q92 0 161 84.5t69 242.5v78z" />
    <glyph glyph-name="paragraph" unicode="&#xb6;" horiz-adv-x="1435" 
d="M899 266l10 -596q0 -8 -5.5 -13t-12.5 -5h-289q-8 0 -13 5t-5 13l8 592l4 236h-2q-257 0 -402 125t-145 350q0 226 141.5 343.5t403.5 117.5h749q7 0 13 -6t6 -13l-17 -842l17 -903q0 -7 -5.5 -12.5t-13.5 -5.5h-288q-8 0 -13.5 5.5t-5.5 12.5l8 598l5 230h-152z" />
    <glyph glyph-name="periodcentered" unicode="&#xb7;" horiz-adv-x="389" 
d="M336 764q7 0 12.5 -5.5t5.5 -13.5v-256q0 -7 -5 -12.5t-13 -5.5h-283q-7 0 -12.5 5.5t-5.5 12.5v256q0 8 5.5 13.5t12.5 5.5h283z" />
    <glyph glyph-name="periodcentered" unicode="&#x2219;" horiz-adv-x="389" 
d="M336 764q7 0 12.5 -5.5t5.5 -13.5v-256q0 -7 -5 -12.5t-13 -5.5h-283q-7 0 -12.5 5.5t-5.5 12.5v256q0 8 5.5 13.5t12.5 5.5h283z" />
    <glyph glyph-name="cedilla" unicode="&#xb8;" horiz-adv-x="567" 
d="M248 27q6 15 22 12l176 -19q18 -3 15 -20l-68 -350q-2 -8 -8.5 -12t-13.5 -3l-248 46q-18 3 -12 22z" />
    <glyph glyph-name="one.sups" unicode="&#xb9;" horiz-adv-x="491" 
d="M410 985l14 -321q0 -19 -18 -19h-183q-18 0 -18 19l10 393l-6 151q-50 -50 -150 -84q-9 -3 -14.5 2.5t-5.5 14.5v116q0 17 14 23q111 40 160 139q6 15 20 15h173q18 0 18 -19z" />
    <glyph glyph-name="ordmasculine" unicode="&#xba;" horiz-adv-x="888" 
d="M446 639q-199 0 -309 109t-110 299t110.5 301.5t308.5 111.5q197 0 306.5 -109.5t109.5 -297.5q0 -190 -109.5 -302t-306.5 -112zM446 803q73 0 107.5 58.5t34.5 185.5q0 249 -144 249q-75 -1 -110 -62.5t-35 -189.5q0 -241 147 -241z" />
    <glyph glyph-name="guillemotright" unicode="&#xbb;" horiz-adv-x="1048" 
d="M598 543q9 -13 0 -25l-309 -371q-10 -10 -23 -10h-211q-11 0 -14 7t4 16l309 370l-309 383q-7 9 -4 16t14 7h211q13 0 23 -10zM1014 543q9 -13 0 -25l-309 -371q-10 -10 -23 -10h-211q-11 0 -14 7t4 16l309 370l-309 383q-7 9 -4 16t14 7h211q13 0 23 -10z" />
    <glyph glyph-name="onequarter" unicode="&#xbc;" horiz-adv-x="1449" 
d="M410 985l14 -321q0 -19 -18 -19h-183q-18 0 -18 19l10 393l-6 151q-50 -50 -150 -84q-9 -3 -14.5 2.5t-5.5 14.5v116q0 17 14 23q111 40 160 139q6 15 20 15h173q18 0 18 -19zM1294 1434q10 0 13.5 -7t-2.5 -16l-1004 -1399q-9 -12 -22 -12h-175q-10 0 -13 7t3 16
l1004 1398q10 13 22 13h174zM1325 788q7 0 12.5 -5t5.5 -13v-459h68q8 0 13.5 -5.5t5.5 -12.5v-113q0 -7 -5.5 -12.5t-13.5 -5.5h-68v-146q0 -8 -5.5 -13t-12.5 -5h-168q-7 0 -12.5 5t-5.5 13v146h-328q-7 0 -12.5 5t-5.5 13v144q0 10 6 22l268 430q6 12 23 12h235z
M1139 467l6 172l-199 -328h193v156z" />
    <glyph glyph-name="onehalf" unicode="&#xbd;" horiz-adv-x="1505" 
d="M410 985l14 -321q0 -19 -18 -19h-183q-18 0 -18 19l10 393l-6 151q-50 -50 -150 -84q-9 -3 -14.5 2.5t-5.5 14.5v116q0 17 14 23q111 40 160 139q6 15 20 15h173q18 0 18 -19zM1294 1434q10 0 13.5 -7t-2.5 -16l-1004 -1399q-9 -12 -22 -12h-175q-10 0 -13 7t3 16
l1004 1398q10 13 22 13h174zM1450 152q7 0 12.5 -5.5t5.5 -13.5v-115q0 -8 -5 -13t-13 -5h-537q-7 0 -12.5 5t-5.5 13v97q0 65 21 117t55 85t74.5 59.5t81.5 46t75 38t55 43t21 53.5q3 50 -21.5 76t-68.5 26q-42 -2 -68 -32t-30 -86q0 -19 -19 -19h-149q-19 0 -19 19
q0 126 72.5 194.5t212.5 69.5q135 0 204 -62.5t74 -179.5q0 -60 -21 -109.5t-54.5 -81t-74 -57t-81.5 -44t-74.5 -35.5t-54.5 -37.5t-21 -44.5v-2h365z" />
    <glyph glyph-name="threequarters" unicode="&#xbe;" horiz-adv-x="1554" 
d="M311 635q-259 0 -284 239q-3 19 16 19h160q18 0 18 -19q5 -51 29.5 -78t66.5 -26q37 0 64.5 30t28.5 83q3 64 -22 90t-87 26h-51q-8 0 -13.5 5.5t-5.5 13.5v90q0 7 5.5 12.5t13.5 5.5h51q49 0 73.5 26.5t24.5 68.5q0 37 -22.5 63.5t-54.5 26.5q-77 0 -86 -86
q-3 -19 -21 -19h-160q-19 0 -16 19q11 106 86.5 163.5t206.5 57.5q120 0 192 -56.5t74 -146.5q0 -126 -127 -170q147 -42 147 -182q0 -120 -90 -188t-217 -68zM1399 1434q10 0 13 -7t-3 -16l-1003 -1399q-9 -12 -23 -12h-174q-10 0 -13 7t3 16l1003 1398q10 13 23 13h174z
M1430 788q8 0 13 -5t5 -13v-459h68q8 0 13 -5.5t5 -12.5v-113q0 -8 -5 -13t-13 -5h-68v-146q0 -8 -5 -13t-13 -5h-168q-8 0 -13.5 5.5t-5.5 12.5v146h-328q-7 0 -12.5 5t-5.5 13v144q0 10 6 22l268 430q6 12 23 12h236zM1243 467l6 172l-198 -328h192v156z" />
    <glyph glyph-name="questiondown" unicode="&#xbf;" horiz-adv-x="1048" 
d="M391 760q-7 0 -12.5 5t-5.5 13v258q0 8 5.5 13.5t12.5 5.5h275q7 0 12.5 -5.5t5.5 -13.5v-258q0 -8 -5 -13t-13 -5h-275zM373 621q0 18 18 18h273q18 0 18 -18q-2 -80 -22.5 -148t-51 -114.5t-67.5 -86.5t-73.5 -71.5t-66.5 -61t-48.5 -64.5t-18.5 -73q0 -90 54 -140
t144 -52q103 -1 154 54t57 167q0 18 19 18h256q18 0 18 -18q-13 -209 -146.5 -318.5t-373.5 -109.5q-216 0 -352.5 107.5t-136.5 297.5q0 64 18.5 116.5t48 89.5t65.5 70.5t72.5 66.5t67.5 69t51.5 87.5t22.5 113.5z" />
    <glyph glyph-name="Agrave" unicode="&#xc0;" horiz-adv-x="1357" 
d="M408 1862q7 18 24 10l488 -211q16 -6 10 -25l-43 -110q-6 -19 -23 -13l-508 134q-8 2 -11.5 8.5t-0.5 13.5zM877 1434q14 0 20 -15l477 -1399q6 -20 -16 -20h-283q-17 0 -20 14l-113 351h-539l-106 -349q-3 -16 -21 -16h-278q-20 0 -14 20l483 1399q6 15 22 15h388z
M864 612l-196 613l-187 -613h383z" />
    <glyph glyph-name="Aacute" unicode="&#xc1;" horiz-adv-x="1357" 
d="M936 1872q18 9 25 -10l59 -193q3 -7 -0.5 -13.5t-11.5 -8.5l-504 -134q-17 -6 -23 13l-45 110q-6 19 10 25zM877 1434q14 0 20 -15l477 -1399q6 -20 -16 -20h-283q-17 0 -20 14l-113 351h-539l-106 -349q-3 -16 -21 -16h-278q-20 0 -14 20l483 1399q6 15 22 15h388z
M864 612l-196 613l-187 -613h383z" />
    <glyph glyph-name="Acircumflex" unicode="&#xc2;" horiz-adv-x="1357" 
d="M682 1663l-303 -150q-8 -4 -15 -0.5t-10 11.5l-47 114q-6 15 8 25l295 209q12 8 23 8h102q11 0 23 -8l295 -209q14 -10 8 -25l-47 -114q-3 -8 -10 -11.5t-15 0.5zM877 1434q14 0 20 -15l477 -1399q6 -20 -16 -20h-283q-17 0 -20 14l-113 351h-539l-106 -349
q-3 -16 -21 -16h-278q-20 0 -14 20l483 1399q6 15 22 15h388zM864 612l-196 613l-187 -613h383z" />
    <glyph glyph-name="Atilde" unicode="&#xc3;" horiz-adv-x="1357" 
d="M809 1546q-43 0 -81.5 17t-61 37.5t-49 37.5t-48.5 17q-54 0 -57 -88q0 -19 -18 -19h-119q-19 0 -19 19q5 120 57 191t152 71q40 0 77.5 -17t61 -37.5t48.5 -37.5t43 -17q58 0 61 88q0 19 18 19h119q8 0 13.5 -6.5t5.5 -16.5q-5 -123 -55.5 -190.5t-147.5 -67.5z
M877 1434q14 0 20 -15l477 -1399q6 -20 -16 -20h-283q-17 0 -20 14l-113 351h-539l-106 -349q-3 -16 -21 -16h-278q-20 0 -14 20l483 1399q6 15 22 15h388zM864 612l-196 613l-187 -613h383z" />
    <glyph glyph-name="Adieresis" unicode="&#xc4;" horiz-adv-x="1357" 
d="M575 1812q8 0 13.5 -5.5t5.5 -12.5v-240q0 -7 -5.5 -12.5t-13.5 -5.5h-213q-8 0 -13 5t-5 13v240q0 8 5 13t13 5h213zM1006 1812q8 0 13 -5t5 -13v-240q0 -8 -5 -13t-13 -5h-213q-8 0 -13.5 5.5t-5.5 12.5v240q0 7 5.5 12.5t13.5 5.5h213zM877 1434q14 0 20 -15
l477 -1399q6 -20 -16 -20h-283q-17 0 -20 14l-113 351h-539l-106 -349q-3 -16 -21 -16h-278q-20 0 -14 20l483 1399q6 15 22 15h388zM864 612l-196 613l-187 -613h383z" />
    <glyph glyph-name="Aring" unicode="&#xc5;" horiz-adv-x="1357" 
d="M684 1530q-114 0 -189 69.5t-75 174.5q0 104 75 173.5t189 69.5t189 -69.5t75 -173.5q0 -105 -75 -174.5t-189 -69.5zM684 1638q46 0 75 36t29 100q0 65 -29 100t-75 35q-47 0 -75.5 -34.5t-28.5 -100.5q0 -65 28.5 -100.5t75.5 -35.5zM877 1434q14 0 20 -15l477 -1399
q6 -20 -16 -20h-283q-17 0 -20 14l-113 351h-539l-106 -349q-3 -16 -21 -16h-278q-20 0 -14 20l483 1399q6 15 22 15h388zM864 612l-196 613l-187 -613h383z" />
    <glyph glyph-name="AE" unicode="&#xc6;" horiz-adv-x="1847" 
d="M1747 659q0 -7 -5.5 -12.5t-12.5 -5.5h-512l8 -410h579q8 0 13.5 -5.5t5.5 -12.5v-195q0 -7 -5.5 -12.5t-13.5 -5.5h-878q-8 0 -13.5 5.5t-5.5 12.5l6 347h-450l-164 -351q-7 -14 -20 -14h-279q-11 0 -14.5 6t0.5 17l686 1396q8 15 20 15h1096q7 0 12.5 -5.5t5.5 -13.5
v-194q0 -8 -5.5 -13.5t-12.5 -5.5h-563l-8 -330h512q7 0 12.5 -5t5.5 -13v-195zM909 1223h-49l-282 -611h337l3 105z" />
    <glyph glyph-name="Ccedilla" unicode="&#xc7;" horiz-adv-x="1411" 
d="M1079 514q3 16 19 16h274q20 0 17 -20q-54 -260 -198 -390t-372 -149l-63 -321q-1 -7 -8 -12t-15 -3l-248 46q-18 3 -12 22l119 279q-263 46 -414 242.5t-151 486.5q0 343 193 548t517 205q532 0 641 -508q3 -20 -16 -20h-268q-15 0 -21 16q-30 132 -116 202.5t-224 70.5
q-186 0 -285.5 -135t-99.5 -377q0 -240 100 -372t283 -132q288 0 348 305z" />
    <glyph glyph-name="Egrave" unicode="&#xc8;" horiz-adv-x="1101" 
d="M301 1862q7 19 25 10l487 -211q16 -6 10 -25l-43 -110q-6 -18 -22 -13l-508 134q-8 2 -11.5 8.5t-0.5 13.5zM1059 231q7 0 12.5 -5.5t5.5 -12.5v-195q0 -8 -5.5 -13t-12.5 -5h-983q-8 0 -13.5 5.5t-5.5 12.5l11 699l-11 698q0 7 5.5 13t13.5 6h966q8 0 13.5 -6t5.5 -13
v-194q0 -7 -5.5 -13t-13.5 -6h-667l-8 -330h616q7 0 12.5 -5t5.5 -13v-195q0 -7 -5.5 -12.5t-12.5 -5.5h-616l8 -410h684z" />
    <glyph glyph-name="Eacute" unicode="&#xc9;" horiz-adv-x="1101" 
d="M827 1872q17 9 25 -10l59 -193q3 -7 -0.5 -13.5t-11.5 -8.5l-504 -134q-16 -5 -22 13l-45 110q-6 19 10 25zM1059 231q7 0 12.5 -5.5t5.5 -12.5v-195q0 -8 -5.5 -13t-12.5 -5h-983q-8 0 -13.5 5.5t-5.5 12.5l11 699l-11 698q0 7 5.5 13t13.5 6h966q8 0 13.5 -6t5.5 -13
v-194q0 -7 -5.5 -13t-13.5 -6h-667l-8 -330h616q7 0 12.5 -5t5.5 -13v-195q0 -7 -5.5 -12.5t-12.5 -5.5h-616l8 -410h684z" />
    <glyph glyph-name="Ecircumflex" unicode="&#xca;" horiz-adv-x="1101" 
d="M575 1663l-303 -150q-16 -9 -24 11l-47 114q-6 15 8 25l295 209q12 8 22 8h103q10 0 22 -8l295 -209q14 -10 8 -25l-47 -114q-8 -20 -24 -11zM1059 231q7 0 12.5 -5.5t5.5 -12.5v-195q0 -8 -5.5 -13t-12.5 -5h-983q-8 0 -13.5 5.5t-5.5 12.5l11 699l-11 698q0 7 5.5 13
t13.5 6h966q8 0 13.5 -6t5.5 -13v-194q0 -7 -5.5 -13t-13.5 -6h-667l-8 -330h616q7 0 12.5 -5t5.5 -13v-195q0 -7 -5.5 -12.5t-12.5 -5.5h-616l8 -410h684z" />
    <glyph glyph-name="Edieresis" unicode="&#xcb;" horiz-adv-x="1101" 
d="M469 1812q7 0 12.5 -5t5.5 -13v-240q0 -8 -5.5 -13t-12.5 -5h-213q-8 0 -13 5t-5 13v240q0 8 5 13t13 5h213zM899 1812q8 0 13.5 -5.5t5.5 -12.5v-240q0 -7 -5.5 -12.5t-13.5 -5.5h-213q-8 0 -13 5t-5 13v240q0 8 5 13t13 5h213zM1059 231q7 0 12.5 -5.5t5.5 -12.5v-195
q0 -8 -5.5 -13t-12.5 -5h-983q-8 0 -13.5 5.5t-5.5 12.5l11 699l-11 698q0 7 5.5 13t13.5 6h966q8 0 13.5 -6t5.5 -13v-194q0 -7 -5.5 -13t-13.5 -6h-667l-8 -330h616q7 0 12.5 -5t5.5 -13v-195q0 -7 -5.5 -12.5t-12.5 -5.5h-616l8 -410h684z" />
    <glyph glyph-name="Igrave" unicode="&#xcc;" horiz-adv-x="450" 
d="M-53 1862q7 18 24 10l488 -211q16 -6 10 -25l-43 -110q-6 -19 -23 -13l-507 134q-8 2 -12 8.5t-1 13.5zM373 717l10 -699q0 -8 -5.5 -13t-12.5 -5h-279q-8 0 -13 5t-5 13l10 699l-10 698q0 8 5.5 13.5t12.5 5.5h279q7 0 12.5 -5.5t5.5 -13.5z" />
    <glyph glyph-name="Iacute" unicode="&#xcd;" horiz-adv-x="450" 
d="M475 1872q17 9 25 -10l59 -193q3 -7 -0.5 -13.5t-11.5 -8.5l-504 -134q-17 -6 -23 13l-45 110q-6 18 11 25zM373 717l10 -699q0 -8 -5.5 -13t-12.5 -5h-279q-8 0 -13 5t-5 13l10 699l-10 698q0 8 5.5 13.5t12.5 5.5h279q7 0 12.5 -5.5t5.5 -13.5z" />
    <glyph glyph-name="Icircumflex" unicode="&#xce;" horiz-adv-x="450" 
d="M223 1663l-303 -150q-16 -9 -24 11l-48 114q-6 14 9 25l295 209q12 8 22 8h102q11 0 23 -8l295 -209q14 -10 8 -25l-47 -114q-3 -8 -10 -11.5t-15 0.5zM373 717l10 -699q0 -8 -5.5 -13t-12.5 -5h-279q-8 0 -13 5t-5 13l10 699l-10 698q0 8 5.5 13.5t12.5 5.5h279
q7 0 12.5 -5.5t5.5 -13.5z" />
    <glyph glyph-name="Idieresis" unicode="&#xcf;" horiz-adv-x="450" 
d="M117 1812q7 0 12.5 -5t5.5 -13v-240q0 -8 -5.5 -13t-12.5 -5h-213q-8 0 -13.5 5.5t-5.5 12.5v240q0 7 5.5 12.5t13.5 5.5h213zM547 1812q7 0 12.5 -5t5.5 -13v-240q0 -8 -5.5 -13t-12.5 -5h-213q-8 0 -13.5 5.5t-5.5 12.5v240q0 7 5.5 12.5t13.5 5.5h213zM373 717
l10 -699q0 -8 -5.5 -13t-12.5 -5h-279q-8 0 -13 5t-5 13l10 699l-10 698q0 8 5.5 13.5t12.5 5.5h279q7 0 12.5 -5.5t5.5 -13.5z" />
    <glyph glyph-name="Eth" unicode="&#xd0;" horiz-adv-x="1404" 
d="M94 1415q0 7 6 13t13 6h505q126 0 237.5 -26.5t208 -84t166 -141.5t109 -205.5t39.5 -269.5t-40 -268t-109.5 -201t-166 -135t-206 -78.5t-233.5 -24.5h-510q-8 0 -13.5 5.5t-5.5 12.5l10 631h-81q-7 0 -13 5.5t-6 13.5v194q0 8 6 13.5t13 5.5h79zM412 231h227
q89 0 163 27.5t132 83.5t90.5 149.5t32.5 217.5t-32.5 220t-90.5 155t-134.5 88.5t-168.5 29.5h-219l-6 -321h342q7 0 12.5 -5.5t5.5 -13.5v-194q0 -8 -5.5 -13.5t-12.5 -5.5h-342z" />
    <glyph glyph-name="Ntilde" unicode="&#xd1;" horiz-adv-x="1357" 
d="M813 1546q-43 0 -81.5 17t-61 37.5t-49 37.5t-48.5 17q-54 0 -57 -88q0 -19 -18 -19h-119q-19 0 -19 19q5 120 57 191t152 71q40 0 77.5 -17t61 -37.5t48.5 -37.5t43 -17q58 0 61 88q0 19 19 19h118q8 0 13.5 -6.5t5.5 -16.5q-5 -123 -55.5 -190.5t-147.5 -67.5zM350 633
v-615q0 -8 -5 -13t-13 -5h-256q-8 0 -13.5 5.5t-5.5 12.5l9 699l-9 698q0 7 5.5 13t13.5 6h346q16 0 22 -13l576 -1015l-12 325v684q0 8 5.5 13.5t12.5 5.5h256q7 0 12.5 -5.5t5.5 -13.5l-8 -698l8 -699q0 -8 -5 -13t-13 -5h-358q-17 0 -23 12l-563 1010z" />
    <glyph glyph-name="Ograve" unicode="&#xd2;" 
d="M475 1862q7 19 25 10l487 -211q16 -6 10 -25l-43 -110q-6 -18 -22 -13l-508 134q-8 2 -11.5 8.5t-0.5 13.5zM750 -31q-216 0 -381 94.5t-253.5 263t-88.5 386.5q0 343 196.5 547t526.5 204q329 0 527 -203t198 -548q0 -217 -89 -386t-254.5 -263.5t-381.5 -94.5zM752 209
q192 0 296.5 133.5t104.5 370.5q0 238 -104.5 375t-298.5 137t-298 -135t-104 -377q0 -235 106 -369.5t298 -134.5z" />
    <glyph glyph-name="Oacute" unicode="&#xd3;" 
d="M1001 1872q17 9 25 -10l59 -193q3 -7 -0.5 -13.5t-11.5 -8.5l-504 -134q-16 -5 -22 13l-45 110q-6 19 10 25zM750 -31q-216 0 -381 94.5t-253.5 263t-88.5 386.5q0 343 196.5 547t526.5 204q329 0 527 -203t198 -548q0 -217 -89 -386t-254.5 -263.5t-381.5 -94.5z
M752 209q192 0 296.5 133.5t104.5 370.5q0 238 -104.5 375t-298.5 137t-298 -135t-104 -377q0 -235 106 -369.5t298 -134.5z" />
    <glyph glyph-name="Ocircumflex" unicode="&#xd4;" 
d="M750 1663l-304 -150q-16 -9 -24 11l-47 114q-6 15 8 25l295 209q12 8 22 8h103q10 0 22 -8l295 -209q14 -10 8 -25l-47 -114q-8 -20 -24 -11zM750 -31q-216 0 -381 94.5t-253.5 263t-88.5 386.5q0 343 196.5 547t526.5 204q329 0 527 -203t198 -548q0 -217 -89 -386
t-254.5 -263.5t-381.5 -94.5zM752 209q192 0 296.5 133.5t104.5 370.5q0 238 -104.5 375t-298.5 137t-298 -135t-104 -377q0 -235 106 -369.5t298 -134.5z" />
    <glyph glyph-name="Otilde" unicode="&#xd5;" 
d="M877 1546q-43 0 -81.5 17t-61 37.5t-49 37.5t-48.5 17q-54 0 -57 -88q0 -19 -19 -19h-119q-18 0 -18 19q5 120 57 191t152 71q40 0 77.5 -17t60.5 -37.5t48 -37.5t43 -17q59 0 62 88q0 19 18 19h119q18 0 18 -23q-5 -124 -55 -191t-147 -67zM750 -31q-216 0 -381 94.5
t-253.5 263t-88.5 386.5q0 343 196.5 547t526.5 204q329 0 527 -203t198 -548q0 -217 -89 -386t-254.5 -263.5t-381.5 -94.5zM752 209q192 0 296.5 133.5t104.5 370.5q0 238 -104.5 375t-298.5 137t-298 -135t-104 -377q0 -235 106 -369.5t298 -134.5z" />
    <glyph glyph-name="Odieresis" unicode="&#xd6;" 
d="M643 1812q8 0 13.5 -5.5t5.5 -12.5v-240q0 -7 -5.5 -12.5t-13.5 -5.5h-213q-8 0 -13 5t-5 13v240q0 8 5 13t13 5h213zM1073 1812q8 0 13.5 -5.5t5.5 -12.5v-240q0 -7 -5.5 -12.5t-13.5 -5.5h-213q-8 0 -13 5t-5 13v240q0 8 5 13t13 5h213zM750 -31q-216 0 -381 94.5
t-253.5 263t-88.5 386.5q0 343 196.5 547t526.5 204q329 0 527 -203t198 -548q0 -217 -89 -386t-254.5 -263.5t-381.5 -94.5zM752 209q192 0 296.5 133.5t104.5 370.5q0 238 -104.5 375t-298.5 137t-298 -135t-104 -377q0 -235 106 -369.5t298 -134.5z" />
    <glyph glyph-name="multiply" unicode="&#xd7;" horiz-adv-x="1116" 
d="M559 866l277 277q12 12 24 0l137 -135q13 -12 0 -25l-276 -276l274 -277q12 -12 0 -24l-135 -138q-12 -12 -24 0l-277 277l-276 -277q-13 -12 -25 0l-135 138q-12 12 0 24l276 277l-278 276q-13 13 0 25l137 135q12 13 25 0z" />
    <glyph glyph-name="Oslash" unicode="&#xd8;" 
d="M1458 1384q12 -12 2 -26l-133 -158q148 -197 148 -487q0 -217 -89 -386t-254.5 -263.5t-381.5 -94.5q-212 0 -377 92l-135 -159q-14 -14 -27 -2l-170 155q-12 12 0 27l131 156q-145 193 -145 475q0 343 196.5 547t526.5 204q212 0 376 -88l138 162q14 14 26 2zM750 1225
q-194 0 -298 -135t-104 -377q0 -148 43 -258l588 700q-95 70 -229 70zM752 209q192 0 296.5 133.5t104.5 370.5q0 160 -45 270l-590 -702q97 -72 234 -72z" />
    <glyph glyph-name="Ugrave" unicode="&#xd9;" horiz-adv-x="1269" 
d="M373 1862q7 18 24 10l488 -211q16 -6 10 -25l-43 -110q-6 -19 -23 -13l-507 134q-8 2 -12 8.5t-1 13.5zM641 -31q-285 0 -434.5 144.5t-147.5 418.5v390l-6 493q0 7 5.5 13t13.5 6h286q8 0 13.5 -6t5.5 -13l-6 -485l2 -395q0 -318 268 -318q289 0 289 318v389l-6 491
q0 8 5.5 13.5t12.5 5.5h256q8 0 13.5 -6t5.5 -13l-5 -493v-390q0 -276 -143.5 -419.5t-427.5 -143.5z" />
    <glyph glyph-name="Uacute" unicode="&#xda;" horiz-adv-x="1269" 
d="M901 1872q17 9 25 -10l59 -193q3 -7 -0.5 -13.5t-11.5 -8.5l-504 -134q-17 -6 -23 13l-45 110q-6 18 11 25zM641 -31q-285 0 -434.5 144.5t-147.5 418.5v390l-6 493q0 7 5.5 13t13.5 6h286q8 0 13.5 -6t5.5 -13l-6 -485l2 -395q0 -318 268 -318q289 0 289 318v389l-6 491
q0 8 5.5 13.5t12.5 5.5h256q8 0 13.5 -6t5.5 -13l-5 -493v-390q0 -276 -143.5 -419.5t-427.5 -143.5z" />
    <glyph glyph-name="Ucircumflex" unicode="&#xdb;" horiz-adv-x="1269" 
d="M649 1663l-303 -150q-16 -9 -24 11l-48 114q-6 14 9 25l295 209q12 8 22 8h102q11 0 23 -8l295 -209q14 -10 8 -25l-47 -114q-3 -8 -10 -11.5t-15 0.5zM641 -31q-285 0 -434.5 144.5t-147.5 418.5v390l-6 493q0 7 5.5 13t13.5 6h286q8 0 13.5 -6t5.5 -13l-6 -485l2 -395
q0 -318 268 -318q289 0 289 318v389l-6 491q0 8 5.5 13.5t12.5 5.5h256q8 0 13.5 -6t5.5 -13l-5 -493v-390q0 -276 -143.5 -419.5t-427.5 -143.5z" />
    <glyph glyph-name="Udieresis" unicode="&#xdc;" horiz-adv-x="1269" 
d="M543 1812q7 0 12.5 -5t5.5 -13v-240q0 -8 -5.5 -13t-12.5 -5h-213q-8 0 -13.5 5.5t-5.5 12.5v240q0 7 5.5 12.5t13.5 5.5h213zM973 1812q7 0 12.5 -5t5.5 -13v-240q0 -8 -5.5 -13t-12.5 -5h-213q-8 0 -13.5 5.5t-5.5 12.5v240q0 7 5.5 12.5t13.5 5.5h213zM641 -31
q-285 0 -434.5 144.5t-147.5 418.5v390l-6 493q0 7 5.5 13t13.5 6h286q8 0 13.5 -6t5.5 -13l-6 -485l2 -395q0 -318 268 -318q289 0 289 318v389l-6 491q0 8 5.5 13.5t12.5 5.5h256q8 0 13.5 -6t5.5 -13l-5 -493v-390q0 -276 -143.5 -419.5t-427.5 -143.5z" />
    <glyph glyph-name="Yacute" unicode="&#xdd;" horiz-adv-x="1222" 
d="M872 1872q18 9 25 -10l59 -193q3 -7 -0.5 -13.5t-11.5 -8.5l-504 -134q-16 -5 -22 13l-45 110q-6 19 10 25zM471 0q-7 0 -12.5 5t-5.5 13l6 453l-482 940q-4 10 0 16.5t15 6.5h317q13 0 21 -15l293 -661l299 661q8 15 20 15h289q11 0 14.5 -6t-0.5 -17l-481 -940l6 -453
q0 -8 -5 -13t-13 -5h-281z" />
    <glyph glyph-name="Thorn" unicode="&#xde;" horiz-adv-x="1177" 
d="M356 1434q8 0 13.5 -6t5.5 -13l-2 -227h243q262 0 403.5 -117.5t141.5 -343.5q0 -225 -145 -350t-402 -125h-241l2 -234q0 -7 -5.5 -12.5t-13.5 -5.5h-280q-8 0 -13.5 5.5t-5.5 12.5l9 699l-9 698q0 7 5.5 13t13.5 6h280zM367 690l2 -211h268q98 0 160.5 60t62.5 182
q0 240 -231 240h-260z" />
    <glyph glyph-name="germandbls" unicode="&#xdf;" horiz-adv-x="1167" 
d="M360 465l7 -447q0 -7 -5.5 -12.5t-13.5 -5.5h-270q-8 0 -13.5 5.5t-5.5 12.5l7 447v536q0 122 39 211t111 141t163 76.5t205 24.5q228 0 351.5 -99t125.5 -270q0 -116 -70.5 -190.5t-185.5 -97.5q168 -25 251 -119.5t83 -237.5q0 -107 -43 -192.5t-117.5 -138.5
t-169.5 -81t-203 -28h-59q-8 0 -13.5 5.5t-5.5 12.5v183q0 7 5.5 12.5t13.5 5.5h59q210 0 215 211q3 116 -60 174t-179 58h-35q-8 0 -13.5 5.5t-5.5 12.5v162q0 7 5.5 12.5t13.5 5.5h35q94 0 134 51t40 144q0 88 -48.5 134t-140.5 46q-99 0 -153 -55.5t-54 -186.5v-528z" />
    <glyph glyph-name="agrave" unicode="&#xe0;" horiz-adv-x="1144" 
d="M287 1483q7 18 24 10l488 -211q16 -6 10 -25l-43 -110q-6 -18 -23 -12l-507 133q-8 2 -12 8.5t-1 13.5zM793 942l-5 94q0 19 17 19h274q7 0 13 -5.5t6 -13.5l-6 -510l6 -508q0 -7 -5.5 -12.5t-13.5 -5.5h-272q-19 0 -19 18l5 105q-118 -143 -312 -143q-110 0 -197 41.5
t-143.5 115.5t-86 172.5t-29.5 214.5q0 153 55 277.5t161 199t246 74.5q195 0 306 -133zM567 184q229 0 232 336q1 168 -57 258t-169 92q-116 3 -175.5 -81t-59.5 -248q0 -177 59 -268t170 -89z" />
    <glyph glyph-name="aacute" unicode="&#xe1;" horiz-adv-x="1144" 
d="M815 1493q17 9 25 -10l59 -193q3 -7 -0.5 -13.5t-11.5 -8.5l-504 -133q-17 -6 -23 12l-45 110q-6 18 11 25zM793 942l-5 94q0 19 17 19h274q7 0 13 -5.5t6 -13.5l-6 -510l6 -508q0 -7 -5.5 -12.5t-13.5 -5.5h-272q-19 0 -19 18l5 105q-118 -143 -312 -143
q-110 0 -197 41.5t-143.5 115.5t-86 172.5t-29.5 214.5q0 153 55 277.5t161 199t246 74.5q195 0 306 -133zM567 184q229 0 232 336q1 168 -57 258t-169 92q-116 3 -175.5 -81t-59.5 -248q0 -177 59 -268t170 -89z" />
    <glyph glyph-name="acircumflex" unicode="&#xe2;" horiz-adv-x="1144" 
d="M561 1284l-303 -149q-8 -4 -15 -1t-10 11l-47 115q-5 13 9 24l294 209q12 8 23 8h102q11 0 23 -8l295 -209q14 -10 8 -24l-47 -115q-3 -8 -10 -11t-15 1zM793 942l-5 94q0 19 17 19h274q7 0 13 -5.5t6 -13.5l-6 -510l6 -508q0 -7 -5.5 -12.5t-13.5 -5.5h-272
q-19 0 -19 18l5 105q-118 -143 -312 -143q-110 0 -197 41.5t-143.5 115.5t-86 172.5t-29.5 214.5q0 153 55 277.5t161 199t246 74.5q195 0 306 -133zM567 184q229 0 232 336q1 168 -57 258t-169 92q-116 3 -175.5 -81t-59.5 -248q0 -177 59 -268t170 -89z" />
    <glyph glyph-name="atilde" unicode="&#xe3;" horiz-adv-x="1144" 
d="M688 1167q-43 0 -81 17t-60.5 37.5t-49 37.5t-48.5 17q-55 0 -58 -88q0 -19 -18 -19h-119q-18 0 -18 19q5 120 56.5 191t151.5 71q40 0 77.5 -17t61 -37.5t48.5 -37.5t43 -17q58 0 61 89q0 18 19 18h118q8 0 13.5 -6.5t5.5 -16.5q-5 -123 -55.5 -190.5t-147.5 -67.5z
M793 942l-5 94q0 19 17 19h274q7 0 13 -5.5t6 -13.5l-6 -510l6 -508q0 -7 -5.5 -12.5t-13.5 -5.5h-272q-19 0 -19 18l5 105q-118 -143 -312 -143q-110 0 -197 41.5t-143.5 115.5t-86 172.5t-29.5 214.5q0 153 55 277.5t161 199t246 74.5q195 0 306 -133zM567 184
q229 0 232 336q1 168 -57 258t-169 92q-116 3 -175.5 -81t-59.5 -248q0 -177 59 -268t170 -89z" />
    <glyph glyph-name="adieresis" unicode="&#xe4;" horiz-adv-x="1144" 
d="M455 1434q7 0 12.5 -5.5t5.5 -13.5v-239q0 -8 -5.5 -13.5t-12.5 -5.5h-213q-8 0 -13.5 5.5t-5.5 13.5v239q0 7 5.5 13t13.5 6h213zM885 1434q7 0 12.5 -5.5t5.5 -13.5v-239q0 -8 -5.5 -13.5t-12.5 -5.5h-213q-8 0 -13.5 5.5t-5.5 13.5v239q0 7 5.5 13t13.5 6h213z
M793 942l-5 94q0 19 17 19h274q7 0 13 -5.5t6 -13.5l-6 -510l6 -508q0 -7 -5.5 -12.5t-13.5 -5.5h-272q-19 0 -19 18l5 105q-118 -143 -312 -143q-110 0 -197 41.5t-143.5 115.5t-86 172.5t-29.5 214.5q0 153 55 277.5t161 199t246 74.5q195 0 306 -133zM567 184
q229 0 232 336q1 168 -57 258t-169 92q-116 3 -175.5 -81t-59.5 -248q0 -177 59 -268t170 -89z" />
    <glyph glyph-name="aring" unicode="&#xe5;" horiz-adv-x="1144" 
d="M563 1151q-114 0 -189 69.5t-75 174.5q0 104 75 173.5t189 69.5t189 -69.5t75 -173.5q0 -105 -75 -174.5t-189 -69.5zM563 1260q46 0 75.5 35.5t29.5 99.5q0 65 -29.5 100t-75.5 35q-47 0 -75.5 -34.5t-28.5 -100.5q0 -64 28.5 -99.5t75.5 -35.5zM793 942l-5 94
q0 19 17 19h274q7 0 13 -5.5t6 -13.5l-6 -510l6 -508q0 -7 -5.5 -12.5t-13.5 -5.5h-272q-19 0 -19 18l5 105q-118 -143 -312 -143q-110 0 -197 41.5t-143.5 115.5t-86 172.5t-29.5 214.5q0 153 55 277.5t161 199t246 74.5q195 0 306 -133zM567 184q229 0 232 336
q1 168 -57 258t-169 92q-116 3 -175.5 -81t-59.5 -248q0 -177 59 -268t170 -89z" />
    <glyph glyph-name="ae" unicode="&#xe6;" horiz-adv-x="1933" 
d="M1376 178q167 0 205 162q6 16 21 16h258q21 0 18 -18q-21 -154 -151 -259.5t-334 -105.5q-176 0 -297 97v-52q0 -7 -5.5 -12.5t-13.5 -5.5h-270q-19 0 -19 18l5 105q-118 -143 -312 -143q-110 0 -197 41.5t-143.5 115.5t-86 172.5t-29.5 214.5q0 153 55 277.5t161 199
t246 74.5q195 0 306 -133l-5 94q0 19 17 19h272q7 0 13 -5.5t6 -13.5v-51q120 96 290 96q248 0 384 -159t141 -439q0 -18 -19 -18h-753q9 -148 67.5 -217.5t169.5 -69.5zM1368 879q-183 0 -221 -220h432q-10 94 -63 157t-148 63zM567 184q229 0 232 336q1 168 -57 258
t-169 92q-116 3 -175.5 -81t-59.5 -248q0 -177 59 -268t170 -89z" />
    <glyph glyph-name="ccedilla" unicode="&#xe7;" horiz-adv-x="1073" 
d="M764 387q3 19 20 19h254q20 0 17 -19q-15 -162 -125 -272t-281 -135l-63 -330q-1 -7 -8 -12t-15 -3l-248 46q-18 3 -12 22l121 285q-190 38 -294.5 179t-104.5 357q0 255 144.5 406t399.5 151q200 0 326 -104.5t145 -278.5q3 -18 -16 -18h-250q-15 0 -18 16
q-17 87 -67.5 132.5t-119.5 45.5q-117 -1 -173 -87t-56 -261q0 -180 56 -263t173 -85q80 -2 133 53t62 156z" />
    <glyph glyph-name="egrave" unicode="&#xe8;" horiz-adv-x="1128" 
d="M285 1483q7 18 24 10l488 -211q16 -6 10 -25l-43 -110q-6 -18 -23 -12l-508 133q-8 2 -11.5 8.5t-0.5 13.5zM571 178q167 0 205 162q6 16 21 16h258q21 0 18 -18q-21 -154 -157.5 -259.5t-348.5 -105.5q-257 0 -399.5 152.5t-142.5 398.5q0 254 143 405.5t393 151.5
q257 0 398.5 -159t146.5 -439q0 -18 -19 -18h-753q9 -148 67.5 -217.5t169.5 -69.5zM563 879q-183 0 -221 -220h432q-10 94 -63 157t-148 63z" />
    <glyph glyph-name="eacute" unicode="&#xe9;" horiz-adv-x="1128" 
d="M813 1493q17 9 25 -10l59 -193q3 -7 -0.5 -13.5t-11.5 -8.5l-504 -133q-17 -6 -23 12l-45 110q-6 18 11 25zM571 178q167 0 205 162q6 16 21 16h258q21 0 18 -18q-21 -154 -157.5 -259.5t-348.5 -105.5q-257 0 -399.5 152.5t-142.5 398.5q0 254 143 405.5t393 151.5
q257 0 398.5 -159t146.5 -439q0 -18 -19 -18h-753q9 -148 67.5 -217.5t169.5 -69.5zM563 879q-183 0 -221 -220h432q-10 94 -63 157t-148 63z" />
    <glyph glyph-name="ecircumflex" unicode="&#xea;" horiz-adv-x="1128" 
d="M559 1284l-303 -149q-8 -4 -15 -1t-10 11l-47 115q-5 13 9 24l294 209q12 8 23 8h102q11 0 23 -8l295 -209q14 -10 8 -24l-47 -115q-3 -8 -10 -11t-15 1zM571 178q167 0 205 162q6 16 21 16h258q21 0 18 -18q-21 -154 -157.5 -259.5t-348.5 -105.5q-257 0 -399.5 152.5
t-142.5 398.5q0 254 143 405.5t393 151.5q257 0 398.5 -159t146.5 -439q0 -18 -19 -18h-753q9 -148 67.5 -217.5t169.5 -69.5zM563 879q-183 0 -221 -220h432q-10 94 -63 157t-148 63z" />
    <glyph glyph-name="edieresis" unicode="&#xeb;" horiz-adv-x="1128" 
d="M453 1434q7 0 12.5 -5.5t5.5 -13.5v-239q0 -8 -5.5 -13.5t-12.5 -5.5h-213q-8 0 -13.5 5.5t-5.5 13.5v239q0 7 5.5 13t13.5 6h213zM883 1434q7 0 12.5 -5.5t5.5 -13.5v-239q0 -8 -5.5 -13.5t-12.5 -5.5h-213q-8 0 -13.5 5.5t-5.5 13.5v239q0 7 5.5 13t13.5 6h213z
M571 178q167 0 205 162q6 16 21 16h258q21 0 18 -18q-21 -154 -157.5 -259.5t-348.5 -105.5q-257 0 -399.5 152.5t-142.5 398.5q0 254 143 405.5t393 151.5q257 0 398.5 -159t146.5 -439q0 -18 -19 -18h-753q9 -148 67.5 -217.5t169.5 -69.5zM563 879q-183 0 -221 -220h432
q-10 94 -63 157t-148 63z" />
    <glyph glyph-name="igrave" unicode="&#xec;" horiz-adv-x="421" 
d="M-4 1464q8 19 24 11l426 -183q16 -6 11 -22l-35 -121q-7 -18 -25 -12l-450 114q-20 7 -13 23zM362 526l7 -508q0 -7 -5.5 -12.5t-13.5 -5.5h-276q-8 0 -13.5 5.5t-5.5 12.5l6 508l-6 510q0 8 5.5 13.5t13.5 5.5h276q8 0 13.5 -5.5t5.5 -13.5z" />
    <glyph glyph-name="iacute" unicode="&#xed;" horiz-adv-x="421" 
d="M414 1475q16 8 24 -11l60 -190q7 -16 -13 -23l-450 -114q-17 -6 -23 12l-37 121q-5 16 11 22zM362 526l7 -508q0 -7 -5.5 -12.5t-13.5 -5.5h-276q-8 0 -13.5 5.5t-5.5 12.5l6 508l-6 510q0 8 5.5 13.5t13.5 5.5h276q8 0 13.5 -5.5t5.5 -13.5z" />
    <glyph glyph-name="icircumflex" unicode="&#xee;" horiz-adv-x="421" 
d="M213 1292l-242 -143q-16 -10 -24 6l-58 109q-7 15 5 24l245 207q8 8 23 8h100q15 0 23 -8l243 -207q10 -8 4 -24l-55 -109q-8 -16 -24 -6zM362 526l7 -508q0 -7 -5.5 -12.5t-13.5 -5.5h-276q-8 0 -13.5 5.5t-5.5 12.5l6 508l-6 510q0 8 5.5 13.5t13.5 5.5h276
q8 0 13.5 -5.5t5.5 -13.5z" />
    <glyph glyph-name="idieresis" unicode="&#xef;" horiz-adv-x="421" 
d="M141 1434q7 0 13 -6t6 -13v-239q0 -8 -6 -13.5t-13 -5.5h-194q-7 0 -13 5.5t-6 13.5v239q0 7 6 13t13 6h194zM475 1434q7 0 13 -6t6 -13v-239q0 -8 -6 -13.5t-13 -5.5h-192q-7 0 -13 5.5t-6 13.5v239q0 7 6 13t13 6h192zM362 526l7 -508q0 -7 -5.5 -12.5t-13.5 -5.5h-276
q-8 0 -13.5 5.5t-5.5 12.5l6 508l-6 510q0 8 5.5 13.5t13.5 5.5h276q8 0 13.5 -5.5t5.5 -13.5z" />
    <glyph glyph-name="eth" unicode="&#xf0;" horiz-adv-x="1142" 
d="M754 1333l266 127q17 10 24 -8l68 -137q7 -16 -8 -25l-193 -90q205 -228 205 -616q0 -180 -65 -318t-192 -217.5t-298 -79.5q-236 0 -383.5 139t-152.5 353q5 203 134.5 332t336.5 129q197 0 301 -119q-12 155 -127 280l-242 -114q-8 -4 -15 -2t-10 10l-67 137
q-7 16 8 25l162 78q-61 37 -187 83q-19 6 -10 25l92 152q10 14 27 8q191 -63 326 -152zM578 193q99 0 153.5 69t54.5 191q0 120 -60 186t-165 66q-102 0 -154.5 -70t-52.5 -195q0 -116 61 -181.5t163 -65.5z" />
    <glyph glyph-name="ntilde" unicode="&#xf1;" horiz-adv-x="1093" 
d="M678 1167q-43 0 -81.5 17t-61 37.5t-49 37.5t-48.5 17q-54 0 -57 -88q0 -19 -19 -19h-118q-19 0 -19 19q5 120 57 191t152 71q40 0 77.5 -17t61 -37.5t48.5 -37.5t43 -17q58 0 61 89q0 18 18 18h119q8 0 13.5 -6.5t5.5 -16.5q-5 -123 -55.5 -190.5t-147.5 -67.5zM360 449
l5 -431q0 -7 -5.5 -12.5t-13.5 -5.5h-278q-8 0 -13.5 5.5t-5.5 12.5l6 488l-2 530q0 8 5.5 13.5t13.5 5.5h260q18 0 18 -19l-6 -114q56 72 144.5 114.5t195.5 42.5q169 0 268 -108.5t99 -300.5v-221l6 -431q0 -7 -5.5 -12.5t-13.5 -5.5h-274q-8 0 -13.5 5.5t-5.5 12.5l5 431
v217q0 85 -45 136.5t-115 51.5q-92 0 -161 -85t-69 -243v-77z" />
    <glyph glyph-name="ograve" unicode="&#xf2;" horiz-adv-x="1132" 
d="M291 1483q7 18 24 10l488 -211q16 -6 10 -25l-43 -110q-6 -17 -22 -12l-508 133q-8 2 -12 8.5t-1 13.5zM567 -27q-256 0 -399 148t-143 403t143.5 406t398.5 151t397 -148t142 -403q0 -256 -142 -406.5t-397 -150.5zM567 178q115 0 169.5 83t54.5 263q0 353 -226 353
q-117 -1 -172 -88.5t-55 -266.5q0 -177 56.5 -260.5t172.5 -83.5z" />
    <glyph glyph-name="oacute" unicode="&#xf3;" horiz-adv-x="1132" 
d="M817 1493q17 9 25 -10l59 -193q3 -7 -0.5 -13.5t-11.5 -8.5l-504 -133q-17 -6 -23 12l-45 110q-6 18 11 25zM567 -27q-256 0 -399 148t-143 403t143.5 406t398.5 151t397 -148t142 -403q0 -256 -142 -406.5t-397 -150.5zM567 178q115 0 169.5 83t54.5 263q0 353 -226 353
q-117 -1 -172 -88.5t-55 -266.5q0 -177 56.5 -260.5t172.5 -83.5z" />
    <glyph glyph-name="ocircumflex" unicode="&#xf4;" horiz-adv-x="1132" 
d="M565 1284l-303 -149q-16 -10 -24 10l-48 115q-5 13 9 24l295 209q12 8 22 8h102q11 0 23 -8l295 -209q14 -10 8 -24l-47 -115q-3 -8 -10 -11t-15 1zM567 -27q-256 0 -399 148t-143 403t143.5 406t398.5 151t397 -148t142 -403q0 -256 -142 -406.5t-397 -150.5zM567 178
q115 0 169.5 83t54.5 263q0 353 -226 353q-117 -1 -172 -88.5t-55 -266.5q0 -177 56.5 -260.5t172.5 -83.5z" />
    <glyph glyph-name="otilde" unicode="&#xf5;" horiz-adv-x="1132" 
d="M692 1167q-43 0 -81 17t-60.5 37.5t-49 37.5t-48.5 17q-55 0 -58 -88q0 -19 -18 -19h-119q-18 0 -18 19q5 120 57 191t152 71q40 0 77.5 -17t60.5 -37.5t48 -37.5t43 -17q58 0 61 89q0 18 19 18h119q18 0 18 -23q-5 -123 -55.5 -190.5t-147.5 -67.5zM567 -27
q-256 0 -399 148t-143 403t143.5 406t398.5 151t397 -148t142 -403q0 -256 -142 -406.5t-397 -150.5zM567 178q115 0 169.5 83t54.5 263q0 353 -226 353q-117 -1 -172 -88.5t-55 -266.5q0 -177 56.5 -260.5t172.5 -83.5z" />
    <glyph glyph-name="odieresis" unicode="&#xf6;" horiz-adv-x="1132" 
d="M459 1434q7 0 12.5 -5.5t5.5 -13.5v-239q0 -8 -5.5 -13.5t-12.5 -5.5h-213q-8 0 -13.5 5.5t-5.5 13.5v239q0 7 5.5 13t13.5 6h213zM889 1434q7 0 12.5 -5.5t5.5 -13.5v-239q0 -8 -5.5 -13.5t-12.5 -5.5h-213q-8 0 -13.5 5.5t-5.5 13.5v239q0 7 5.5 13t13.5 6h213z
M567 -27q-256 0 -399 148t-143 403t143.5 406t398.5 151t397 -148t142 -403q0 -256 -142 -406.5t-397 -150.5zM567 178q115 0 169.5 83t54.5 263q0 353 -226 353q-117 -1 -172 -88.5t-55 -266.5q0 -177 56.5 -260.5t172.5 -83.5z" />
    <glyph glyph-name="divide" unicode="&#xf7;" horiz-adv-x="1116" 
d="M700 1286q8 0 13.5 -5.5t5.5 -12.5v-256q0 -8 -5.5 -13.5t-13.5 -5.5h-282q-8 0 -13.5 5.5t-5.5 13.5v256q0 7 5.5 12.5t13.5 5.5h282zM1022 819q8 0 13 -5.5t5 -12.5v-191q0 -8 -5 -13t-13 -5h-926q-8 0 -13 5t-5 13v191q0 7 5 12.5t13 5.5h926zM700 422q8 0 13.5 -6
t5.5 -13v-256q0 -7 -5.5 -12.5t-13.5 -5.5h-282q-8 0 -13.5 5.5t-5.5 12.5v256q0 7 5.5 13t13.5 6h282z" />
    <glyph glyph-name="oslash" unicode="&#xf8;" horiz-adv-x="1132" 
d="M946 1149q14 15 27 2l121 -113q11 -11 0 -26l-97 -117q109 -139 109 -365q0 -256 -142 -406.5t-397 -150.5q-158 0 -278 60l-103 -125q-14 -14 -26 -2l-119 114q-13 13 -2 27l94 115q-108 138 -108 362q0 255 143.5 406t398.5 151q160 0 275 -59zM565 877
q-117 -1 -172 -88.5t-55 -266.5q0 -68 10 -133l359 434q-51 54 -142 54zM567 178q115 0 169.5 83t54.5 263q0 67 -11 142l-358 -437q54 -51 145 -51z" />
    <glyph glyph-name="ugrave" unicode="&#xf9;" horiz-adv-x="1093" 
d="M262 1483q8 19 25 10l487 -211q16 -6 10 -25l-43 -110q-6 -17 -22 -12l-508 133q-8 2 -11.5 8.5t-0.5 13.5zM412 -25q-169 0 -269 109t-100 301v221l-4 430q0 8 5.5 13.5t12.5 5.5h275q7 0 12.5 -5.5t5.5 -13.5l-6 -430v-217q0 -85 46 -136.5t116 -51.5q92 0 160.5 84.5
t68.5 242.5v78l-4 430q0 8 5.5 13.5t13.5 5.5h278q8 0 13.5 -5.5t5.5 -13.5l-7 -487l2 -531q0 -8 -5 -13t-13 -5h-260q-19 0 -19 18l7 115q-56 -72 -144.5 -115t-195.5 -43z" />
    <glyph glyph-name="uacute" unicode="&#xfa;" horiz-adv-x="1093" 
d="M791 1493q17 8 24 -10l59 -193q3 -7 -0.5 -13.5t-11.5 -8.5l-504 -133q-16 -5 -22 12l-45 110q-6 19 10 25zM412 -25q-169 0 -269 109t-100 301v221l-4 430q0 8 5.5 13.5t12.5 5.5h275q7 0 12.5 -5.5t5.5 -13.5l-6 -430v-217q0 -85 46 -136.5t116 -51.5q92 0 160.5 84.5
t68.5 242.5v78l-4 430q0 8 5.5 13.5t13.5 5.5h278q8 0 13.5 -5.5t5.5 -13.5l-7 -487l2 -531q0 -8 -5 -13t-13 -5h-260q-19 0 -19 18l7 115q-56 -72 -144.5 -115t-195.5 -43z" />
    <glyph glyph-name="ucircumflex" unicode="&#xfb;" horiz-adv-x="1093" 
d="M539 1284l-303 -149q-8 -4 -15 -1t-10 11l-47 115q-6 14 8 24l295 209q12 8 22 8h103q10 0 22 -8l295 -209q14 -11 9 -24l-48 -115q-8 -20 -24 -10zM412 -25q-169 0 -269 109t-100 301v221l-4 430q0 8 5.5 13.5t12.5 5.5h275q7 0 12.5 -5.5t5.5 -13.5l-6 -430v-217
q0 -85 46 -136.5t116 -51.5q92 0 160.5 84.5t68.5 242.5v78l-4 430q0 8 5.5 13.5t13.5 5.5h278q8 0 13.5 -5.5t5.5 -13.5l-7 -487l2 -531q0 -8 -5 -13t-13 -5h-260q-19 0 -19 18l7 115q-56 -72 -144.5 -115t-195.5 -43z" />
    <glyph glyph-name="udieresis" unicode="&#xfc;" horiz-adv-x="1093" 
d="M432 1434q8 0 13.5 -6t5.5 -13v-239q0 -8 -5.5 -13.5t-13.5 -5.5h-213q-7 0 -12.5 5.5t-5.5 13.5v239q0 8 5.5 13.5t12.5 5.5h213zM862 1434q8 0 13.5 -6t5.5 -13v-239q0 -8 -5.5 -13.5t-13.5 -5.5h-213q-7 0 -12.5 5.5t-5.5 13.5v239q0 8 5.5 13.5t12.5 5.5h213z
M412 -25q-169 0 -269 109t-100 301v221l-4 430q0 8 5.5 13.5t12.5 5.5h275q7 0 12.5 -5.5t5.5 -13.5l-6 -430v-217q0 -85 46 -136.5t116 -51.5q92 0 160.5 84.5t68.5 242.5v78l-4 430q0 8 5.5 13.5t13.5 5.5h278q8 0 13.5 -5.5t5.5 -13.5l-7 -487l2 -531q0 -8 -5 -13t-13 -5
h-260q-19 0 -19 18l7 115q-56 -72 -144.5 -115t-195.5 -43z" />
    <glyph glyph-name="yacute" unicode="&#xfd;" horiz-adv-x="1034" 
d="M784 1493q18 9 25 -10l59 -193q3 -7 -0.5 -13.5t-11.5 -8.5l-504 -133q-16 -5 -22 12l-45 110q-6 19 10 25zM309 -348q-20 0 -14 20l108 318l-421 1044q-3 9 1 15t13 6h307q17 0 23 -15l229 -661l190 659q3 17 21 17h272q21 0 15 -21l-467 -1368q-6 -14 -23 -14h-254z
" />
    <glyph glyph-name="thorn" unicode="&#xfe;" horiz-adv-x="1144" 
d="M664 1075q145 0 250 -73t155.5 -194.5t50.5 -277.5q0 -153 -55 -277.5t-161.5 -198.5t-246.5 -74q-190 0 -301 129l4 -439q0 -8 -5 -13t-13 -5h-276q-8 0 -13.5 5.5t-5.5 12.5l6 881l-6 864q0 7 5.5 13t13.5 6h270q7 0 12.5 -5.5t5.5 -13.5l-6 -487q118 147 316 147z
M571 186q117 0 176.5 83t59.5 245q0 174 -58 263t-171 89t-172 -83.5t-60 -247.5q-2 -168 56.5 -258.5t168.5 -90.5z" />
    <glyph glyph-name="ydieresis" unicode="&#xff;" horiz-adv-x="1034" 
d="M426 1434q7 0 12.5 -5.5t5.5 -13.5v-239q0 -8 -5.5 -13.5t-12.5 -5.5h-213q-7 0 -12.5 5.5t-5.5 13.5v239q0 8 5.5 13.5t12.5 5.5h213zM856 1434q7 0 12.5 -5.5t5.5 -13.5v-239q0 -8 -5.5 -13.5t-12.5 -5.5h-213q-7 0 -12.5 5.5t-5.5 13.5v239q0 8 5.5 13.5t12.5 5.5h213
zM309 -348q-20 0 -14 20l108 318l-421 1044q-3 9 1 15t13 6h307q17 0 23 -15l229 -661l190 659q3 17 21 17h272q21 0 15 -21l-467 -1368q-6 -14 -23 -14h-254z" />
    <glyph glyph-name="Amacron" unicode="&#x100;" horiz-adv-x="1357" 
d="M999 1751q8 0 13.5 -5.5t5.5 -12.5v-168q0 -7 -6 -13t-13 -6h-632q-7 0 -13 6t-6 13v168q0 7 5.5 12.5t13.5 5.5h632zM877 1434q14 0 20 -15l477 -1399q6 -20 -16 -20h-283q-17 0 -20 14l-113 351h-539l-106 -349q-3 -16 -21 -16h-278q-20 0 -14 20l483 1399q6 15 22 15
h388zM864 612l-196 613l-187 -613h383z" />
    <glyph glyph-name="amacron" unicode="&#x101;" horiz-adv-x="1144" 
d="M879 1372q7 0 12.5 -5t5.5 -13v-168q0 -8 -5.5 -13.5t-12.5 -5.5h-633q-8 0 -13.5 5.5t-5.5 13.5v168q0 7 5.5 12.5t13.5 5.5h633zM793 942l-5 94q0 19 17 19h274q7 0 13 -5.5t6 -13.5l-6 -510l6 -508q0 -7 -5.5 -12.5t-13.5 -5.5h-272q-19 0 -19 18l5 105
q-118 -143 -312 -143q-110 0 -197 41.5t-143.5 115.5t-86 172.5t-29.5 214.5q0 153 55 277.5t161 199t246 74.5q195 0 306 -133zM567 184q229 0 232 336q1 168 -57 258t-169 92q-116 3 -175.5 -81t-59.5 -248q0 -177 59 -268t170 -89z" />
    <glyph glyph-name="Abreve" unicode="&#x102;" horiz-adv-x="1357" 
d="M686 1536q-157 0 -255.5 90.5t-104.5 231.5q0 18 18 18h164q18 0 18 -18q6 -56 48 -89.5t112 -33.5q66 0 109 34t51 89q0 18 18 18h164q19 0 19 -16q-6 -141 -104.5 -232.5t-256.5 -91.5zM877 1434q14 0 20 -15l477 -1399q6 -20 -16 -20h-283q-17 0 -20 14l-113 351h-539
l-106 -349q-3 -16 -21 -16h-278q-20 0 -14 20l483 1399q6 15 22 15h388zM864 612l-196 613l-187 -613h383z" />
    <glyph glyph-name="abreve" unicode="&#x103;" horiz-adv-x="1144" 
d="M565 1157q-157 0 -255.5 90.5t-104.5 231.5q0 18 18 18h164q19 0 19 -18q6 -56 47.5 -89.5t111.5 -33.5q66 0 109 34t51 89q0 18 18 18h164q19 0 19 -16q-6 -141 -104.5 -232.5t-256.5 -91.5zM793 942l-5 94q0 19 17 19h274q7 0 13 -5.5t6 -13.5l-6 -510l6 -508
q0 -7 -5.5 -12.5t-13.5 -5.5h-272q-19 0 -19 18l5 105q-118 -143 -312 -143q-110 0 -197 41.5t-143.5 115.5t-86 172.5t-29.5 214.5q0 153 55 277.5t161 199t246 74.5q195 0 306 -133zM567 184q229 0 232 336q1 168 -57 258t-169 92q-116 3 -175.5 -81t-59.5 -248
q0 -177 59 -268t170 -89z" />
    <glyph glyph-name="Aogonek" unicode="&#x104;" horiz-adv-x="1357" 
d="M1278 -229h96q8 0 13.5 -5.5t5.5 -13.5v-164q0 -7 -5.5 -12.5t-13.5 -5.5h-125q-140 0 -225.5 61.5t-85.5 165.5q0 128 119 209l-115 359h-539l-106 -349q-3 -16 -21 -16h-278q-20 0 -14 20l483 1399q6 15 22 15h388q14 0 20 -15l477 -1399q6 -20 -16 -20h-109
q-26 -19 -52 -62t-26 -85q0 -82 107 -82zM668 1225l-187 -613h383z" />
    <glyph glyph-name="aogonek" unicode="&#x105;" horiz-adv-x="1144" 
d="M1018 -229h96q8 0 13.5 -5.5t5.5 -13.5v-164q0 -7 -5.5 -12.5t-13.5 -5.5h-125q-140 0 -225.5 61.5t-85.5 165.5q0 127 110 203l5 123q-118 -143 -312 -143q-110 0 -197 41.5t-143.5 115.5t-86 172.5t-29.5 214.5q0 153 55 277.5t161 199t246 74.5q195 0 306 -133l-5 94
q0 19 17 19h274q7 0 13 -5.5t6 -13.5l-6 -510l6 -508q0 -7 -5.5 -12.5t-13.5 -5.5h-90q-26 -19 -52 -62t-26 -85q0 -82 107 -82zM567 184q229 0 232 336q1 168 -57 258t-169 92q-116 3 -175.5 -81t-59.5 -248q0 -177 59 -268t170 -89z" />
    <glyph glyph-name="Cacute" unicode="&#x106;" horiz-adv-x="1411" 
d="M983 1872q17 9 25 -10l59 -193q3 -7 -0.5 -13.5t-11.5 -8.5l-504 -134q-17 -6 -23 13l-45 110q-6 18 11 25zM739 -31q-216 0 -378.5 94.5t-248 262t-85.5 385.5q0 343 193 548t517 205q532 0 641 -508q3 -20 -16 -20h-268q-15 0 -21 16q-30 132 -116 202.5t-224 70.5
q-186 0 -285.5 -135t-99.5 -377q0 -240 100 -372t283 -132q288 0 348 305q3 16 19 16h274q20 0 17 -24q-60 -281 -224 -409t-426 -128z" />
    <glyph glyph-name="cacute" unicode="&#x107;" horiz-adv-x="1073" 
d="M799 1493q17 8 24 -10l60 -193q3 -7 -1 -13.5t-12 -8.5l-503 -133q-17 -6 -23 12l-45 110q-6 19 10 25zM563 -27q-252 0 -395 148.5t-143 402.5q0 255 144.5 406t399.5 151q200 0 326 -104.5t145 -278.5q3 -18 -16 -18h-250q-15 0 -18 16q-17 87 -67.5 132.5t-119.5 45.5
q-117 -1 -173 -87t-56 -261q0 -180 56 -263t173 -85q80 -2 133 53t62 156q3 19 20 19h254q20 0 17 -17q-15 -183 -151 -299.5t-341 -116.5z" />
    <glyph glyph-name="Ccircumflex" unicode="&#x108;" horiz-adv-x="1411" 
d="M731 1663l-303 -150q-8 -4 -15 -0.5t-10 11.5l-47 114q-6 14 9 25l294 209q12 8 23 8h102q11 0 23 -8l295 -209q14 -10 8 -25l-47 -114q-3 -8 -10 -11.5t-15 0.5zM739 -31q-216 0 -378.5 94.5t-248 262t-85.5 385.5q0 343 193 548t517 205q532 0 641 -508q3 -20 -16 -20
h-268q-15 0 -21 16q-30 132 -116 202.5t-224 70.5q-186 0 -285.5 -135t-99.5 -377q0 -240 100 -372t283 -132q288 0 348 305q3 16 19 16h274q20 0 17 -24q-60 -281 -224 -409t-426 -128z" />
    <glyph glyph-name="ccircumflex" unicode="&#x109;" horiz-adv-x="1073" 
d="M545 1284l-303 -149q-8 -4 -15 -1t-10 11l-47 115q-6 14 8 24l295 209q12 8 23 8h102q11 0 23 -8l294 -209q14 -11 9 -24l-47 -115q-3 -8 -10 -11t-15 1zM563 -27q-252 0 -395 148.5t-143 402.5q0 255 144.5 406t399.5 151q200 0 326 -104.5t145 -278.5q3 -18 -16 -18
h-250q-15 0 -18 16q-17 87 -67.5 132.5t-119.5 45.5q-117 -1 -173 -87t-56 -261q0 -180 56 -263t173 -85q80 -2 133 53t62 156q3 19 20 19h254q20 0 17 -17q-15 -183 -151 -299.5t-341 -116.5z" />
    <glyph glyph-name="Cdotaccent" unicode="&#x10a;" horiz-adv-x="1411" 
d="M870 1812q8 0 13.5 -5.5t5.5 -12.5v-240q0 -7 -5.5 -12.5t-13.5 -5.5h-274q-8 0 -13 5t-5 13v240q0 8 5 13t13 5h274zM739 -31q-216 0 -378.5 94.5t-248 262t-85.5 385.5q0 343 193 548t517 205q532 0 641 -508q3 -20 -16 -20h-268q-15 0 -21 16q-30 132 -116 202.5
t-224 70.5q-186 0 -285.5 -135t-99.5 -377q0 -240 100 -372t283 -132q288 0 348 305q3 16 19 16h274q20 0 17 -24q-60 -281 -224 -409t-426 -128z" />
    <glyph glyph-name="cdotaccent" unicode="&#x10b;" horiz-adv-x="1073" 
d="M684 1434q7 0 12.5 -5.5t5.5 -13.5v-239q0 -8 -5.5 -13.5t-12.5 -5.5h-274q-8 0 -13.5 5.5t-5.5 13.5v239q0 7 5.5 13t13.5 6h274zM563 -27q-252 0 -395 148.5t-143 402.5q0 255 144.5 406t399.5 151q200 0 326 -104.5t145 -278.5q3 -18 -16 -18h-250q-15 0 -18 16
q-17 87 -67.5 132.5t-119.5 45.5q-117 -1 -173 -87t-56 -261q0 -180 56 -263t173 -85q80 -2 133 53t62 156q3 19 20 19h254q20 0 17 -17q-15 -183 -151 -299.5t-341 -116.5z" />
    <glyph glyph-name="Ccaron" unicode="&#x10c;" horiz-adv-x="1411" 
d="M805 1538q-12 -8 -23 -8h-98q-10 0 -22 8l-295 205q-15 11 -9 26l48 113q8 20 24 10l303 -149l303 149q8 4 15 1t10 -11l47 -113q6 -15 -8 -26zM739 -31q-216 0 -378.5 94.5t-248 262t-85.5 385.5q0 343 193 548t517 205q532 0 641 -508q3 -20 -16 -20h-268q-15 0 -21 16
q-30 132 -116 202.5t-224 70.5q-186 0 -285.5 -135t-99.5 -377q0 -240 100 -372t283 -132q288 0 348 305q3 16 19 16h274q20 0 17 -24q-60 -281 -224 -409t-426 -128z" />
    <glyph glyph-name="ccaron" unicode="&#x10d;" horiz-adv-x="1073" 
d="M618 1159q-12 -8 -22 -8h-98q-11 0 -23 8l-295 205q-14 11 -8 27l47 112q3 8 10 11t15 -1l303 -149l303 149q16 10 24 -10l48 -112q6 -16 -9 -27zM563 -27q-252 0 -395 148.5t-143 402.5q0 255 144.5 406t399.5 151q200 0 326 -104.5t145 -278.5q3 -18 -16 -18h-250
q-15 0 -18 16q-17 87 -67.5 132.5t-119.5 45.5q-117 -1 -173 -87t-56 -261q0 -180 56 -263t173 -85q80 -2 133 53t62 156q3 19 20 19h254q20 0 17 -17q-15 -183 -151 -299.5t-341 -116.5z" />
    <glyph glyph-name="Dcaron" unicode="&#x10e;" horiz-adv-x="1368" 
d="M739 1538q-12 -8 -22 -8h-99q-10 0 -22 8l-295 205q-14 11 -8 26l47 113q3 8 10 11t15 -1l303 -149l303 149q16 10 24 -10l47 -113q6 -15 -8 -26zM586 0h-510q-8 0 -13.5 5.5t-5.5 12.5l11 699l-11 698q0 7 5.5 13t13.5 6h506q126 0 237.5 -26.5t207.5 -84t165.5 -141.5
t109 -205.5t39.5 -269.5t-40 -268t-109.5 -201t-166 -135t-206 -78.5t-233.5 -24.5zM375 1202l-8 -479l8 -492h227q89 0 163 27.5t132 83.5t90.5 149.5t32.5 217.5t-32.5 220t-90.5 155t-134.5 88.5t-168.5 29.5h-219z" />
    <glyph glyph-name="dcaron" unicode="&#x10f;" horiz-adv-x="1144" 
d="M1202 1571q3 16 19 16h213q19 0 16 -20l-107 -445q-3 -16 -20 -16h-158q-21 0 -18 20zM791 944l-3 471q0 7 6 13t13 6h272q7 0 13 -6t6 -13l-4 -698l4 -699q0 -7 -5.5 -12.5t-13.5 -5.5h-274q-19 0 -19 18l7 105q-118 -143 -312 -143q-110 0 -197 41.5t-143.5 115.5
t-86 172.5t-29.5 214.5q0 153 55 277.5t161 199t246 74.5q194 0 304 -131zM567 182q229 0 232 336q1 170 -57.5 261t-168.5 93q-116 3 -175.5 -82.5t-59.5 -250.5q0 -177 59 -268t170 -89z" />
    <glyph glyph-name="Dcroat" unicode="&#x110;" horiz-adv-x="1404" 
d="M94 1415q0 7 6 13t13 6h505q126 0 237.5 -26.5t208 -84t166 -141.5t109 -205.5t39.5 -269.5t-40 -268t-109.5 -201t-166 -135t-206 -78.5t-233.5 -24.5h-510q-8 0 -13.5 5.5t-5.5 12.5l10 631h-81q-7 0 -13 5.5t-6 13.5v194q0 8 6 13.5t13 5.5h79zM412 231h227
q89 0 163 27.5t132 83.5t90.5 149.5t32.5 217.5t-32.5 220t-90.5 155t-134.5 88.5t-168.5 29.5h-219l-6 -321h342q7 0 12.5 -5.5t5.5 -13.5v-194q0 -8 -5.5 -13.5t-12.5 -5.5h-342z" />
    <glyph glyph-name="dcroat" unicode="&#x111;" horiz-adv-x="1142" 
d="M1098 1341h47q7 0 12.5 -5.5t5.5 -12.5v-176q0 -8 -5.5 -13.5t-12.5 -5.5h-49l-2 -411l4 -699q0 -7 -5.5 -12.5t-13.5 -5.5h-274q-19 0 -19 18l7 105q-118 -143 -312 -143q-110 0 -197 41.5t-143.5 115.5t-86 172.5t-29.5 214.5q0 153 55 277.5t161 199t246 74.5
q194 0 304 -131v184h-285q-8 0 -13.5 6t-5.5 13v176q0 7 5.5 12.5t13.5 5.5h282v74q0 7 6 13t13 6h272q7 0 13 -6t6 -13v-74zM567 182q229 0 232 336q1 170 -57.5 261t-168.5 93q-116 3 -175.5 -82.5t-59.5 -250.5q0 -177 59 -268t170 -89z" />
    <glyph glyph-name="Emacron" unicode="&#x112;" horiz-adv-x="1101" 
d="M893 1751q7 0 12.5 -5.5t5.5 -12.5v-168q0 -8 -5.5 -13.5t-12.5 -5.5h-633q-7 0 -12.5 5.5t-5.5 13.5v168q0 7 5 12.5t13 5.5h633zM1059 231q7 0 12.5 -5.5t5.5 -12.5v-195q0 -8 -5.5 -13t-12.5 -5h-983q-8 0 -13.5 5.5t-5.5 12.5l11 699l-11 698q0 7 5.5 13t13.5 6h966
q8 0 13.5 -6t5.5 -13v-194q0 -7 -5.5 -13t-13.5 -6h-667l-8 -330h616q7 0 12.5 -5t5.5 -13v-195q0 -7 -5.5 -12.5t-12.5 -5.5h-616l8 -410h684z" />
    <glyph glyph-name="emacron" unicode="&#x113;" horiz-adv-x="1128" 
d="M877 1372q7 0 12.5 -5t5.5 -13v-168q0 -8 -5.5 -13.5t-12.5 -5.5h-633q-8 0 -13.5 5.5t-5.5 13.5v168q0 7 5.5 12.5t13.5 5.5h633zM571 178q167 0 205 162q6 16 21 16h258q21 0 18 -18q-21 -154 -157.5 -259.5t-348.5 -105.5q-257 0 -399.5 152.5t-142.5 398.5
q0 254 143 405.5t393 151.5q257 0 398.5 -159t146.5 -439q0 -18 -19 -18h-753q9 -148 67.5 -217.5t169.5 -69.5zM563 879q-183 0 -221 -220h432q-10 94 -63 157t-148 63z" />
    <glyph glyph-name="Ebreve" unicode="&#x114;" horiz-adv-x="1101" 
d="M578 1536q-157 0 -256 91t-105 231q0 18 19 18h163q19 0 19 -18q6 -56 48 -89.5t112 -33.5q66 0 108.5 34t50.5 89q0 18 19 18h164q18 0 18 -16q-6 -141 -104 -232.5t-256 -91.5zM1059 231q7 0 12.5 -5.5t5.5 -12.5v-195q0 -8 -5.5 -13t-12.5 -5h-983q-8 0 -13.5 5.5
t-5.5 12.5l11 699l-11 698q0 7 5.5 13t13.5 6h966q8 0 13.5 -6t5.5 -13v-194q0 -7 -5.5 -13t-13.5 -6h-667l-8 -330h616q7 0 12.5 -5t5.5 -13v-195q0 -7 -5.5 -12.5t-12.5 -5.5h-616l8 -410h684z" />
    <glyph glyph-name="ebreve" unicode="&#x115;" horiz-adv-x="1128" 
d="M563 1157q-157 0 -255.5 90.5t-104.5 231.5q0 18 18 18h164q18 0 18 -18q6 -56 48 -89.5t112 -33.5q66 0 109 34t51 89q0 18 18 18h164q19 0 19 -16q-6 -141 -104.5 -232.5t-256.5 -91.5zM571 178q167 0 205 162q6 16 21 16h258q21 0 18 -18q-21 -154 -157.5 -259.5
t-348.5 -105.5q-257 0 -399.5 152.5t-142.5 398.5q0 254 143 405.5t393 151.5q257 0 398.5 -159t146.5 -439q0 -18 -19 -18h-753q9 -148 67.5 -217.5t169.5 -69.5zM563 879q-183 0 -221 -220h432q-10 94 -63 157t-148 63z" />
    <glyph glyph-name="Edotaccent" unicode="&#x116;" horiz-adv-x="1101" 
d="M715 1812q7 0 12.5 -5t5.5 -13v-240q0 -8 -5.5 -13t-12.5 -5h-275q-8 0 -13 5t-5 13v240q0 8 5 13t13 5h275zM1059 231q7 0 12.5 -5.5t5.5 -12.5v-195q0 -8 -5.5 -13t-12.5 -5h-983q-8 0 -13.5 5.5t-5.5 12.5l11 699l-11 698q0 7 5.5 13t13.5 6h966q8 0 13.5 -6t5.5 -13
v-194q0 -7 -5.5 -13t-13.5 -6h-667l-8 -330h616q7 0 12.5 -5t5.5 -13v-195q0 -7 -5.5 -12.5t-12.5 -5.5h-616l8 -410h684z" />
    <glyph glyph-name="edotaccent" unicode="&#x117;" horiz-adv-x="1128" 
d="M698 1434q8 0 13.5 -6t5.5 -13v-239q0 -8 -5.5 -13.5t-13.5 -5.5h-274q-7 0 -12.5 5.5t-5.5 13.5v239q0 8 5.5 13.5t12.5 5.5h274zM571 178q167 0 205 162q6 16 21 16h258q21 0 18 -18q-21 -154 -157.5 -259.5t-348.5 -105.5q-257 0 -399.5 152.5t-142.5 398.5
q0 254 143 405.5t393 151.5q257 0 398.5 -159t146.5 -439q0 -18 -19 -18h-753q9 -148 67.5 -217.5t169.5 -69.5zM563 879q-183 0 -221 -220h432q-10 94 -63 157t-148 63z" />
    <glyph glyph-name="Eogonek" unicode="&#x118;" horiz-adv-x="1101" 
d="M973 -229h96q7 0 12.5 -5.5t5.5 -13.5v-164q0 -8 -5.5 -13t-12.5 -5h-125q-140 0 -225.5 61.5t-85.5 165.5q0 124 110 203h-667q-8 0 -13.5 5.5t-5.5 12.5l11 699l-11 698q0 7 5.5 13t13.5 6h966q8 0 13.5 -6t5.5 -13v-194q0 -7 -5.5 -13t-13.5 -6h-667l-8 -330h616
q7 0 12.5 -5t5.5 -13v-195q0 -7 -5.5 -12.5t-12.5 -5.5h-616l8 -410h684q7 0 12.5 -5.5t5.5 -12.5v-195q0 -8 -5.5 -13t-12.5 -5h-115q-26 -19 -52 -62t-26 -85q0 -82 107 -82z" />
    <glyph glyph-name="eogonek" unicode="&#x119;" horiz-adv-x="1128" 
d="M571 178q167 0 205 162q6 16 21 16h258q21 0 18 -18q-15 -117 -100.5 -209t-224.5 -131q-26 -22 -50 -63t-24 -82q0 -82 106 -82h97q7 0 12.5 -5.5t5.5 -13.5v-164q0 -8 -5.5 -13t-12.5 -5h-125q-140 0 -226 61.5t-86 165.5q0 105 80 178q-236 15 -365.5 164.5
t-129.5 384.5q0 254 143 405.5t393 151.5q257 0 398.5 -159t146.5 -439q0 -18 -19 -18h-753q9 -148 67.5 -217.5t169.5 -69.5zM563 879q-183 0 -221 -220h432q-10 94 -63 157t-148 63z" />
    <glyph glyph-name="Ecaron" unicode="&#x11a;" horiz-adv-x="1101" 
d="M649 1538q-12 -8 -22 -8h-99q-10 0 -22 8l-295 205q-14 11 -8 26l47 113q8 20 24 10l304 -149l303 149q16 10 24 -10l47 -113q6 -15 -8 -26zM1059 231q7 0 12.5 -5.5t5.5 -12.5v-195q0 -8 -5.5 -13t-12.5 -5h-983q-8 0 -13.5 5.5t-5.5 12.5l11 699l-11 698q0 7 5.5 13
t13.5 6h966q8 0 13.5 -6t5.5 -13v-194q0 -7 -5.5 -13t-13.5 -6h-667l-8 -330h616q7 0 12.5 -5t5.5 -13v-195q0 -7 -5.5 -12.5t-12.5 -5.5h-616l8 -410h684z" />
    <glyph glyph-name="ecaron" unicode="&#x11b;" horiz-adv-x="1128" 
d="M633 1159q-12 -8 -23 -8h-98q-11 0 -23 8l-294 205q-15 11 -9 27l47 112q3 8 10 11t15 -1l303 -149l303 149q8 4 15 1t10 -11l47 -112q6 -16 -8 -27zM571 178q167 0 205 162q6 16 21 16h258q21 0 18 -18q-21 -154 -157.5 -259.5t-348.5 -105.5q-257 0 -399.5 152.5
t-142.5 398.5q0 254 143 405.5t393 151.5q257 0 398.5 -159t146.5 -439q0 -18 -19 -18h-753q9 -148 67.5 -217.5t169.5 -69.5zM563 879q-183 0 -221 -220h432q-10 94 -63 157t-148 63z" />
    <glyph glyph-name="Gcircumflex" unicode="&#x11c;" horiz-adv-x="1447" 
d="M721 1663l-303 -150q-8 -4 -15 -0.5t-10 11.5l-47 114q-6 15 8 25l295 209q12 8 23 8h102q11 0 23 -8l295 -209q14 -10 8 -25l-47 -114q-3 -8 -10 -11.5t-15 0.5zM739 -31q-210 0 -372 94t-251 264t-89 390q0 168 51.5 307.5t143.5 236t222 150t285 53.5
q263 0 432 -123.5t228 -351.5q3 -20 -17 -20h-285q-17 0 -20 16q-71 242 -336 242q-185 0 -284 -136.5t-99 -377.5q0 -236 102.5 -371t290.5 -135q155 0 246.5 89t97.5 253h-356q-7 0 -12.5 5.5t-5.5 12.5v193q0 8 5.5 13t12.5 5h672q18 0 18 -22q3 -392 -171.5 -589.5
t-508.5 -197.5z" />
    <glyph glyph-name="gcircumflex" unicode="&#x11d;" horiz-adv-x="1142" 
d="M561 1284l-303 -149q-8 -4 -15 -1t-10 11l-47 115q-5 13 9 24l294 209q12 8 23 8h102q11 0 23 -8l295 -209q14 -10 8 -24l-47 -115q-3 -8 -10 -11t-15 1zM793 940l-7 96q0 19 19 19h270q7 0 13 -5.5t6 -13.5l-4 -524l2 -483q0 -204 -134 -321.5t-389 -117.5
q-215 -3 -353 84.5t-150 255.5q0 19 18 19h266q18 0 21 -17q9 -67 62.5 -103t146.5 -36q104 0 164.5 60t60.5 180v121q-113 -148 -303 -148q-152 0 -261.5 71t-162.5 189t-53 269q0 148 54.5 268.5t161 193t246.5 72.5q195 0 306 -129zM567 207q229 0 232 319
q1 164 -57.5 252t-168.5 90q-116 3 -175.5 -79.5t-59.5 -241.5q0 -169 59 -255.5t170 -84.5z" />
    <glyph glyph-name="Gbreve" unicode="&#x11e;" horiz-adv-x="1447" 
d="M723 1536q-157 0 -256 91t-105 231q0 18 19 18h164q18 0 18 -18q6 -56 48 -89.5t112 -33.5q66 0 109 34t51 89q0 18 18 18h164q18 0 18 -16q-6 -141 -104 -232.5t-256 -91.5zM739 -31q-210 0 -372 94t-251 264t-89 390q0 168 51.5 307.5t143.5 236t222 150t285 53.5
q263 0 432 -123.5t228 -351.5q3 -20 -17 -20h-285q-17 0 -20 16q-71 242 -336 242q-185 0 -284 -136.5t-99 -377.5q0 -236 102.5 -371t290.5 -135q155 0 246.5 89t97.5 253h-356q-7 0 -12.5 5.5t-5.5 12.5v193q0 8 5.5 13t12.5 5h672q18 0 18 -22q3 -392 -171.5 -589.5
t-508.5 -197.5z" />
    <glyph glyph-name="gbreve" unicode="&#x11f;" horiz-adv-x="1142" 
d="M565 1157q-157 0 -255.5 90.5t-104.5 231.5q0 18 18 18h164q19 0 19 -18q6 -56 47.5 -89.5t111.5 -33.5q66 0 109 34t51 89q0 18 18 18h164q19 0 19 -16q-6 -141 -104.5 -232.5t-256.5 -91.5zM793 940l-7 96q0 19 19 19h270q7 0 13 -5.5t6 -13.5l-4 -524l2 -483
q0 -204 -134 -321.5t-389 -117.5q-215 -3 -353 84.5t-150 255.5q0 19 18 19h266q18 0 21 -17q9 -67 62.5 -103t146.5 -36q104 0 164.5 60t60.5 180v121q-113 -148 -303 -148q-152 0 -261.5 71t-162.5 189t-53 269q0 148 54.5 268.5t161 193t246.5 72.5q195 0 306 -129z
M567 207q229 0 232 319q1 164 -57.5 252t-168.5 90q-116 3 -175.5 -79.5t-59.5 -241.5q0 -169 59 -255.5t170 -84.5z" />
    <glyph glyph-name="Gdotaccent" unicode="&#x120;" horiz-adv-x="1447" 
d="M860 1812q8 0 13.5 -5.5t5.5 -12.5v-240q0 -7 -5.5 -12.5t-13.5 -5.5h-274q-8 0 -13.5 5.5t-5.5 12.5v240q0 7 5.5 12.5t13.5 5.5h274zM739 -31q-210 0 -372 94t-251 264t-89 390q0 168 51.5 307.5t143.5 236t222 150t285 53.5q263 0 432 -123.5t228 -351.5
q3 -20 -17 -20h-285q-17 0 -20 16q-71 242 -336 242q-185 0 -284 -136.5t-99 -377.5q0 -236 102.5 -371t290.5 -135q155 0 246.5 89t97.5 253h-356q-7 0 -12.5 5.5t-5.5 12.5v193q0 8 5.5 13t12.5 5h672q18 0 18 -22q3 -392 -171.5 -589.5t-508.5 -197.5z" />
    <glyph glyph-name="gdotaccent" unicode="&#x121;" horiz-adv-x="1142" 
d="M700 1434q8 0 13.5 -6t5.5 -13v-239q0 -8 -5.5 -13.5t-13.5 -5.5h-274q-7 0 -12.5 5.5t-5.5 13.5v239q0 8 5.5 13.5t12.5 5.5h274zM793 940l-7 96q0 19 19 19h270q7 0 13 -5.5t6 -13.5l-4 -524l2 -483q0 -204 -134 -321.5t-389 -117.5q-215 -3 -353 84.5t-150 255.5
q0 19 18 19h266q18 0 21 -17q9 -67 62.5 -103t146.5 -36q104 0 164.5 60t60.5 180v121q-113 -148 -303 -148q-152 0 -261.5 71t-162.5 189t-53 269q0 148 54.5 268.5t161 193t246.5 72.5q195 0 306 -129zM567 207q229 0 232 319q1 164 -57.5 252t-168.5 90
q-116 3 -175.5 -79.5t-59.5 -241.5q0 -169 59 -255.5t170 -84.5z" />
    <glyph glyph-name="uni0122" unicode="&#x122;" horiz-adv-x="1447" 
d="M739 -31q-210 0 -372 94t-251 264t-89 390q0 168 51.5 307.5t143.5 236t222 150t285 53.5q263 0 432 -123.5t228 -351.5q3 -20 -17 -20h-285q-17 0 -20 16q-71 242 -336 242q-185 0 -284 -136.5t-99 -377.5q0 -236 102.5 -371t290.5 -135q155 0 246.5 89t97.5 253h-356
q-7 0 -12.5 5.5t-5.5 12.5v193q0 8 5.5 13t12.5 5h672q18 0 18 -22q3 -392 -171.5 -589.5t-508.5 -197.5zM844 -295q0 -10 -6 -22l-117 -183q-6 -12 -23 -12h-116q-20 0 -17 20l45 183v211q0 7 5.5 12.5t13.5 5.5h196q8 0 13.5 -5.5t5.5 -12.5v-197z" />
    <glyph glyph-name="uni0123" unicode="&#x123;" horiz-adv-x="1142" 
d="M678 1386v-210q0 -8 -6 -13.5t-13 -5.5h-270q-7 0 -12.5 5.5t-5.5 13.5v196q0 12 8 23l172 184q7 10 22 10h134q19 0 16 -20zM793 940l-7 96q0 19 19 19h270q7 0 13 -5.5t6 -13.5l-4 -524l2 -483q0 -204 -134 -321.5t-389 -117.5q-215 -3 -353 84.5t-150 255.5
q0 19 18 19h266q18 0 21 -17q9 -67 62.5 -103t146.5 -36q104 0 164.5 60t60.5 180v121q-113 -148 -303 -148q-152 0 -261.5 71t-162.5 189t-53 269q0 148 54.5 268.5t161 193t246.5 72.5q195 0 306 -129zM567 207q229 0 232 319q1 164 -57.5 252t-168.5 90
q-116 3 -175.5 -79.5t-59.5 -241.5q0 -169 59 -255.5t170 -84.5z" />
    <glyph glyph-name="Hcircumflex" unicode="&#x124;" horiz-adv-x="1363" 
d="M680 1663l-303 -150q-8 -4 -15 -0.5t-10 11.5l-47 114q-6 15 8 25l295 209q12 8 23 8h102q11 0 23 -8l295 -209q14 -10 8 -25l-47 -114q-3 -8 -10 -11.5t-15 0.5zM993 881l-6 534q0 7 5.5 13t13.5 6h282q8 0 13.5 -6t5.5 -13l-11 -698l11 -699q0 -7 -5.5 -12.5
t-13.5 -5.5h-282q-8 0 -13.5 5.5t-5.5 12.5l8 631h-626l8 -631q0 -7 -5.5 -12.5t-13.5 -5.5h-282q-8 0 -13.5 5.5t-5.5 12.5l11 699l-11 698q0 7 5.5 13t13.5 6h282q8 0 13.5 -6t5.5 -13l-6 -534h622z" />
    <glyph glyph-name="hcircumflex" unicode="&#x125;" horiz-adv-x="1087" 
d="M199 1663l-303 -150q-8 -4 -15 -0.5t-10 11.5l-47 114q-6 15 8 25l295 209q12 8 23 8h102q10 0 22 -8l295 -209q15 -11 9 -25l-48 -114q-8 -20 -24 -11zM346 625l8 -607q0 -8 -5 -13t-13 -5h-268q-8 0 -13.5 5.5t-5.5 12.5l8 701l-8 696q0 7 5.5 13t13.5 6h268
q7 0 12.5 -5.5t5.5 -13.5l-6 -477q111 141 320 141q183 0 281.5 -112t94.5 -338v-226l7 -385q0 -7 -5.5 -12.5t-13.5 -5.5h-276q-8 0 -13.5 5.5t-5.5 12.5l6 381l-2 267q-1 91 -44.5 139.5t-110.5 48.5q-79 0 -147.5 -60.5t-92.5 -168.5z" />
    <glyph glyph-name="Hbar" unicode="&#x126;" horiz-adv-x="1392" 
d="M1317 1200h67q8 0 13.5 -5.5t5.5 -12.5v-195q0 -7 -5.5 -12.5t-13.5 -5.5h-69l-2 -252l6 -699q0 -7 -5.5 -12.5t-13.5 -5.5h-278q-8 0 -13 5t-5 13l2 488h-619l2 -488q0 -8 -5.5 -13t-12.5 -5h-279q-8 0 -13 5t-5 13l6 699l-2 252h-70q-8 0 -13 5.5t-5 12.5v195q0 8 5 13
t13 5h68l-2 215q0 8 5.5 13.5t12.5 5.5h279q7 0 12.5 -5.5t5.5 -13.5l-2 -215h619l-2 215q0 8 5.5 13.5t12.5 5.5h278q8 0 13.5 -6t5.5 -13zM387 969l-2 -232h623l-2 232h-619z" />
    <glyph glyph-name="hbar" unicode="&#x127;" horiz-adv-x="1069" 
d="M328 625l8 -607q0 -7 -5.5 -12.5t-13.5 -5.5h-268q-7 0 -12.5 5t-5.5 13l8 701l-6 409h-49q-8 0 -13.5 6t-5.5 13v176q0 7 5.5 12.5t13.5 5.5h47v74q0 8 5.5 13.5t12.5 5.5h268q7 0 13 -6t6 -13l-2 -74h289q7 0 12.5 -5.5t5.5 -12.5v-176q0 -8 -5.5 -13.5t-12.5 -5.5
h-291l-2 -190q111 141 319 141q183 0 280.5 -111.5t96.5 -338.5v-226l6 -385q0 -8 -5 -13t-13 -5h-277q-7 0 -12.5 5t-5.5 13l6 381l-2 267q0 91 -44.5 139.5t-111.5 48.5q-79 0 -147 -60.5t-92 -168.5z" />
    <glyph glyph-name="Itilde" unicode="&#x128;" horiz-adv-x="450" 
d="M350 1546q-43 0 -81 17t-60.5 37.5t-49 37.5t-48.5 17q-55 0 -58 -88q0 -19 -18 -19h-119q-18 0 -18 19q5 120 56.5 191t151.5 71q40 0 77.5 -17t61 -37.5t48.5 -37.5t43 -17q58 0 61 88q0 19 19 19h119q18 0 18 -23q-5 -123 -55.5 -190.5t-147.5 -67.5zM373 717l10 -699
q0 -8 -5.5 -13t-12.5 -5h-279q-8 0 -13 5t-5 13l10 699l-10 698q0 8 5.5 13.5t12.5 5.5h279q7 0 12.5 -5.5t5.5 -13.5z" />
    <glyph glyph-name="itilde" unicode="&#x129;" horiz-adv-x="421" 
d="M324 1167q-38 0 -72 17t-53 37.5t-40.5 37.5t-37.5 17q-40 0 -43 -88q0 -19 -19 -19h-104q-18 0 -18 19q3 126 46 194t119 68q38 0 71 -17t52 -37.5t40.5 -37.5t37.5 -17q40 0 43 89q0 18 19 18h104q18 0 18 -33q-12 -248 -163 -248zM362 526l7 -508q0 -7 -5.5 -12.5
t-13.5 -5.5h-276q-8 0 -13.5 5.5t-5.5 12.5l6 508l-6 510q0 8 5.5 13.5t13.5 5.5h276q8 0 13.5 -5.5t5.5 -13.5z" />
    <glyph glyph-name="Imacron" unicode="&#x12a;" horiz-adv-x="450" 
d="M541 1751q7 0 12.5 -5.5t5.5 -12.5v-168q0 -8 -5.5 -13.5t-12.5 -5.5h-633q-8 0 -13.5 6t-5.5 13v168q0 7 5.5 12.5t13.5 5.5h633zM373 717l10 -699q0 -8 -5.5 -13t-12.5 -5h-279q-8 0 -13 5t-5 13l10 699l-10 698q0 8 5.5 13.5t12.5 5.5h279q7 0 12.5 -5.5t5.5 -13.5z
" />
    <glyph glyph-name="imacron" unicode="&#x12b;" horiz-adv-x="421" 
d="M473 1372q8 0 13.5 -5.5t5.5 -12.5v-168q0 -8 -6 -13.5t-13 -5.5h-524q-7 0 -13 5.5t-6 13.5v168q0 7 5.5 12.5t13.5 5.5h524zM362 526l7 -508q0 -7 -5.5 -12.5t-13.5 -5.5h-276q-8 0 -13.5 5.5t-5.5 12.5l6 508l-6 510q0 8 5.5 13.5t13.5 5.5h276q8 0 13.5 -5.5
t5.5 -13.5z" />
    <glyph glyph-name="Ibreve" unicode="&#x12c;" horiz-adv-x="450" 
d="M225 1536q-157 0 -255.5 90.5t-104.5 231.5q0 18 18 18h164q19 0 19 -18q6 -56 47.5 -89.5t111.5 -33.5q66 0 109 34t51 89q0 18 18 18h164q19 0 19 -16q-6 -141 -104.5 -232.5t-256.5 -91.5zM373 717l10 -699q0 -8 -5.5 -13t-12.5 -5h-279q-8 0 -13 5t-5 13l10 699
l-10 698q0 8 5.5 13.5t12.5 5.5h279q7 0 12.5 -5.5t5.5 -13.5z" />
    <glyph glyph-name="ibreve" unicode="&#x12d;" horiz-adv-x="421" 
d="M213 1157q-139 0 -221 83.5t-86 238.5q0 18 18 18h152q18 0 18 -18q9 -133 119 -133q108 0 117 133q0 18 18 18h152q18 0 18 -22q-6 -153 -87 -235.5t-218 -82.5zM362 526l7 -508q0 -7 -5.5 -12.5t-13.5 -5.5h-276q-8 0 -13.5 5.5t-5.5 12.5l6 508l-6 510q0 8 5.5 13.5
t13.5 5.5h276q8 0 13.5 -5.5t5.5 -13.5z" />
    <glyph glyph-name="Iogonek" unicode="&#x12e;" horiz-adv-x="450" 
d="M295 -229h96q7 0 13 -5.5t6 -13.5v-164q0 -7 -5.5 -12.5t-13.5 -5.5h-125q-140 0 -225.5 61.5t-85.5 165.5q0 124 113 205l10 715l-10 698q0 8 5.5 13.5t12.5 5.5h279q7 0 12.5 -5.5t5.5 -13.5l-10 -698l10 -699q0 -8 -5.5 -13t-12.5 -5h-99q-26 -19 -52 -62t-26 -85
q0 -82 107 -82z" />
    <glyph glyph-name="iogonek" unicode="&#x12f;" horiz-adv-x="421" 
d="M55 1415q0 7 5.5 13t13.5 6h274q8 0 13.5 -6t5.5 -13v-239q0 -8 -5.5 -13.5t-13.5 -5.5h-274q-8 0 -13.5 5.5t-5.5 13.5v239zM276 -229h97q7 0 12.5 -5.5t5.5 -13.5v-164q0 -8 -5.5 -13t-12.5 -5h-125q-140 0 -225.5 61.5t-85.5 165.5q0 129 118 209l6 520l-6 510
q0 8 5.5 13.5t13.5 5.5h276q8 0 13.5 -5.5t5.5 -13.5l-7 -510l7 -508q0 -7 -5.5 -12.5t-13.5 -5.5h-102q-26 -19 -52 -62t-26 -85q0 -82 106 -82z" />
    <glyph glyph-name="Idotaccent" unicode="&#x130;" horiz-adv-x="450" 
d="M362 1812q8 0 13.5 -5.5t5.5 -12.5v-240q0 -7 -5.5 -12.5t-13.5 -5.5h-274q-8 0 -13 5t-5 13v240q0 8 5 13t13 5h274zM373 717l10 -699q0 -8 -5.5 -13t-12.5 -5h-279q-8 0 -13 5t-5 13l10 699l-10 698q0 8 5.5 13.5t12.5 5.5h279q7 0 12.5 -5.5t5.5 -13.5z" />
    <glyph glyph-name="dotlessi" unicode="&#x131;" horiz-adv-x="421" 
d="M362 526l7 -508q0 -7 -5.5 -12.5t-13.5 -5.5h-276q-8 0 -13.5 5.5t-5.5 12.5l6 508l-6 510q0 8 5.5 13.5t13.5 5.5h276q8 0 13.5 -5.5t5.5 -13.5z" />
    <glyph glyph-name="IJ" unicode="&#x132;" horiz-adv-x="1509" 
d="M373 717l10 -699q0 -8 -5.5 -13t-12.5 -5h-279q-8 0 -13 5t-5 13l10 699l-10 698q0 8 5.5 13.5t12.5 5.5h279q7 0 12.5 -5.5t5.5 -13.5zM952 -31q-237 0 -360.5 141.5t-128.5 397.5q0 18 18 18h267q18 0 18 -18q3 -150 47 -222.5t141 -72.5q101 0 142 71t43 230v422
l-6 479q0 8 5.5 13.5t12.5 5.5h287q7 0 12.5 -5.5t5.5 -13.5l-6 -479l2 -424q1 -272 -125.5 -407.5t-374.5 -135.5z" />
    <glyph glyph-name="ij" unicode="&#x133;" horiz-adv-x="843" 
d="M348 1434q8 0 13.5 -6t5.5 -13v-239q0 -8 -5.5 -13.5t-13.5 -5.5h-274q-8 0 -13.5 5.5t-5.5 13.5v239q0 7 5.5 13t13.5 6h274zM770 1434q7 0 12.5 -5.5t5.5 -13.5v-239q0 -8 -5.5 -13.5t-12.5 -5.5h-274q-8 0 -13.5 5.5t-5.5 13.5v239q0 7 5.5 13t13.5 6h274zM362 526
l7 -508q0 -7 -5.5 -12.5t-13.5 -5.5h-276q-8 0 -13.5 5.5t-5.5 12.5l6 508l-6 510q0 8 5.5 13.5t13.5 5.5h276q8 0 13.5 -5.5t5.5 -13.5zM784 362l7 -692q0 -7 -5.5 -12.5t-13.5 -5.5h-276q-8 0 -13.5 5.5t-5.5 12.5l6 692l-6 674q0 8 5.5 13.5t13.5 5.5h276q8 0 13.5 -5.5
t5.5 -13.5z" />
    <glyph glyph-name="Jcircumflex" unicode="&#x134;" horiz-adv-x="1058" 
d="M844 1663l-303 -150q-8 -4 -15 -0.5t-10 11.5l-47 114q-6 15 8 25l295 209q12 8 23 8h102q11 0 23 -8l294 -209q15 -11 9 -25l-47 -114q-3 -8 -10 -11.5t-15 0.5zM502 -31q-237 0 -361 141.5t-129 397.5q0 18 19 18h266q18 0 18 -18q3 -150 47.5 -222.5t141.5 -72.5
q100 0 141 71t43 230v422l-6 479q0 8 5.5 13.5t12.5 5.5h287q7 0 13 -6t6 -13l-7 -479l2 -424q1 -272 -125 -407.5t-374 -135.5z" />
    <glyph glyph-name="jcircumflex" unicode="&#x135;" horiz-adv-x="421" 
d="M213 1292l-242 -143q-16 -10 -24 6l-58 109q-7 15 5 24l245 207q8 8 23 8h100q15 0 23 -8l243 -207q10 -8 4 -24l-55 -109q-8 -16 -24 -6zM362 362l7 -692q0 -7 -5.5 -12.5t-13.5 -5.5h-276q-8 0 -13.5 5.5t-5.5 12.5l6 692l-6 674q0 8 5.5 13.5t13.5 5.5h276
q8 0 13.5 -5.5t5.5 -13.5z" />
    <glyph glyph-name="uni0136" unicode="&#x136;" horiz-adv-x="1253" 
d="M791 1421q10 13 22 13h326q11 0 14 -7t-4 -16l-459 -561l572 -827q6 -9 2.5 -16t-13.5 -7h-344q-16 0 -22 12l-166 248l-230 346l-118 -147l4 -441q0 -7 -5.5 -12.5t-13.5 -5.5h-280q-8 0 -13.5 5.5t-5.5 12.5l11 699l-9 698q0 7 5.5 13t13.5 6h278q8 0 13.5 -6t5.5 -13
l-6 -579zM745 -295q0 -10 -6 -22l-116 -183q-6 -12 -23 -12h-117q-19 0 -16 20l45 183v211q0 8 5 13t13 5h197q7 0 12.5 -5t5.5 -13v-197z" />
    <glyph glyph-name="uni0137" unicode="&#x137;" horiz-adv-x="1024" 
d="M655 1044q11 11 23 11h293q11 0 14 -7t-4 -16l-317 -356l376 -653q5 -9 1.5 -16t-13.5 -7h-317q-16 0 -21 12l-108 209l-131 234l-101 -127l2 -310q0 -8 -5 -13t-13 -5h-268q-8 0 -13.5 5.5t-5.5 12.5l8 699l-8 698q0 7 5.5 13t13.5 6h268q7 0 12.5 -5.5t5.5 -13.5
l-6 -692v-64zM637 -295q0 -10 -6 -22l-117 -183q-6 -12 -22 -12h-117q-20 0 -17 20l45 183v211q0 7 5.5 12.5t13.5 5.5h196q8 0 13.5 -5.5t5.5 -12.5v-197z" />
    <glyph glyph-name="Lacute" unicode="&#x139;" horiz-adv-x="976" 
d="M467 1872q17 9 25 -10l59 -193q3 -7 -0.5 -13.5t-11.5 -8.5l-504 -134q-17 -6 -23 13l-45 110q-6 19 10 25zM956 231q8 0 13.5 -5.5t5.5 -12.5v-195q0 -7 -5.5 -12.5t-13.5 -5.5h-880q-8 0 -13.5 5.5t-5.5 12.5l11 699l-11 698q0 7 5.5 13t13.5 6h280q8 0 13.5 -6
t5.5 -13l-8 -680l8 -504h581z" />
    <glyph glyph-name="lacute" unicode="&#x13a;" horiz-adv-x="419" 
d="M461 1872q17 8 24 -10l60 -193q3 -7 -1 -13.5t-12 -8.5l-503 -134q-17 -6 -23 13l-45 110q-6 19 10 25zM354 717l8 -699q0 -8 -5 -13t-13 -5h-268q-8 0 -13.5 5.5t-5.5 12.5l9 699l-9 698q0 7 5.5 13t13.5 6h268q7 0 12.5 -5.5t5.5 -13.5z" />
    <glyph glyph-name="uni013B" unicode="&#x13b;" horiz-adv-x="976" 
d="M956 231q8 0 13.5 -5.5t5.5 -12.5v-195q0 -7 -5.5 -12.5t-13.5 -5.5h-880q-8 0 -13.5 5.5t-5.5 12.5l11 699l-11 698q0 7 5.5 13t13.5 6h280q8 0 13.5 -6t5.5 -13l-8 -680l8 -504h581zM653 -295q0 -10 -6 -22l-117 -183q-6 -12 -22 -12h-117q-19 0 -16 20l45 183v211
q0 8 5 13t13 5h197q7 0 12.5 -5t5.5 -13v-197z" />
    <glyph glyph-name="uni013C" unicode="&#x13c;" horiz-adv-x="419" 
d="M354 717l8 -699q0 -8 -5 -13t-13 -5h-268q-8 0 -13.5 5.5t-5.5 12.5l9 699l-9 698q0 7 5.5 13t13.5 6h268q7 0 12.5 -5.5t5.5 -13.5zM326 -295q0 -8 -7 -22l-116 -183q-6 -12 -23 -12h-117q-19 0 -16 20l45 183v211q0 7 5.5 12.5t13.5 5.5h196q8 0 13.5 -5.5t5.5 -12.5
v-197z" />
    <glyph glyph-name="Lcaron" unicode="&#x13d;" horiz-adv-x="976" 
d="M956 231q8 0 13.5 -5.5t5.5 -12.5v-195q0 -7 -5.5 -12.5t-13.5 -5.5h-880q-8 0 -13.5 5.5t-5.5 12.5l11 699l-11 698q0 7 5.5 13t13.5 6h280q8 0 13.5 -6t5.5 -13l-8 -680l8 -504h581zM475 1417q3 17 19 17h213q19 0 16 -21l-107 -444q-3 -17 -20 -17h-158q-9 0 -14 6
t-4 15z" />
    <glyph glyph-name="lcaron" unicode="&#x13e;" horiz-adv-x="419" 
d="M465 1571q3 16 18 16h213q20 0 17 -20l-107 -445q-3 -16 -20 -16h-158q-21 0 -18 20zM354 717l8 -699q0 -8 -5 -13t-13 -5h-268q-8 0 -13.5 5.5t-5.5 12.5l9 699l-9 698q0 7 5.5 13t13.5 6h268q7 0 12.5 -5.5t5.5 -13.5z" />
    <glyph glyph-name="Ldot" unicode="&#x13f;" horiz-adv-x="976" 
d="M956 231q8 0 13.5 -5.5t5.5 -12.5v-195q0 -7 -5.5 -12.5t-13.5 -5.5h-880q-8 0 -13.5 5.5t-5.5 12.5l11 699l-11 698q0 7 5.5 13t13.5 6h280q8 0 13.5 -6t5.5 -13l-8 -680l8 -504h581zM891 940q7 0 12.5 -5t5.5 -13v-240q0 -8 -5.5 -13t-12.5 -5h-275q-8 0 -13 5t-5 13
v240q0 8 5 13t13 5h275z" />
    <glyph glyph-name="ldot" unicode="&#x140;" horiz-adv-x="731" 
d="M354 717l8 -699q0 -8 -5 -13t-13 -5h-268q-8 0 -13.5 5.5t-5.5 12.5l9 699l-9 698q0 7 5.5 13t13.5 6h268q7 0 12.5 -5.5t5.5 -13.5zM713 805q7 0 12.5 -5.5t5.5 -13.5v-239q0 -8 -5.5 -13.5t-12.5 -5.5h-275q-7 0 -12.5 5.5t-5.5 13.5v239q0 8 5.5 13.5t12.5 5.5h275z
" />
    <glyph glyph-name="Lslash" unicode="&#x141;" horiz-adv-x="1001" 
d="M401 629l7 -398h581q8 0 13.5 -5.5t5.5 -12.5v-195q0 -7 -5.5 -12.5t-13.5 -5.5h-880q-8 0 -13.5 5.5t-5.5 12.5l8 512l-80 -26q-9 -3 -14.5 2t-5.5 14v193q0 17 14 20l88 29l-10 653q0 7 6 13t13 6h280q7 0 13 -6t6 -13l-7 -555l271 88q9 3 14.5 -2t5.5 -14v-193
q0 -14 -14 -20z" />
    <glyph glyph-name="lslash" unicode="&#x142;" horiz-adv-x="471" 
d="M381 754l49 26q9 5 16 0.5t7 -14.5v-193q0 -12 -13 -20l-57 -31l6 -504q0 -8 -5.5 -13t-12.5 -5h-269q-8 0 -13 5t-5 13l4 353l-47 -25q-9 -5 -16 -1.5t-7 13.5v193q0 13 13 20l59 31l2 115l-8 698q0 8 5.5 13.5t12.5 5.5h269q7 0 12.5 -5.5t5.5 -13.5z" />
    <glyph glyph-name="Nacute" unicode="&#x143;" horiz-adv-x="1357" 
d="M938 1872q18 9 25 -10l59 -193q3 -7 -0.5 -13.5t-11.5 -8.5l-504 -134q-17 -6 -23 13l-45 110q-6 18 11 25zM350 633v-615q0 -8 -5 -13t-13 -5h-256q-8 0 -13.5 5.5t-5.5 12.5l9 699l-9 698q0 7 5.5 13t13.5 6h346q16 0 22 -13l576 -1015l-12 325v684q0 8 5.5 13.5
t12.5 5.5h256q7 0 12.5 -5.5t5.5 -13.5l-8 -698l8 -699q0 -8 -5 -13t-13 -5h-358q-17 0 -23 12l-563 1010z" />
    <glyph glyph-name="nacute" unicode="&#x144;" horiz-adv-x="1093" 
d="M803 1493q17 8 24 -10l60 -193q3 -7 -1 -13.5t-12 -8.5l-503 -133q-17 -6 -23 12l-45 110q-6 19 10 25zM360 449l5 -431q0 -7 -5.5 -12.5t-13.5 -5.5h-278q-8 0 -13.5 5.5t-5.5 12.5l6 488l-2 530q0 8 5.5 13.5t13.5 5.5h260q18 0 18 -19l-6 -114q56 72 144.5 114.5
t195.5 42.5q169 0 268 -108.5t99 -300.5v-221l6 -431q0 -7 -5.5 -12.5t-13.5 -5.5h-274q-8 0 -13.5 5.5t-5.5 12.5l5 431v217q0 85 -45 136.5t-115 51.5q-92 0 -161 -85t-69 -243v-77z" />
    <glyph glyph-name="uni0145" unicode="&#x145;" horiz-adv-x="1357" 
d="M350 633v-615q0 -8 -5 -13t-13 -5h-256q-8 0 -13.5 5.5t-5.5 12.5l9 699l-9 698q0 7 5.5 13t13.5 6h346q16 0 22 -13l576 -1015l-12 325v684q0 8 5.5 13.5t12.5 5.5h256q7 0 12.5 -5.5t5.5 -13.5l-8 -698l8 -699q0 -8 -5 -13t-13 -5h-358q-17 0 -23 12l-563 1010z
M797 -295q0 -10 -6 -22l-117 -183q-6 -12 -23 -12h-116q-20 0 -17 20l45 183v211q0 7 5.5 12.5t13.5 5.5h196q8 0 13.5 -5.5t5.5 -12.5v-197z" />
    <glyph glyph-name="uni0146" unicode="&#x146;" horiz-adv-x="1093" 
d="M360 449l5 -431q0 -7 -5.5 -12.5t-13.5 -5.5h-278q-8 0 -13.5 5.5t-5.5 12.5l6 488l-2 530q0 8 5.5 13.5t13.5 5.5h260q18 0 18 -19l-6 -114q56 72 144.5 114.5t195.5 42.5q169 0 268 -108.5t99 -300.5v-221l6 -431q0 -7 -5.5 -12.5t-13.5 -5.5h-274q-8 0 -13.5 5.5
t-5.5 12.5l5 431v217q0 85 -45 136.5t-115 51.5q-92 0 -161 -85t-69 -243v-77zM672 -295q0 -10 -6 -22l-117 -183q-6 -12 -23 -12h-116q-20 0 -17 20l45 183v211q0 7 5.5 12.5t13.5 5.5h196q8 0 13.5 -5.5t5.5 -12.5v-197z" />
    <glyph glyph-name="Ncaron" unicode="&#x147;" horiz-adv-x="1357" 
d="M760 1538q-12 -8 -23 -8h-98q-11 0 -23 8l-294 205q-15 11 -9 26l47 113q3 8 10 11t15 -1l303 -149l303 149q8 4 15 1t10 -11l47 -113q6 -15 -8 -26zM350 633v-615q0 -8 -5 -13t-13 -5h-256q-8 0 -13.5 5.5t-5.5 12.5l9 699l-9 698q0 7 5.5 13t13.5 6h346q16 0 22 -13
l576 -1015l-12 325v684q0 8 5.5 13.5t12.5 5.5h256q7 0 12.5 -5.5t5.5 -13.5l-8 -698l8 -699q0 -8 -5 -13t-13 -5h-358q-17 0 -23 12l-563 1010z" />
    <glyph glyph-name="ncaron" unicode="&#x148;" horiz-adv-x="1093" 
d="M625 1159q-12 -8 -23 -8h-98q-11 0 -23 8l-295 205q-14 11 -8 27l47 112q3 8 10 11t15 -1l303 -149l303 149q8 4 15 1t10 -11l47 -112q6 -16 -8 -27zM360 449l5 -431q0 -7 -5.5 -12.5t-13.5 -5.5h-278q-8 0 -13.5 5.5t-5.5 12.5l6 488l-2 530q0 8 5.5 13.5t13.5 5.5h260
q18 0 18 -19l-6 -114q56 72 144.5 114.5t195.5 42.5q169 0 268 -108.5t99 -300.5v-221l6 -431q0 -7 -5.5 -12.5t-13.5 -5.5h-274q-8 0 -13.5 5.5t-5.5 12.5l5 431v217q0 85 -45 136.5t-115 51.5q-92 0 -161 -85t-69 -243v-77z" />
    <glyph glyph-name="Eng" unicode="&#x14a;" horiz-adv-x="1355" 
d="M348 684v-666q0 -8 -5 -13t-13 -5h-254q-8 0 -13.5 5.5t-5.5 12.5l4 699l-4 698q0 7 5.5 13t13.5 6h344q16 0 22 -13l570 -889l-6 148v735q0 8 5.5 13.5t12.5 5.5h254q7 0 12.5 -5.5t5.5 -13.5l-4 -573l4 -883q1 -87 -26.5 -152.5t-76 -103t-106 -56t-124.5 -18.5
q-72 0 -193 19q-16 3 -16 18v178q0 9 5.5 13.5t14.5 1.5q57 -11 117 -11q115 0 115 140v16l-668 1043z" />
    <glyph glyph-name="eng" unicode="&#x14b;" horiz-adv-x="1089" 
d="M707 -369q-72 0 -193 19q-16 3 -16 18v178q0 9 5.5 13.5t14.5 1.5q57 -11 117 -11q115 0 115 140v676q0 85 -45 136.5t-115 51.5q-92 0 -161 -85t-69 -243v-77l5 -431q0 -7 -5.5 -12.5t-13.5 -5.5h-278q-8 0 -13.5 5.5t-5.5 12.5l4 488v530q0 8 5.5 13.5t13.5 5.5h260
q18 0 18 -19l-6 -114q56 72 144.5 114.5t195.5 42.5q169 0 269 -108.5t100 -300.5v-709q0 -87 -29 -152.5t-78.5 -103t-109.5 -56t-129 -18.5z" />
    <glyph glyph-name="Omacron" unicode="&#x14c;" 
d="M1067 1751q7 0 12.5 -5.5t5.5 -12.5v-168q0 -8 -5.5 -13.5t-12.5 -5.5h-633q-7 0 -12.5 5.5t-5.5 13.5v168q0 7 5 12.5t13 5.5h633zM750 -31q-216 0 -381 94.5t-253.5 263t-88.5 386.5q0 343 196.5 547t526.5 204q329 0 527 -203t198 -548q0 -217 -89 -386t-254.5 -263.5
t-381.5 -94.5zM752 209q192 0 296.5 133.5t104.5 370.5q0 238 -104.5 375t-298.5 137t-298 -135t-104 -377q0 -235 106 -369.5t298 -134.5z" />
    <glyph glyph-name="omacron" unicode="&#x14d;" horiz-adv-x="1132" 
d="M883 1372q7 0 12.5 -5t5.5 -13v-168q0 -8 -5.5 -13.5t-12.5 -5.5h-633q-8 0 -13.5 5.5t-5.5 13.5v168q0 7 5.5 12.5t13.5 5.5h633zM567 -27q-256 0 -399 148t-143 403t143.5 406t398.5 151t397 -148t142 -403q0 -256 -142 -406.5t-397 -150.5zM567 178q115 0 169.5 83
t54.5 263q0 353 -226 353q-117 -1 -172 -88.5t-55 -266.5q0 -177 56.5 -260.5t172.5 -83.5z" />
    <glyph glyph-name="Obreve" unicode="&#x14e;" 
d="M752 1536q-157 0 -256 91t-105 231q0 18 19 18h163q19 0 19 -18q6 -56 48 -89.5t112 -33.5q66 0 108.5 34t50.5 89q0 18 19 18h164q18 0 18 -16q-6 -141 -104 -232.5t-256 -91.5zM750 -31q-216 0 -381 94.5t-253.5 263t-88.5 386.5q0 343 196.5 547t526.5 204
q329 0 527 -203t198 -548q0 -217 -89 -386t-254.5 -263.5t-381.5 -94.5zM752 209q192 0 296.5 133.5t104.5 370.5q0 238 -104.5 375t-298.5 137t-298 -135t-104 -377q0 -235 106 -369.5t298 -134.5z" />
    <glyph glyph-name="obreve" unicode="&#x14f;" horiz-adv-x="1132" 
d="M567 1157q-157 0 -255.5 90.5t-104.5 231.5q0 18 18 18h164q19 0 19 -18q6 -56 47.5 -89.5t111.5 -33.5q66 0 109 34t51 89q0 18 18 18h164q19 0 19 -16q-6 -141 -104.5 -232.5t-256.5 -91.5zM567 -27q-256 0 -399 148t-143 403t143.5 406t398.5 151t397 -148t142 -403
q0 -256 -142 -406.5t-397 -150.5zM567 178q115 0 169.5 83t54.5 263q0 353 -226 353q-117 -1 -172 -88.5t-55 -266.5q0 -177 56.5 -260.5t172.5 -83.5z" />
    <glyph glyph-name="Ohungarumlaut" unicode="&#x150;" 
d="M702 1991q11 18 27 2l129 -125q12 -12 0 -25l-291 -301q-13 -13 -26 0l-76 64q-13 13 -4 26zM1071 1978q11 18 27 2l127 -122q13 -14 2 -25l-291 -301q-14 -14 -27 -2l-75 63q-14 14 -5 27zM750 -31q-216 0 -381 94.5t-253.5 263t-88.5 386.5q0 343 196.5 547t526.5 204
q329 0 527 -203t198 -548q0 -217 -89 -386t-254.5 -263.5t-381.5 -94.5zM752 209q192 0 296.5 133.5t104.5 370.5q0 238 -104.5 375t-298.5 137t-298 -135t-104 -377q0 -235 106 -369.5t298 -134.5z" />
    <glyph glyph-name="ohungarumlaut" unicode="&#x151;" horiz-adv-x="1132" 
d="M518 1612q11 18 27 2l129 -125q12 -13 0 -25l-291 -301q-13 -13 -27 0l-75 64q-14 14 -5 26zM887 1599q11 18 26 3l127 -123q14 -13 2 -25l-290 -301q-14 -15 -27 -2l-76 63q-14 14 -4 27zM567 -27q-256 0 -399 148t-143 403t143.5 406t398.5 151t397 -148t142 -403
q0 -256 -142 -406.5t-397 -150.5zM567 178q115 0 169.5 83t54.5 263q0 353 -226 353q-117 -1 -172 -88.5t-55 -266.5q0 -177 56.5 -260.5t172.5 -83.5z" />
    <glyph glyph-name="OE" unicode="&#x152;" horiz-adv-x="2035" 
d="M1307 641l4 -391v-19h686q7 0 12.5 -5.5t5.5 -12.5v-195q0 -8 -5.5 -13t-12.5 -5h-1215q-124 0 -233.5 24.5t-206 78.5t-166 135t-109.5 201t-40 268t39.5 269.5t109 205.5t165.5 141.5t207.5 84t237.5 26.5h1194q8 0 13.5 -6t5.5 -13v-194q0 -7 -5.5 -13t-13.5 -6h-669
v-26l-4 -304h614q7 0 12.5 -5t5.5 -13v-195q0 -7 -5.5 -12.5t-12.5 -5.5h-614zM766 231h231l4 246l3 240l-3 252l-4 233h-223q-92 0 -168.5 -29.5t-134.5 -88.5t-90.5 -155t-32.5 -220t32.5 -217.5t90.5 -149.5t132 -83.5t163 -27.5z" />
    <glyph glyph-name="oe" unicode="&#x153;" horiz-adv-x="1902" 
d="M1346 178q166 0 204 162q6 16 21 16h258q21 0 18 -18q-21 -154 -151 -259.5t-334 -105.5q-276 0 -410 203q-132 -203 -405 -203q-247 0 -384.5 148t-137.5 403t138 406t384 151q275 0 407 -202q63 97 166 149.5t236 52.5q247 0 383 -159t141 -439q0 -18 -18 -18h-754
q9 -148 68 -217.5t170 -69.5zM1337 879q-183 0 -221 -220h432q-10 94 -63 157t-148 63zM567 178q115 0 169.5 83t54.5 263q0 353 -226 353q-117 -1 -172 -88.5t-55 -266.5q0 -177 56.5 -260.5t172.5 -83.5z" />
    <glyph glyph-name="Racute" unicode="&#x154;" horiz-adv-x="1259" 
d="M864 1872q18 9 25 -10l59 -193q3 -7 -0.5 -13.5t-11.5 -8.5l-504 -134q-16 -5 -22 13l-45 110q-6 19 10 25zM903 565l352 -542q6 -9 2.5 -16t-14.5 -7h-321q-17 0 -23 12l-184 307l-142 213h-204l6 -514q0 -7 -5.5 -12.5t-13.5 -5.5h-280q-8 0 -13.5 5.5t-5.5 12.5l9 699
l-9 698q0 7 5.5 13t13.5 6h581q272 0 419 -114.5t147 -336.5q0 -157 -83 -264.5t-237 -153.5zM670 1206h-297l-6 -446h311q107 0 175.5 53.5t68.5 163.5q0 115 -65 172t-187 57z" />
    <glyph glyph-name="racute" unicode="&#x155;" horiz-adv-x="794" 
d="M668 1493q17 8 24 -10l60 -193q3 -7 -1 -13.5t-12 -8.5l-503 -133q-17 -6 -23 12l-45 110q-6 19 10 25zM354 469v-451q0 -8 -5 -13t-13 -5h-270q-8 0 -13.5 5.5t-5.5 12.5l8 510l-8 508q0 8 5.5 13.5t13.5 5.5h270q18 0 18 -19l-8 -159q60 91 159 138.5t218 47.5
q21 0 49 -4q16 -3 16 -21v-190q0 -19 -18 -19q-12 2 -39 2q-170 0 -274 -93.5t-103 -268.5z" />
    <glyph glyph-name="uni0156" unicode="&#x156;" horiz-adv-x="1259" 
d="M903 565l352 -542q6 -9 2.5 -16t-14.5 -7h-321q-17 0 -23 12l-184 307l-142 213h-204l6 -514q0 -7 -5.5 -12.5t-13.5 -5.5h-280q-8 0 -13.5 5.5t-5.5 12.5l9 699l-9 698q0 7 5.5 13t13.5 6h581q272 0 419 -114.5t147 -336.5q0 -157 -83 -264.5t-237 -153.5zM670 1206
h-297l-6 -446h311q107 0 175.5 53.5t68.5 163.5q0 115 -65 172t-187 57zM760 -295q0 -10 -6 -22l-117 -183q-6 -12 -23 -12h-116q-20 0 -17 20l45 183v211q0 7 5.5 12.5t13.5 5.5h196q8 0 13.5 -5.5t5.5 -12.5v-197z" />
    <glyph glyph-name="uni0157" unicode="&#x157;" horiz-adv-x="794" 
d="M354 469v-451q0 -8 -5 -13t-13 -5h-270q-8 0 -13.5 5.5t-5.5 12.5l8 510l-8 508q0 8 5.5 13.5t13.5 5.5h270q18 0 18 -19l-8 -159q60 91 159 138.5t218 47.5q21 0 49 -4q16 -3 16 -21v-190q0 -19 -18 -19q-12 2 -39 2q-170 0 -274 -93.5t-103 -268.5zM317 -295
q0 -10 -6 -22l-116 -183q-6 -12 -23 -12h-117q-19 0 -16 20l45 183v211q0 8 5 13t13 5h197q7 0 12.5 -5t5.5 -13v-197z" />
    <glyph glyph-name="Rcaron" unicode="&#x158;" horiz-adv-x="1259" 
d="M686 1538q-12 -8 -22 -8h-99q-10 0 -22 8l-295 205q-14 11 -8 26l47 113q8 20 24 10l303 -149l304 149q16 10 24 -10l47 -113q6 -15 -8 -26zM903 565l352 -542q6 -9 2.5 -16t-14.5 -7h-321q-17 0 -23 12l-184 307l-142 213h-204l6 -514q0 -7 -5.5 -12.5t-13.5 -5.5h-280
q-8 0 -13.5 5.5t-5.5 12.5l9 699l-9 698q0 7 5.5 13t13.5 6h581q272 0 419 -114.5t147 -336.5q0 -157 -83 -264.5t-237 -153.5zM670 1206h-297l-6 -446h311q107 0 175.5 53.5t68.5 163.5q0 115 -65 172t-187 57z" />
    <glyph glyph-name="rcaron" unicode="&#x159;" horiz-adv-x="794" 
d="M487 1159q-12 -8 -22 -8h-98q-11 0 -23 8l-295 205q-14 11 -8 27l47 112q3 8 10 11t15 -1l303 -149l303 149q16 10 24 -10l48 -112q6 -16 -9 -27zM354 469v-451q0 -8 -5 -13t-13 -5h-270q-8 0 -13.5 5.5t-5.5 12.5l8 510l-8 508q0 8 5.5 13.5t13.5 5.5h270q18 0 18 -19
l-8 -159q60 91 159 138.5t218 47.5q21 0 49 -4q16 -3 16 -21v-190q0 -19 -18 -19q-12 2 -39 2q-170 0 -274 -93.5t-103 -268.5z" />
    <glyph glyph-name="Sacute" unicode="&#x15a;" horiz-adv-x="1292" 
d="M889 1872q17 8 24 -10l60 -193q3 -7 -0.5 -13.5t-11.5 -8.5l-504 -134q-17 -6 -23 13l-45 110q-6 19 10 25zM668 -33q-192 0 -333 52.5t-225.5 166t-91.5 279.5q0 18 19 18h289q17 0 20 -18q7 -63 26 -109t56 -82.5t98.5 -54.5t147.5 -18q143 0 216 45.5t73 144.5
q0 52 -31.5 88.5t-84.5 57.5t-121.5 36.5t-144.5 29.5t-152 31.5t-144.5 48t-121.5 73t-84.5 112t-31.5 160.5q0 203 151.5 319.5t424.5 116.5q261 0 419 -106t191 -328q1 -9 -4.5 -14.5t-14.5 -5.5h-288q-18 0 -21 18q-10 97 -87 149t-208 52q-116 0 -185 -42t-69 -128
q0 -49 31.5 -83t84.5 -54t122 -34.5t145.5 -28.5t153 -31.5t145.5 -48t122 -73t84.5 -112t31.5 -160.5q0 -225 -161.5 -346t-446.5 -121z" />
    <glyph glyph-name="sacute" unicode="&#x15b;" horiz-adv-x="1054" 
d="M778 1493q18 9 25 -10l59 -193q3 -7 -0.5 -13.5t-11.5 -8.5l-504 -133q-16 -5 -22 12l-45 110q-6 19 10 25zM537 -25q-234 0 -370.5 93t-143.5 268q0 18 18 18h262q19 0 19 -18q11 -170 229 -170q90 0 138 33.5t48 95.5q0 32 -23.5 53.5t-63.5 33.5t-92 20t-109 17
t-114 21t-109 35t-92 56t-63.5 87t-23.5 125q0 162 122 249t339 87q212 0 340 -84.5t141 -246.5q3 -19 -16 -19h-252q-16 0 -19 16q-26 148 -198 148q-164 0 -164 -127q0 -32 23.5 -53t63.5 -32.5t92 -19t109 -16t114 -19.5t109 -34t92 -56t63.5 -87.5t23.5 -126.5
q0 -162 -137 -254.5t-356 -92.5z" />
    <glyph glyph-name="Scircumflex" unicode="&#x15c;" horiz-adv-x="1292" 
d="M637 1663l-303 -150q-8 -4 -15 -0.5t-10 11.5l-47 114q-6 15 8 25l295 209q12 8 23 8h102q11 0 23 -8l295 -209q14 -10 8 -25l-47 -114q-3 -8 -10 -11.5t-15 0.5zM668 -33q-192 0 -333 52.5t-225.5 166t-91.5 279.5q0 18 19 18h289q17 0 20 -18q7 -63 26 -109t56 -82.5
t98.5 -54.5t147.5 -18q143 0 216 45.5t73 144.5q0 52 -31.5 88.5t-84.5 57.5t-121.5 36.5t-144.5 29.5t-152 31.5t-144.5 48t-121.5 73t-84.5 112t-31.5 160.5q0 203 151.5 319.5t424.5 116.5q261 0 419 -106t191 -328q1 -9 -4.5 -14.5t-14.5 -5.5h-288q-18 0 -21 18
q-10 97 -87 149t-208 52q-116 0 -185 -42t-69 -128q0 -49 31.5 -83t84.5 -54t122 -34.5t145.5 -28.5t153 -31.5t145.5 -48t122 -73t84.5 -112t31.5 -160.5q0 -225 -161.5 -346t-446.5 -121z" />
    <glyph glyph-name="scircumflex" unicode="&#x15d;" horiz-adv-x="1054" 
d="M524 1284l-303 -149q-16 -10 -24 10l-47 115q-6 14 8 24l295 209q12 8 22 8h103q10 0 22 -8l295 -209q14 -10 8 -24l-47 -115q-3 -8 -10 -11t-15 1zM537 -25q-234 0 -370.5 93t-143.5 268q0 18 18 18h262q19 0 19 -18q11 -170 229 -170q90 0 138 33.5t48 95.5
q0 32 -23.5 53.5t-63.5 33.5t-92 20t-109 17t-114 21t-109 35t-92 56t-63.5 87t-23.5 125q0 162 122 249t339 87q212 0 340 -84.5t141 -246.5q3 -19 -16 -19h-252q-16 0 -19 16q-26 148 -198 148q-164 0 -164 -127q0 -32 23.5 -53t63.5 -32.5t92 -19t109 -16t114 -19.5
t109 -34t92 -56t63.5 -87.5t23.5 -126.5q0 -162 -137 -254.5t-356 -92.5z" />
    <glyph glyph-name="Scedilla" unicode="&#x15e;" horiz-adv-x="1292" 
d="M1276 434q0 -208 -140 -328t-391 -137l-61 -319q-2 -8 -8.5 -12t-13.5 -3l-248 46q-19 3 -13 22l117 274q-228 30 -359.5 152.5t-140.5 335.5q0 18 19 18h289q17 0 20 -18q7 -63 26 -109t56 -82.5t98.5 -54.5t147.5 -18q143 0 216 45.5t73 144.5q0 52 -31.5 88.5
t-84.5 57.5t-121.5 36.5t-144.5 29.5t-152 31.5t-144.5 48t-121.5 73t-84.5 112t-31.5 160.5q0 203 151.5 319.5t424.5 116.5q261 0 419 -106t191 -328q1 -9 -4.5 -14.5t-14.5 -5.5h-288q-18 0 -21 18q-10 97 -87 149t-208 52q-116 0 -185 -42t-69 -128q0 -49 31.5 -83
t84.5 -54t122 -34.5t145.5 -28.5t153 -31.5t145.5 -48t122 -73t84.5 -112t31.5 -160.5z" />
    <glyph glyph-name="scedilla" unicode="&#x15f;" horiz-adv-x="1054" 
d="M1030 322q0 -143 -108 -232t-289 -108l-64 -332q-2 -8 -8.5 -12t-13.5 -3l-248 46q-18 3 -12 22l119 281q-177 25 -277 114.5t-106 237.5q0 18 18 18h262q19 0 19 -18q11 -170 229 -170q90 0 138 33.5t48 95.5q0 32 -23.5 53.5t-63.5 33.5t-92 20t-109 17t-114 21
t-109 35t-92 56t-63.5 87t-23.5 125q0 162 122 249t339 87q212 0 340 -84.5t141 -246.5q3 -19 -16 -19h-252q-16 0 -19 16q-26 148 -198 148q-164 0 -164 -127q0 -32 23.5 -53t63.5 -32.5t92 -19t109 -16t114 -19.5t109 -34t92 -56t63.5 -87.5t23.5 -126.5z" />
    <glyph glyph-name="Scaron" unicode="&#x160;" horiz-adv-x="1292" 
d="M711 1538q-12 -8 -23 -8h-98q-11 0 -23 8l-295 205q-14 11 -8 26l47 113q3 8 10 11t15 -1l303 -149l303 149q8 4 15 1t10 -11l47 -113q6 -15 -8 -26zM668 -33q-192 0 -333 52.5t-225.5 166t-91.5 279.5q0 18 19 18h289q17 0 20 -18q7 -63 26 -109t56 -82.5t98.5 -54.5
t147.5 -18q143 0 216 45.5t73 144.5q0 52 -31.5 88.5t-84.5 57.5t-121.5 36.5t-144.5 29.5t-152 31.5t-144.5 48t-121.5 73t-84.5 112t-31.5 160.5q0 203 151.5 319.5t424.5 116.5q261 0 419 -106t191 -328q1 -9 -4.5 -14.5t-14.5 -5.5h-288q-18 0 -21 18q-10 97 -87 149
t-208 52q-116 0 -185 -42t-69 -128q0 -49 31.5 -83t84.5 -54t122 -34.5t145.5 -28.5t153 -31.5t145.5 -48t122 -73t84.5 -112t31.5 -160.5q0 -225 -161.5 -346t-446.5 -121z" />
    <glyph glyph-name="scaron" unicode="&#x161;" horiz-adv-x="1054" 
d="M598 1159q-12 -8 -23 -8h-98q-10 0 -22 8l-295 205q-14 11 -8 27l47 112q8 20 24 10l303 -149l303 149q8 4 15 1t10 -11l47 -112q6 -16 -8 -27zM537 -25q-234 0 -370.5 93t-143.5 268q0 18 18 18h262q19 0 19 -18q11 -170 229 -170q90 0 138 33.5t48 95.5
q0 32 -23.5 53.5t-63.5 33.5t-92 20t-109 17t-114 21t-109 35t-92 56t-63.5 87t-23.5 125q0 162 122 249t339 87q212 0 340 -84.5t141 -246.5q3 -19 -16 -19h-252q-16 0 -19 16q-26 148 -198 148q-164 0 -164 -127q0 -32 23.5 -53t63.5 -32.5t92 -19t109 -16t114 -19.5
t109 -34t92 -56t63.5 -87.5t23.5 -126.5q0 -162 -137 -254.5t-356 -92.5z" />
    <glyph glyph-name="uni0162" unicode="&#x162;" horiz-adv-x="1165" 
d="M1137 1434q7 0 12.5 -5.5t5.5 -13.5v-194q0 -8 -5.5 -13.5t-12.5 -5.5h-396l-8 -485l12 -699q0 -8 -5.5 -13t-12.5 -5h-33l-67 -350q-1 -7 -8 -12t-15 -3l-248 46q-18 3 -12 22l125 297h-31q-8 0 -13 5t-5 13l12 699l-8 485h-397q-7 0 -13 6t-6 13v194q0 7 6 13t13 6
h1110z" />
    <glyph glyph-name="uni0163" unicode="&#x163;" horiz-adv-x="724" 
d="M457 1055h233q8 0 13.5 -5.5t5.5 -13.5v-180q0 -7 -5.5 -12.5t-13.5 -5.5h-235l2 -521q0 -64 28.5 -91t83.5 -27t117 16q9 3 15 -2t6 -14v-162q0 -18 -15 -21q-86 -30 -166 -36l-63 -330q-1 -7 -8 -12t-15 -3l-247 46q-19 3 -13 22l133 315q-163 82 -163 291l2 529h-119
q-8 0 -13.5 5.5t-5.5 12.5v180q0 8 6 13.5t13 5.5h119l-2 245q0 8 5.5 13.5t12.5 5.5h272q8 0 13.5 -5.5t5.5 -13.5z" />
    <glyph glyph-name="Tcaron" unicode="&#x164;" horiz-adv-x="1165" 
d="M653 1538q-12 -8 -22 -8h-99q-10 0 -22 8l-295 205q-14 11 -8 26l47 113q3 8 10 11t15 -1l303 -149l303 149q16 10 24 -10l47 -113q6 -15 -8 -26zM733 717l12 -699q0 -8 -5.5 -13t-12.5 -5h-289q-8 0 -13 5t-5 13l12 699l-8 485h-397q-7 0 -13 6t-6 13v194q0 7 6 13t13 6
h1110q7 0 12.5 -5.5t5.5 -13.5v-194q0 -8 -5.5 -13.5t-12.5 -5.5h-396z" />
    <glyph glyph-name="tcaron" unicode="&#x165;" horiz-adv-x="724" 
d="M561 1571q3 16 19 16h213q19 0 16 -20l-107 -445q-3 -16 -20 -16h-158q-21 0 -18 20zM440 1319q8 0 13.5 -5.5t5.5 -13.5l-2 -245h233q8 0 13.5 -5.5t5.5 -13.5v-180q0 -7 -5.5 -12.5t-13.5 -5.5h-235l2 -521q0 -64 28.5 -91t83.5 -27t117 16q9 3 15 -2t6 -14v-162
q0 -17 -15 -23q-115 -34 -194 -34q-70 0 -130 18t-110 55.5t-79 103t-29 152.5l2 529h-119q-8 0 -13.5 5.5t-5.5 12.5v180q0 8 6 13.5t13 5.5h119l-2 245q0 8 5.5 13.5t12.5 5.5h272z" />
    <glyph glyph-name="Tbar" unicode="&#x166;" horiz-adv-x="1165" 
d="M1137 1434q7 0 12.5 -5.5t5.5 -13.5v-194q0 -8 -5.5 -13.5t-12.5 -5.5h-396l-6 -411h228q7 0 12.5 -5.5t5.5 -13.5v-194q0 -8 -5.5 -13.5t-12.5 -5.5h-228l10 -541q0 -8 -5.5 -13t-12.5 -5h-289q-8 0 -13 5t-5 13l10 541h-229q-7 0 -13 5.5t-6 13.5v194q0 8 6 13.5
t13 5.5h229l-6 411h-397q-7 0 -13 6t-6 13v194q0 7 6 13t13 6h1110z" />
    <glyph glyph-name="tbar" unicode="&#x167;" horiz-adv-x="727" 
d="M692 1055q8 0 13.5 -5.5t5.5 -13.5v-180q0 -7 -5.5 -12.5t-13.5 -5.5h-235v-172h233q8 0 13.5 -6t5.5 -13v-180q0 -7 -5.5 -12.5t-13.5 -5.5h-231v-132q0 -64 28.5 -91t83.5 -27t117 16q9 3 15 -2t6 -14v-162q0 -17 -15 -23q-115 -34 -194 -34q-70 0 -130 18t-110 55.5
t-79 103t-29 152.5v140h-119q-8 0 -13.5 5.5t-5.5 12.5v180q0 7 6 13t13 6h121v172h-119q-8 0 -13.5 5.5t-5.5 12.5v180q0 8 6 13.5t13 5.5h119l-2 245q0 8 5.5 13.5t12.5 5.5h272q8 0 13.5 -5.5t5.5 -13.5l-2 -245h233z" />
    <glyph glyph-name="Utilde" unicode="&#x168;" horiz-adv-x="1269" 
d="M776 1546q-43 0 -81 17t-60.5 37.5t-49 37.5t-48.5 17q-55 0 -58 -88q0 -19 -18 -19h-119q-18 0 -18 19q5 120 56.5 191t151.5 71q40 0 77.5 -17t61 -37.5t48.5 -37.5t43 -17q58 0 61 88q0 19 19 19h119q18 0 18 -23q-5 -123 -55.5 -190.5t-147.5 -67.5zM641 -31
q-285 0 -434.5 144.5t-147.5 418.5v390l-6 493q0 7 5.5 13t13.5 6h286q8 0 13.5 -6t5.5 -13l-6 -485l2 -395q0 -318 268 -318q289 0 289 318v389l-6 491q0 8 5.5 13.5t12.5 5.5h256q8 0 13.5 -6t5.5 -13l-5 -493v-390q0 -276 -143.5 -419.5t-427.5 -143.5z" />
    <glyph glyph-name="utilde" unicode="&#x169;" horiz-adv-x="1093" 
d="M666 1167q-43 0 -81.5 17t-61 37.5t-49 37.5t-48.5 17q-54 0 -57 -88q0 -19 -19 -19h-119q-18 0 -18 19q5 120 57 191t152 71q40 0 77.5 -17t60.5 -37.5t48 -37.5t43 -17q59 0 62 89q0 18 18 18h119q18 0 18 -23q-5 -124 -55 -191t-147 -67zM412 -25q-169 0 -269 109
t-100 301v221l-4 430q0 8 5.5 13.5t12.5 5.5h275q7 0 12.5 -5.5t5.5 -13.5l-6 -430v-217q0 -85 46 -136.5t116 -51.5q92 0 160.5 84.5t68.5 242.5v78l-4 430q0 8 5.5 13.5t13.5 5.5h278q8 0 13.5 -5.5t5.5 -13.5l-7 -487l2 -531q0 -8 -5 -13t-13 -5h-260q-19 0 -19 18l7 115
q-56 -72 -144.5 -115t-195.5 -43z" />
    <glyph glyph-name="Umacron" unicode="&#x16a;" horiz-adv-x="1269" 
d="M967 1751q7 0 12.5 -5.5t5.5 -12.5v-168q0 -8 -5.5 -13.5t-12.5 -5.5h-633q-8 0 -13.5 6t-5.5 13v168q0 7 5.5 12.5t13.5 5.5h633zM641 -31q-285 0 -434.5 144.5t-147.5 418.5v390l-6 493q0 7 5.5 13t13.5 6h286q8 0 13.5 -6t5.5 -13l-6 -485l2 -395q0 -318 268 -318
q289 0 289 318v389l-6 491q0 8 5.5 13.5t12.5 5.5h256q8 0 13.5 -6t5.5 -13l-5 -493v-390q0 -276 -143.5 -419.5t-427.5 -143.5z" />
    <glyph glyph-name="umacron" unicode="&#x16b;" horiz-adv-x="1093" 
d="M856 1372q8 0 13 -5t5 -13v-168q0 -8 -5.5 -13.5t-12.5 -5.5h-633q-7 0 -12.5 5.5t-5.5 13.5v168q0 8 5.5 13t12.5 5h633zM412 -25q-169 0 -269 109t-100 301v221l-4 430q0 8 5.5 13.5t12.5 5.5h275q7 0 12.5 -5.5t5.5 -13.5l-6 -430v-217q0 -85 46 -136.5t116 -51.5
q92 0 160.5 84.5t68.5 242.5v78l-4 430q0 8 5.5 13.5t13.5 5.5h278q8 0 13.5 -5.5t5.5 -13.5l-7 -487l2 -531q0 -8 -5 -13t-13 -5h-260q-19 0 -19 18l7 115q-56 -72 -144.5 -115t-195.5 -43z" />
    <glyph glyph-name="Ubreve" unicode="&#x16c;" horiz-adv-x="1269" 
d="M651 1536q-157 0 -255.5 90.5t-104.5 231.5q0 18 18 18h164q19 0 19 -18q6 -56 47.5 -89.5t111.5 -33.5q66 0 109 34t51 89q0 18 18 18h164q19 0 19 -16q-6 -141 -104.5 -232.5t-256.5 -91.5zM641 -31q-285 0 -434.5 144.5t-147.5 418.5v390l-6 493q0 7 5.5 13t13.5 6
h286q8 0 13.5 -6t5.5 -13l-6 -485l2 -395q0 -318 268 -318q289 0 289 318v389l-6 491q0 8 5.5 13.5t12.5 5.5h256q8 0 13.5 -6t5.5 -13l-5 -493v-390q0 -276 -143.5 -419.5t-427.5 -143.5z" />
    <glyph glyph-name="ubreve" unicode="&#x16d;" horiz-adv-x="1093" 
d="M541 1157q-157 0 -256 91t-105 231q0 18 19 18h163q19 0 19 -18q6 -56 48 -89.5t112 -33.5q66 0 108.5 34t50.5 89q0 18 19 18h164q18 0 18 -16q-6 -141 -104 -232.5t-256 -91.5zM412 -25q-169 0 -269 109t-100 301v221l-4 430q0 8 5.5 13.5t12.5 5.5h275q7 0 12.5 -5.5
t5.5 -13.5l-6 -430v-217q0 -85 46 -136.5t116 -51.5q92 0 160.5 84.5t68.5 242.5v78l-4 430q0 8 5.5 13.5t13.5 5.5h278q8 0 13.5 -5.5t5.5 -13.5l-7 -487l2 -531q0 -8 -5 -13t-13 -5h-260q-19 0 -19 18l7 115q-56 -72 -144.5 -115t-195.5 -43z" />
    <glyph glyph-name="Uring" unicode="&#x16e;" horiz-adv-x="1269" 
d="M651 1530q-114 0 -189 69.5t-75 174.5q0 104 75 173.5t189 69.5t189 -69.5t75 -173.5q0 -105 -75 -174.5t-189 -69.5zM651 1638q46 0 75.5 36t29.5 100q0 65 -29.5 100t-75.5 35q-47 0 -75.5 -34.5t-28.5 -100.5q0 -65 28.5 -100.5t75.5 -35.5zM641 -31
q-285 0 -434.5 144.5t-147.5 418.5v390l-6 493q0 7 5.5 13t13.5 6h286q8 0 13.5 -6t5.5 -13l-6 -485l2 -395q0 -318 268 -318q289 0 289 318v389l-6 491q0 8 5.5 13.5t12.5 5.5h256q8 0 13.5 -6t5.5 -13l-5 -493v-390q0 -276 -143.5 -419.5t-427.5 -143.5z" />
    <glyph glyph-name="uring" unicode="&#x16f;" horiz-adv-x="1093" 
d="M541 1151q-114 0 -189.5 70t-75.5 174t75.5 173.5t189.5 69.5t189 -69.5t75 -173.5q0 -105 -75 -174.5t-189 -69.5zM541 1260q46 0 75 35.5t29 99.5q0 65 -29 100t-75 35q-47 0 -76 -35t-29 -100q0 -64 29 -99.5t76 -35.5zM412 -25q-169 0 -269 109t-100 301v221l-4 430
q0 8 5.5 13.5t12.5 5.5h275q7 0 12.5 -5.5t5.5 -13.5l-6 -430v-217q0 -85 46 -136.5t116 -51.5q92 0 160.5 84.5t68.5 242.5v78l-4 430q0 8 5.5 13.5t13.5 5.5h278q8 0 13.5 -5.5t5.5 -13.5l-7 -487l2 -531q0 -8 -5 -13t-13 -5h-260q-19 0 -19 18l7 115q-56 -72 -144.5 -115
t-195.5 -43z" />
    <glyph glyph-name="Uhungarumlaut" unicode="&#x170;" horiz-adv-x="1269" 
d="M602 1991q11 18 27 2l129 -125q12 -12 0 -25l-291 -301q-13 -14 -27 0l-75 64q-14 14 -5 26zM971 1978q11 18 26 2l127 -122q14 -14 2 -25l-290 -301q-14 -14 -27 -2l-76 63q-14 14 -4 27zM641 -31q-285 0 -434.5 144.5t-147.5 418.5v390l-6 493q0 7 5.5 13t13.5 6h286
q8 0 13.5 -6t5.5 -13l-6 -485l2 -395q0 -318 268 -318q289 0 289 318v389l-6 491q0 8 5.5 13.5t12.5 5.5h256q8 0 13.5 -6t5.5 -13l-5 -493v-390q0 -276 -143.5 -419.5t-427.5 -143.5z" />
    <glyph glyph-name="uhungarumlaut" unicode="&#x171;" horiz-adv-x="1093" 
d="M492 1612q10 17 26 2l129 -125q13 -13 0 -25l-291 -301q-13 -13 -26 0l-76 64q-13 13 -4 26zM860 1599q11 19 27 3l127 -123q14 -13 2 -25l-291 -301q-15 -15 -27 -2l-75 63q-14 14 -5 27zM412 -25q-169 0 -269 109t-100 301v221l-4 430q0 8 5.5 13.5t12.5 5.5h275
q7 0 12.5 -5.5t5.5 -13.5l-6 -430v-217q0 -85 46 -136.5t116 -51.5q92 0 160.5 84.5t68.5 242.5v78l-4 430q0 8 5.5 13.5t13.5 5.5h278q8 0 13.5 -5.5t5.5 -13.5l-7 -487l2 -531q0 -8 -5 -13t-13 -5h-260q-19 0 -19 18l7 115q-56 -72 -144.5 -115t-195.5 -43z" />
    <glyph glyph-name="Uogonek" unicode="&#x172;" horiz-adv-x="1269" 
d="M930 924l-6 491q0 8 5.5 13.5t12.5 5.5h256q8 0 13.5 -6t5.5 -13l-5 -493v-390q0 -258 -126.5 -401t-378.5 -160q-50 -58 -50 -118q0 -82 107 -82h96q8 0 13.5 -5.5t5.5 -13.5v-164q0 -7 -5.5 -12.5t-13.5 -5.5h-125q-140 0 -225.5 61.5t-85.5 165.5q0 106 84 180
q-221 32 -336 174t-113 381v390l-6 493q0 7 5.5 13t13.5 6h286q8 0 13.5 -6t5.5 -13l-6 -485l2 -395q0 -318 268 -318q289 0 289 318v389z" />
    <glyph glyph-name="uogonek" unicode="&#x173;" horiz-adv-x="1093" 
d="M936 -229h96q8 0 13.5 -5.5t5.5 -13.5v-164q0 -7 -5.5 -12.5t-13.5 -5.5h-125q-140 0 -225.5 61.5t-85.5 165.5q0 147 152 230l4 106q-56 -72 -144.5 -115t-195.5 -43q-169 0 -269 109t-100 301v221l-4 430q0 8 5.5 13.5t12.5 5.5h275q7 0 12.5 -5.5t5.5 -13.5l-6 -430
v-217q0 -85 46 -136.5t116 -51.5q92 0 160.5 84.5t68.5 242.5v78l-4 430q0 8 5.5 13.5t13.5 5.5h278q8 0 13.5 -5.5t5.5 -13.5l-7 -487l2 -531q0 -8 -5 -13t-13 -5h-117q-26 -19 -52 -62t-26 -85q0 -82 107 -82z" />
    <glyph glyph-name="Wcircumflex" unicode="&#x174;" horiz-adv-x="1871" 
d="M934 1663l-303 -150q-8 -4 -15 -0.5t-10 11.5l-47 114q-6 15 8 25l295 209q12 8 23 8h102q11 0 23 -8l295 -209q14 -10 8 -25l-47 -114q-3 -8 -10 -11.5t-15 0.5zM721 16q-3 -16 -21 -16h-354q-17 0 -20 16l-328 1397q-4 21 16 21h281q17 0 20 -17l226 -1087l215 1087
q3 17 20 17h330q17 0 20 -17l228 -1108l223 1108q3 17 20 17h261q20 0 16 -21l-336 -1397q-3 -16 -20 -16h-344q-18 0 -21 16l-225 990z" />
    <glyph glyph-name="wcircumflex" unicode="&#x175;" horiz-adv-x="1488" 
d="M743 1284l-303 -149q-16 -10 -24 10l-47 115q-6 14 8 24l295 209q12 8 22 8h103q10 0 22 -8l295 -209q14 -10 8 -24l-47 -115q-8 -20 -24 -10zM590 16q-3 -16 -21 -16h-327q-18 0 -21 16l-225 1018q-3 21 16 21h273q15 0 18 -17l119 -780l145 780q3 17 21 17h338
q15 0 18 -17l141 -764l125 764q3 17 19 17h248q19 0 16 -21l-223 -1018q-3 -16 -21 -16h-329q-18 0 -21 16l-166 777z" />
    <glyph glyph-name="Ycircumflex" unicode="&#x176;" horiz-adv-x="1222" 
d="M621 1663l-304 -150q-16 -9 -24 11l-47 114q-6 15 8 25l295 209q12 8 22 8h103q10 0 22 -8l295 -209q14 -10 8 -25l-47 -114q-8 -20 -24 -11zM471 0q-7 0 -12.5 5t-5.5 13l6 453l-482 940q-4 10 0 16.5t15 6.5h317q13 0 21 -15l293 -661l299 661q8 15 20 15h289
q11 0 14.5 -6t-0.5 -17l-481 -940l6 -453q0 -8 -5 -13t-13 -5h-281z" />
    <glyph glyph-name="ycircumflex" unicode="&#x177;" horiz-adv-x="1034" 
d="M532 1284l-303 -149q-16 -10 -24 10l-47 115q-6 14 8 24l295 209q12 8 22 8h103q10 0 22 -8l295 -209q14 -10 8 -24l-47 -115q-8 -20 -24 -10zM309 -348q-20 0 -14 20l108 318l-421 1044q-3 9 1 15t13 6h307q17 0 23 -15l229 -661l190 659q3 17 21 17h272q21 0 15 -21
l-467 -1368q-6 -14 -23 -14h-254z" />
    <glyph glyph-name="Ydieresis" unicode="&#x178;" horiz-adv-x="1222" 
d="M514 1812q8 0 13 -5t5 -13v-240q0 -8 -5 -13t-13 -5h-213q-7 0 -12.5 5t-5.5 13v240q0 8 5.5 13t12.5 5h213zM944 1812q8 0 13.5 -5.5t5.5 -12.5v-240q0 -7 -5.5 -12.5t-13.5 -5.5h-213q-7 0 -12.5 5t-5.5 13v240q0 8 5.5 13t12.5 5h213zM471 0q-7 0 -12.5 5t-5.5 13
l6 453l-482 940q-4 10 0 16.5t15 6.5h317q13 0 21 -15l293 -661l299 661q8 15 20 15h289q11 0 14.5 -6t-0.5 -17l-481 -940l6 -453q0 -8 -5 -13t-13 -5h-281z" />
    <glyph glyph-name="Zacute" unicode="&#x179;" horiz-adv-x="1187" 
d="M870 1872q18 9 25 -10l59 -193q3 -7 -0.5 -13.5t-11.5 -8.5l-504 -134q-16 -5 -22 13l-45 110q-6 19 10 25zM1143 231q7 0 12.5 -5.5t5.5 -12.5v-195q0 -8 -5.5 -13t-12.5 -5h-1098q-7 0 -12.5 5t-5.5 13v224q0 14 8 22l751 938h-686q-7 0 -12.5 5.5t-5.5 13.5v194
q0 8 5.5 13.5t12.5 5.5h1041q7 0 12.5 -5.5t5.5 -13.5v-231q0 -15 -8 -23l-739 -930h731z" />
    <glyph glyph-name="zacute" unicode="&#x17a;" horiz-adv-x="958" 
d="M737 1493q17 9 25 -10l59 -193q3 -7 -0.5 -13.5t-11.5 -8.5l-504 -133q-16 -5 -22 12l-45 110q-6 19 10 25zM907 217q8 0 13.5 -5.5t5.5 -12.5v-181q0 -7 -5.5 -12.5t-13.5 -5.5h-854q-7 0 -12.5 5t-5.5 13v187q0 14 8 22l477 611h-424q-8 0 -13 5t-5 13v180
q0 8 5.5 13.5t12.5 5.5h781q7 0 12.5 -5.5t5.5 -13.5v-190q0 -15 -8 -23l-484 -606h504z" />
    <glyph glyph-name="Zdotaccent" unicode="&#x17b;" horiz-adv-x="1187" 
d="M758 1812q8 0 13 -5t5 -13v-240q0 -8 -5 -13t-13 -5h-275q-7 0 -12.5 5t-5.5 13v240q0 8 5.5 13t12.5 5h275zM1143 231q7 0 12.5 -5.5t5.5 -12.5v-195q0 -8 -5.5 -13t-12.5 -5h-1098q-7 0 -12.5 5t-5.5 13v224q0 14 8 22l751 938h-686q-7 0 -12.5 5.5t-5.5 13.5v194
q0 8 5.5 13.5t12.5 5.5h1041q7 0 12.5 -5.5t5.5 -13.5v-231q0 -15 -8 -23l-739 -930h731z" />
    <glyph glyph-name="zdotaccent" unicode="&#x17c;" horiz-adv-x="958" 
d="M625 1434q7 0 12.5 -5.5t5.5 -13.5v-239q0 -8 -5.5 -13.5t-12.5 -5.5h-275q-7 0 -12.5 5.5t-5.5 13.5v239q0 8 5.5 13.5t12.5 5.5h275zM907 217q8 0 13.5 -5.5t5.5 -12.5v-181q0 -7 -5.5 -12.5t-13.5 -5.5h-854q-7 0 -12.5 5t-5.5 13v187q0 14 8 22l477 611h-424
q-8 0 -13 5t-5 13v180q0 8 5.5 13.5t12.5 5.5h781q7 0 12.5 -5.5t5.5 -13.5v-190q0 -15 -8 -23l-484 -606h504z" />
    <glyph glyph-name="Zcaron" unicode="&#x17d;" horiz-adv-x="1187" 
d="M692 1538q-12 -8 -22 -8h-99q-10 0 -22 8l-295 205q-14 11 -8 26l47 113q8 20 24 10l304 -149l303 149q16 10 24 -10l47 -113q6 -15 -8 -26zM1143 231q7 0 12.5 -5.5t5.5 -12.5v-195q0 -8 -5.5 -13t-12.5 -5h-1098q-7 0 -12.5 5t-5.5 13v224q0 14 8 22l751 938h-686
q-7 0 -12.5 5.5t-5.5 13.5v194q0 8 5.5 13.5t12.5 5.5h1041q7 0 12.5 -5.5t5.5 -13.5v-231q0 -15 -8 -23l-739 -930h731z" />
    <glyph glyph-name="zcaron" unicode="&#x17e;" horiz-adv-x="958" 
d="M559 1159q-12 -8 -22 -8h-99q-10 0 -22 8l-295 205q-14 11 -8 27l47 112q8 20 24 10l303 -149l304 149q16 10 24 -10l47 -112q6 -16 -8 -27zM907 217q8 0 13.5 -5.5t5.5 -12.5v-181q0 -7 -5.5 -12.5t-13.5 -5.5h-854q-7 0 -12.5 5t-5.5 13v187q0 14 8 22l477 611h-424
q-8 0 -13 5t-5 13v180q0 8 5.5 13.5t12.5 5.5h781q7 0 12.5 -5.5t5.5 -13.5v-190q0 -15 -8 -23l-484 -606h504z" />
    <glyph glyph-name="florin" unicode="&#x192;" horiz-adv-x="827" 
d="M635 1235q-115 0 -115 -139v-41h234q7 0 12.5 -5.5t5.5 -13.5v-180q0 -8 -5 -13t-13 -5h-234v-877q0 -87 -28.5 -152.5t-78 -103t-109 -56t-128.5 -18.5q-71 0 -192 19q-17 3 -17 18v178q0 9 6 13.5t15 1.5q57 -11 116 -11q115 0 115 140v848h-141q-8 0 -13.5 5.5
t-5.5 12.5v180q0 8 5.5 13.5t13.5 5.5h141v69q0 87 28.5 152.5t78 103t109 56t128.5 18.5q78 0 193 -18q16 -3 16 -19v-178q0 -9 -3.5 -13t-10.5 -3q-46 12 -123 12z" />
    <glyph glyph-name="Ohorn" unicode="&#x1a0;" 
d="M1419 1612q15 -9 4 -27l-198 -276q120 -98 185 -250.5t65 -345.5q0 -217 -89 -386t-254.5 -263.5t-381.5 -94.5t-381 94.5t-253.5 263t-88.5 386.5q0 343 196.5 547t526.5 204q173 0 315 -59l149 297q3 8 10 10t15 -2zM752 209q192 0 296.5 133.5t104.5 370.5
q0 238 -104.5 375t-298.5 137t-298 -135t-104 -377q0 -235 106 -369.5t298 -134.5z" />
    <glyph glyph-name="ohorn" unicode="&#x1a1;" horiz-adv-x="1132" 
d="M1110 1233q16 -10 6 -27l-174 -252q164 -149 164 -424q0 -256 -142 -406.5t-397 -150.5q-256 0 -399 148t-143 403t143.5 406t398.5 151q117 0 209 -30l129 272q3 8 10 10t15 -2zM567 178q115 0 169.5 83t54.5 263q0 353 -226 353q-117 -1 -172 -88.5t-55 -266.5
q0 -177 56.5 -260.5t172.5 -83.5z" />
    <glyph glyph-name="Uhorn" unicode="&#x1af;" horiz-adv-x="1269" 
d="M1159 1702q3 8 10 10t15 -2l180 -98q16 -10 6 -27l-153 -221l-5 -442v-390q0 -276 -143.5 -419.5t-427.5 -143.5q-285 0 -434.5 144.5t-147.5 418.5v390l-6 493q0 7 5.5 13t13.5 6h286q8 0 13.5 -6t5.5 -13l-6 -485l2 -395q0 -318 268 -318q289 0 289 318v389l-6 491
q0 8 5.5 13.5t12.5 5.5h92z" />
    <glyph glyph-name="uhorn" unicode="&#x1b0;" horiz-adv-x="1093" 
d="M1206 1233q16 -10 6 -27l-168 -239l-4 -418l2 -531q0 -8 -5 -13t-13 -5h-260q-19 0 -19 18l7 115q-56 -72 -144.5 -115t-195.5 -43q-169 0 -269 109t-100 301v221l-4 430q0 8 5.5 13.5t12.5 5.5h275q7 0 12.5 -5.5t5.5 -13.5l-6 -430v-217q0 -85 46 -136.5t116 -51.5
q92 0 160.5 84.5t68.5 242.5v78l-4 430q0 8 5.5 13.5t13.5 5.5h127l124 268q3 8 10 10t15 -2z" />
    <glyph glyph-name="uni0218" unicode="&#x218;" horiz-adv-x="1292" 
d="M668 -33q-192 0 -333 52.5t-225.5 166t-91.5 279.5q0 18 19 18h289q17 0 20 -18q7 -63 26 -109t56 -82.5t98.5 -54.5t147.5 -18q143 0 216 45.5t73 144.5q0 52 -31.5 88.5t-84.5 57.5t-121.5 36.5t-144.5 29.5t-152 31.5t-144.5 48t-121.5 73t-84.5 112t-31.5 160.5
q0 203 151.5 319.5t424.5 116.5q261 0 419 -106t191 -328q1 -9 -4.5 -14.5t-14.5 -5.5h-288q-18 0 -21 18q-10 97 -87 149t-208 52q-116 0 -185 -42t-69 -128q0 -49 31.5 -83t84.5 -54t122 -34.5t145.5 -28.5t153 -31.5t145.5 -48t122 -73t84.5 -112t31.5 -160.5
q0 -225 -161.5 -346t-446.5 -121zM756 -295q0 -10 -6 -22l-117 -183q-6 -12 -23 -12h-116q-20 0 -17 20l45 183v211q0 7 5.5 12.5t13.5 5.5h196q8 0 13.5 -5.5t5.5 -12.5v-197z" />
    <glyph glyph-name="uni0219" unicode="&#x219;" horiz-adv-x="1054" 
d="M537 -25q-234 0 -370.5 93t-143.5 268q0 18 18 18h262q19 0 19 -18q11 -170 229 -170q90 0 138 33.5t48 95.5q0 32 -23.5 53.5t-63.5 33.5t-92 20t-109 17t-114 21t-109 35t-92 56t-63.5 87t-23.5 125q0 162 122 249t339 87q212 0 340 -84.5t141 -246.5q3 -19 -16 -19
h-252q-16 0 -19 16q-26 148 -198 148q-164 0 -164 -127q0 -32 23.5 -53t63.5 -32.5t92 -19t109 -16t114 -19.5t109 -34t92 -56t63.5 -87.5t23.5 -126.5q0 -162 -137 -254.5t-356 -92.5zM641 -295q0 -10 -6 -22l-117 -183q-6 -12 -22 -12h-117q-20 0 -17 20l46 183v211
q0 8 5 13t13 5h197q7 0 12.5 -5t5.5 -13v-197z" />
    <glyph glyph-name="uni021A" unicode="&#x21a;" horiz-adv-x="1165" 
d="M733 717l12 -699q0 -8 -5.5 -13t-12.5 -5h-289q-8 0 -13 5t-5 13l12 699l-8 485h-397q-7 0 -13 6t-6 13v194q0 7 6 13t13 6h1110q7 0 12.5 -5.5t5.5 -13.5v-194q0 -8 -5.5 -13.5t-12.5 -5.5h-396zM698 -295q0 -10 -6 -22l-117 -183q-6 -12 -22 -12h-117q-19 0 -16 20
l45 183v211q0 8 5.5 13t12.5 5h197q8 0 13 -5t5 -13v-197z" />
    <glyph glyph-name="uni021B" unicode="&#x21b;" horiz-adv-x="724" 
d="M440 1319q8 0 13.5 -5.5t5.5 -13.5l-2 -245h233q8 0 13.5 -5.5t5.5 -13.5v-180q0 -7 -5.5 -12.5t-13.5 -5.5h-235l2 -521q0 -64 28.5 -91t83.5 -27t117 16q9 3 15 -2t6 -14v-162q0 -17 -15 -23q-115 -34 -194 -34q-70 0 -130 18t-110 55.5t-79 103t-29 152.5l2 529h-119
q-8 0 -13.5 5.5t-5.5 12.5v180q0 8 6 13.5t13 5.5h119l-2 245q0 8 5.5 13.5t12.5 5.5h272zM535 -295q0 -8 -7 -22l-116 -183q-6 -12 -23 -12h-117q-19 0 -16 20l45 183v211q0 8 5.5 13t12.5 5h197q8 0 13.5 -5.5t5.5 -12.5v-197z" />
    <glyph glyph-name="uni0237" unicode="&#x237;" horiz-adv-x="421" 
d="M362 362l7 -692q0 -7 -5.5 -12.5t-13.5 -5.5h-276q-8 0 -13.5 5.5t-5.5 12.5l6 692l-6 674q0 8 5.5 13.5t13.5 5.5h276q8 0 13.5 -5.5t5.5 -13.5z" />
    <glyph glyph-name="uni0237" unicode="&#xf6be;" horiz-adv-x="421" 
d="M362 362l7 -692q0 -7 -5.5 -12.5t-13.5 -5.5h-276q-8 0 -13.5 5.5t-5.5 12.5l6 692l-6 674q0 8 5.5 13.5t13.5 5.5h276q8 0 13.5 -5.5t5.5 -13.5z" />
    <glyph glyph-name="uni0259" unicode="&#x259;" horiz-adv-x="1130" 
d="M557 877q-167 0 -205 -162q-7 -17 -20 -17h-258q-22 0 -19 19q14 99 76.5 180.5t175 132.5t254.5 51q257 0 400 -152.5t143 -398.5q0 -254 -143.5 -405.5t-393.5 -151.5q-257 0 -398 159t-146 439q0 19 18 19h754q-9 148 -68 217.5t-170 69.5zM565 176q183 0 221 219
h-432q10 -93 63 -156t148 -63z" />
    <glyph glyph-name="quoteleft" unicode="&#x2bb;" horiz-adv-x="423" 
d="M39 1171q0 11 8 23l170 229q8 11 23 11h143q20 0 14 -21l-61 -227v-266q0 -8 -6 -13.5t-13 -5.5h-260q-7 0 -12.5 5.5t-5.5 13.5v251z" />
    <glyph glyph-name="quoteleft" unicode="&#x2018;" horiz-adv-x="423" 
d="M39 1171q0 11 8 23l170 229q8 11 23 11h143q20 0 14 -21l-61 -227v-266q0 -8 -6 -13.5t-13 -5.5h-260q-7 0 -12.5 5.5t-5.5 13.5v251z" />
    <glyph glyph-name="circumflex" unicode="&#x2c6;" horiz-adv-x="970" 
d="M483 1284l-303 -149q-16 -10 -24 10l-47 115q-6 14 8 24l295 209q12 8 22 8h103q10 0 22 -8l295 -209q14 -10 8 -24l-47 -115q-8 -20 -24 -10z" />
    <glyph glyph-name="caron" unicode="&#x2c7;" horiz-adv-x="966" 
d="M555 1159q-12 -8 -23 -8h-98q-10 0 -22 8l-295 205q-14 11 -8 27l47 112q8 20 24 10l303 -149l303 149q8 4 15 1t10 -11l47 -112q6 -16 -8 -27z" />
    <glyph glyph-name="breve" unicode="&#x2d8;" horiz-adv-x="925" 
d="M463 1157q-157 0 -256 91t-105 231q0 18 19 18h164q18 0 18 -18q6 -56 48 -89.5t112 -33.5q66 0 109 34t51 89q0 18 18 18h164q18 0 18 -16q-6 -141 -104 -232.5t-256 -91.5z" />
    <glyph glyph-name="dotaccent" unicode="&#x2d9;" horiz-adv-x="516" 
d="M395 1434q7 0 13 -6t6 -13v-239q0 -8 -6 -13.5t-13 -5.5h-274q-7 0 -13 5.5t-6 13.5v239q0 7 6 13t13 6h274z" />
    <glyph glyph-name="ring" unicode="&#x2da;" horiz-adv-x="733" 
d="M367 1151q-114 0 -189.5 70t-75.5 174t75.5 173.5t189.5 69.5t189 -69.5t75 -173.5q0 -105 -75 -174.5t-189 -69.5zM367 1260q46 0 75 35.5t29 99.5q0 65 -29 100t-75 35q-47 0 -76 -35t-29 -100q0 -64 29 -99.5t76 -35.5z" />
    <glyph glyph-name="ogonek" unicode="&#x2db;" horiz-adv-x="659" 
d="M539 -229q7 0 12.5 -5.5t5.5 -13.5v-164q0 -8 -5.5 -13t-12.5 -5h-125q-140 0 -226 61.5t-86 165.5q0 100 69.5 168t182.5 105q15 3 25 -11l27 -45q10 -13 -5 -24q-65 -65 -65 -137q0 -82 106 -82h97z" />
    <glyph glyph-name="tilde" unicode="&#x2dc;" horiz-adv-x="860" 
d="M555 1167q-43 0 -81.5 17t-61 37.5t-49 37.5t-48.5 17q-54 0 -57 -88q0 -19 -18 -19h-119q-19 0 -19 19q5 120 57 191t152 71q40 0 77.5 -17t61 -37.5t48.5 -37.5t43 -17q58 0 61 89q0 18 19 18h118q8 0 13.5 -6.5t5.5 -16.5q-5 -123 -55.5 -190.5t-147.5 -67.5z" />
    <glyph glyph-name="hungarumlaut" unicode="&#x2dd;" horiz-adv-x="993" 
d="M354 1612q11 18 27 2l129 -125q12 -13 0 -25l-291 -301q-13 -13 -26 0l-76 64q-13 13 -4 26zM723 1599q11 19 27 3l127 -123q13 -13 2 -25l-291 -301q-14 -15 -27 -2l-76 63q-14 14 -4 27z" />
    <glyph glyph-name="gravecomb" unicode="&#x300;" horiz-adv-x="0" 
d="M-631 1483q7 19 25 10l487 -211q16 -6 10 -25l-43 -110q-6 -17 -22 -12l-508 133q-8 2 -11.5 8.5t-0.5 13.5z" />
    <glyph glyph-name="acutecomb" unicode="&#x301;" horiz-adv-x="0" 
d="M-193 1493q17 9 25 -10l59 -193q3 -7 -0.5 -13.5t-11.5 -8.5l-504 -133q-16 -5 -22 12l-45 110q-6 19 10 25z" />
    <glyph glyph-name="uni0302" unicode="&#x302;" horiz-adv-x="0" 
d="M-487 1284l-304 -149q-16 -10 -24 10l-47 115q-6 14 8 24l295 209q12 8 22 8h103q10 0 22 -8l295 -209q14 -10 8 -24l-47 -115q-8 -20 -24 -10z" />
    <glyph glyph-name="tildecomb" unicode="&#x303;" horiz-adv-x="0" 
d="M-305 1167q-43 0 -81.5 17t-61 37.5t-49 37.5t-48.5 17q-54 0 -57 -88q0 -19 -19 -19h-118q-19 0 -19 19q5 120 57 191t152 71q40 0 77.5 -17t61 -37.5t48.5 -37.5t43 -17q58 0 61 89q0 18 18 18h119q8 0 13.5 -6.5t5.5 -16.5q-5 -123 -55.5 -190.5t-147.5 -67.5z" />
    <glyph glyph-name="uni0304" unicode="&#x304;" horiz-adv-x="0" 
d="M-121 1372q8 0 13.5 -5.5t5.5 -12.5v-168q0 -8 -6 -13.5t-13 -5.5h-633q-7 0 -12.5 5.5t-5.5 13.5v168q0 8 5 13t13 5h633z" />
    <glyph glyph-name="uni0306" unicode="&#x306;" horiz-adv-x="0" 
d="M-463 1157q-157 0 -255.5 90.5t-104.5 231.5q0 18 18 18h164q18 0 18 -18q6 -56 48 -89.5t112 -33.5q66 0 109 34t51 89q0 18 18 18h164q19 0 19 -16q-6 -141 -104.5 -232.5t-256.5 -91.5z" />
    <glyph glyph-name="uni0307" unicode="&#x307;" horiz-adv-x="0" 
d="M-121 1434q7 0 13 -6t6 -13v-239q0 -8 -6 -13.5t-13 -5.5h-274q-7 0 -13 5.5t-6 13.5v239q0 7 6 13t13 6h274z" />
    <glyph glyph-name="uni0308" unicode="&#x308;" horiz-adv-x="0" 
d="M-551 1434q7 0 13 -6t6 -13v-239q0 -8 -6 -13.5t-13 -5.5h-213q-7 0 -12.5 5.5t-5.5 13.5v239q0 8 5.5 13.5t12.5 5.5h213zM-121 1434q7 0 13 -6t6 -13v-239q0 -8 -6 -13.5t-13 -5.5h-213q-7 0 -12.5 5.5t-5.5 13.5v239q0 8 5.5 13.5t12.5 5.5h213z" />
    <glyph glyph-name="hookabovecomb" unicode="&#x309;" horiz-adv-x="0" 
d="M-287 1159q-3 -16 -18 -16h-182q-19 0 -19 20q4 40 25.5 68.5t49 43.5t54 26.5t44.5 26t18 34.5q0 23 -18.5 37t-55.5 14q-72 0 -84 -57q-3 -17 -19 -17h-167q-20 0 -17 19q11 97 85 149t204 52t207.5 -51t77.5 -140q0 -45 -26.5 -78t-58.5 -48t-63 -37t-37 -46z" />
    <glyph glyph-name="uni030A" unicode="&#x30a;" horiz-adv-x="0" 
d="M-367 1151q-114 0 -189 69.5t-75 174.5q0 104 75 173.5t189 69.5t189.5 -69.5t75.5 -173.5t-75.5 -174t-189.5 -70zM-367 1260q46 0 75.5 35.5t29.5 99.5q0 65 -29.5 100t-75.5 35q-47 0 -75.5 -34.5t-28.5 -100.5q0 -64 28.5 -99.5t75.5 -35.5z" />
    <glyph glyph-name="uni030B" unicode="&#x30b;" horiz-adv-x="0" 
d="M-639 1612q11 18 27 2l129 -125q13 -13 0 -25l-291 -301q-14 -13 -27 0l-76 64q-13 13 -4 26zM-270 1599q11 18 26 3l127 -123q13 -13 2 -25l-291 -301q-14 -14 -26 -2l-76 63q-14 14 -4 27z" />
    <glyph glyph-name="uni030C" unicode="&#x30c;" horiz-adv-x="0" 
d="M-412 1159q-12 -8 -22 -8h-98q-11 0 -23 8l-295 205q-14 11 -8 27l47 112q3 8 10 11t15 -1l303 -149l303 149q16 10 24 -10l47 -112q6 -16 -8 -27z" />
    <glyph glyph-name="uni0312" unicode="&#x312;" horiz-adv-x="0" 
d="M-152 1386v-210q0 -8 -5.5 -13.5t-12.5 -5.5h-270q-8 0 -13.5 5.5t-5.5 13.5v196q0 12 8 23l172 184q7 10 23 10h133q20 0 17 -20z" />
    <glyph glyph-name="uni031B" unicode="&#x31b;" horiz-adv-x="0" 
d="M-328 1323q3 8 10 10t15 -2l180 -98q16 -10 6 -27l-176 -256q-11 -14 -26 -8l-140 62q-15 7 -8 24z" />
    <glyph glyph-name="dotbelowcomb" unicode="&#x323;" horiz-adv-x="0" 
d="M-121 -80q8 0 13.5 -5.5t5.5 -12.5v-240q0 -7 -5.5 -12.5t-13.5 -5.5h-274q-8 0 -13.5 5.5t-5.5 12.5v240q0 7 5.5 12.5t13.5 5.5h274z" />
    <glyph glyph-name="uni0326" unicode="&#x326;" horiz-adv-x="0" 
d="M-102 -295q0 -8 -7 -22l-116 -183q-6 -12 -23 -12h-117q-19 0 -16 20l45 183v211q0 7 5.5 12.5t13.5 5.5h196q8 0 13.5 -5.5t5.5 -12.5v-197z" />
    <glyph glyph-name="uni0327" unicode="&#x327;" horiz-adv-x="0" 
d="M-319 27q6 15 22 12l176 -19q18 -3 15 -20l-68 -350q-1 -7 -8 -12t-15 -3l-247 46q-19 3 -13 22z" />
    <glyph glyph-name="uni0328" unicode="&#x328;" horiz-adv-x="0" 
d="M-121 -229q7 0 13 -5.5t6 -13.5v-164q0 -7 -5.5 -12.5t-13.5 -5.5h-125q-140 0 -225.5 61.5t-85.5 165.5q0 100 69.5 168t182.5 105q14 3 24 -11l27 -45q10 -13 -4 -24q-66 -66 -66 -137q0 -82 107 -82h96z" />
    <glyph glyph-name="uni0394" unicode="&#x394;" horiz-adv-x="1425" 
d="M1411 258q4 -16 4 -22v-218q0 -8 -5.5 -13t-12.5 -5h-1368q-8 0 -13.5 5.5t-5.5 12.5v218q0 6 4 22l488 1161q8 15 22 15h387q15 0 23 -15zM1094 248l-392 991l-374 -991h766z" />
    <glyph glyph-name="uni0394" unicode="&#x2206;" horiz-adv-x="1425" 
d="M1411 258q4 -16 4 -22v-218q0 -8 -5.5 -13t-12.5 -5h-1368q-8 0 -13.5 5.5t-5.5 12.5v218q0 6 4 22l488 1161q8 15 22 15h387q15 0 23 -15zM1094 248l-392 991l-374 -991h766z" />
    <glyph glyph-name="uni03A9" unicode="&#x3a9;" horiz-adv-x="1531" 
d="M1491 774q0 -165 -66 -303.5t-186 -239.5h188q8 0 13.5 -5.5t5.5 -12.5v-195q0 -7 -5.5 -12.5t-13.5 -5.5h-569q-8 0 -13 5t-5 13v199q0 15 14 21q145 68 230 198t85 318q0 220 -104.5 345.5t-298.5 125.5t-299 -125.5t-105 -345.5q0 -188 85.5 -317.5t230.5 -198.5
q14 -6 14 -21v-199q0 -8 -5 -13t-13 -5h-570q-8 0 -13 5t-5 13v195q0 7 5 12.5t13 5.5h189q-120 101 -186 239.5t-66 303.5q0 210 90 367t254 240t381 83t381 -83t254 -240t90 -367z" />
    <glyph glyph-name="uni03A9" unicode="&#x2126;" horiz-adv-x="1531" 
d="M1491 774q0 -165 -66 -303.5t-186 -239.5h188q8 0 13.5 -5.5t5.5 -12.5v-195q0 -7 -5.5 -12.5t-13.5 -5.5h-569q-8 0 -13 5t-5 13v199q0 15 14 21q145 68 230 198t85 318q0 220 -104.5 345.5t-298.5 125.5t-299 -125.5t-105 -345.5q0 -188 85.5 -317.5t230.5 -198.5
q14 -6 14 -21v-199q0 -8 -5 -13t-13 -5h-570q-8 0 -13 5t-5 13v195q0 7 5 12.5t13 5.5h189q-120 101 -186 239.5t-66 303.5q0 210 90 367t254 240t381 83t381 -83t254 -240t90 -367z" />
    <glyph glyph-name="pi" unicode="&#x3c0;" horiz-adv-x="1099" 
d="M356 449l4 -431q0 -8 -5 -13t-13 -5h-279q-7 0 -12.5 5t-5.5 13l4 488v530q0 8 5.5 13.5t13.5 5.5h968q8 0 13.5 -5.5t5.5 -13.5l-4 -587l4 -431q0 -7 -5.5 -12.5t-13.5 -5.5h-276q-8 0 -13.5 5.5t-5.5 12.5l4 488v332h-387z" />
    <glyph glyph-name="uni0400" unicode="&#x400;" horiz-adv-x="1101" 
d="M301 1862q7 19 25 10l487 -211q16 -6 10 -25l-43 -110q-6 -18 -22 -13l-508 134q-8 2 -11.5 8.5t-0.5 13.5zM1059 231q7 0 12.5 -5.5t5.5 -12.5v-195q0 -8 -5.5 -13t-12.5 -5h-983q-8 0 -13.5 5.5t-5.5 12.5l11 699l-11 698q0 7 5.5 13t13.5 6h966q8 0 13.5 -6t5.5 -13
v-194q0 -7 -5.5 -13t-13.5 -6h-667l-8 -330h616q7 0 12.5 -5t5.5 -13v-195q0 -7 -5.5 -12.5t-12.5 -5.5h-616l8 -410h684z" />
    <glyph glyph-name="uni0401" unicode="&#x401;" horiz-adv-x="1101" 
d="M469 1812q7 0 12.5 -5t5.5 -13v-240q0 -8 -5.5 -13t-12.5 -5h-213q-8 0 -13 5t-5 13v240q0 8 5 13t13 5h213zM899 1812q8 0 13.5 -5.5t5.5 -12.5v-240q0 -7 -5.5 -12.5t-13.5 -5.5h-213q-8 0 -13 5t-5 13v240q0 8 5 13t13 5h213zM1059 231q7 0 12.5 -5.5t5.5 -12.5v-195
q0 -8 -5.5 -13t-12.5 -5h-983q-8 0 -13.5 5.5t-5.5 12.5l11 699l-11 698q0 7 5.5 13t13.5 6h966q8 0 13.5 -6t5.5 -13v-194q0 -7 -5.5 -13t-13.5 -6h-667l-8 -330h616q7 0 12.5 -5t5.5 -13v-195q0 -7 -5.5 -12.5t-12.5 -5.5h-616l8 -410h684z" />
    <glyph glyph-name="uni0402" unicode="&#x402;" horiz-adv-x="1572" 
d="M981 903q290 0 428.5 -126.5t138.5 -346.5q0 -226 -141.5 -343.5t-380.5 -117.5q-33 0 -113 11q-16 3 -16 20v188q0 20 21 17q35 -6 79 -6q116 0 180 58.5t64 172.5q0 242 -289 242q-90 0 -223 -10l14 -644q0 -8 -5.5 -13t-12.5 -5h-291q-8 0 -13 5t-5 13l14 637l-10 547
h-393q-7 0 -13 6t-6 13v194q0 7 6 13t13 6h1169q7 0 12.5 -5.5t5.5 -13.5v-194q0 -8 -5.5 -13.5t-12.5 -5.5h-457l-6 -309q153 10 248 10z" />
    <glyph glyph-name="uni0403" unicode="&#x403;" horiz-adv-x="1007" 
d="M762 1872q17 8 24 -10l60 -193q3 -7 -0.5 -13.5t-11.5 -8.5l-504 -134q-17 -6 -23 13l-45 110q-6 19 10 25zM61 1415q0 7 5.5 13t13.5 6h901q7 0 12.5 -5.5t5.5 -13.5v-194q0 -8 -5.5 -13.5t-12.5 -5.5h-602l-6 -485l12 -699q0 -8 -5.5 -13t-12.5 -5h-291q-8 0 -13.5 5.5
t-5.5 12.5l15 699z" />
    <glyph glyph-name="uni0404" unicode="&#x404;" horiz-adv-x="1411" 
d="M1079 514q3 16 19 16h274q20 0 17 -20q-58 -283 -222.5 -412t-427.5 -129q-216 0 -378.5 94.5t-248 262t-85.5 385.5q0 343 193 548t517 205q532 0 641 -508q3 -20 -16 -20h-268q-15 0 -21 16q-29 137 -115 209t-225 72q-157 0 -253 -97.5t-122 -279.5h551q8 0 13.5 -5.5
t5.5 -12.5v-195q0 -7 -5.5 -12.5t-13.5 -5.5h-557q17 -204 115 -314t264 -110q149 0 233.5 78.5t114.5 234.5z" />
    <glyph glyph-name="uni0405" unicode="&#x405;" horiz-adv-x="1292" 
d="M668 -33q-192 0 -333 52.5t-225.5 166t-91.5 279.5q0 18 19 18h289q17 0 20 -18q7 -63 26 -109t56 -82.5t98.5 -54.5t147.5 -18q143 0 216 45.5t73 144.5q0 52 -31.5 88.5t-84.5 57.5t-121.5 36.5t-144.5 29.5t-152 31.5t-144.5 48t-121.5 73t-84.5 112t-31.5 160.5
q0 203 151.5 319.5t424.5 116.5q261 0 419 -106t191 -328q1 -9 -4.5 -14.5t-14.5 -5.5h-288q-18 0 -21 18q-10 97 -87 149t-208 52q-116 0 -185 -42t-69 -128q0 -49 31.5 -83t84.5 -54t122 -34.5t145.5 -28.5t153 -31.5t145.5 -48t122 -73t84.5 -112t31.5 -160.5
q0 -225 -161.5 -346t-446.5 -121z" />
    <glyph glyph-name="uni0406" unicode="&#x406;" horiz-adv-x="450" 
d="M373 717l10 -699q0 -8 -5.5 -13t-12.5 -5h-279q-8 0 -13 5t-5 13l10 699l-10 698q0 8 5.5 13.5t12.5 5.5h279q7 0 12.5 -5.5t5.5 -13.5z" />
    <glyph glyph-name="uni0407" unicode="&#x407;" horiz-adv-x="450" 
d="M117 1812q7 0 12.5 -5t5.5 -13v-240q0 -8 -5.5 -13t-12.5 -5h-213q-8 0 -13.5 5.5t-5.5 12.5v240q0 7 5.5 12.5t13.5 5.5h213zM547 1812q7 0 12.5 -5t5.5 -13v-240q0 -8 -5.5 -13t-12.5 -5h-213q-8 0 -13.5 5.5t-5.5 12.5v240q0 7 5.5 12.5t13.5 5.5h213zM373 717
l10 -699q0 -8 -5.5 -13t-12.5 -5h-279q-8 0 -13 5t-5 13l10 699l-10 698q0 8 5.5 13.5t12.5 5.5h279q7 0 12.5 -5.5t5.5 -13.5z" />
    <glyph glyph-name="uni0408" unicode="&#x408;" horiz-adv-x="1058" 
d="M502 -31q-237 0 -361 141.5t-129 397.5q0 18 19 18h266q18 0 18 -18q3 -150 47.5 -222.5t141.5 -72.5q100 0 141 71t43 230v422l-6 479q0 8 5.5 13.5t12.5 5.5h287q7 0 13 -6t6 -13l-7 -479l2 -424q1 -272 -125 -407.5t-374 -135.5z" />
    <glyph glyph-name="uni0409" unicode="&#x409;" horiz-adv-x="2093" 
d="M1286 1434q8 0 13.5 -6t5.5 -13l-5 -502l199 -2q572 -3 572 -456q0 -217 -147 -336t-425 -119h-489q-8 0 -13.5 5.5t-5.5 12.5l6 652l-6 532h-407q-17 -435 -39 -684q-11 -113 -25.5 -190t-43 -147t-71.5 -110.5t-109 -63.5t-157 -23q-62 0 -116 12q-15 3 -15 20v193
q0 19 21 16q14 -4 43 -4q99 0 138.5 70t55.5 248q26 312 39 876q0 19 19 19h962zM1298 670l7 -439h204q252 0 252 224q0 112 -65 169.5t-189 57.5h-209v-12z" />
    <glyph glyph-name="uni040A" unicode="&#x40a;" horiz-adv-x="2066" 
d="M1255 1434q7 0 13 -6t6 -13l-6 -514h198q38 0 61 -0.5t73 -4.5t84.5 -11.5t85 -23t85.5 -37t73.5 -56.5t62.5 -78.5t39.5 -104.5t15.5 -134q0 -451 -580 -451h-491q-8 0 -13.5 5.5t-5.5 12.5l9 652h-596l6 -652q0 -7 -5.5 -12.5t-13.5 -5.5h-280q-8 0 -13.5 5.5
t-5.5 12.5l11 699l-11 698q0 7 5.5 13t13.5 6h280q8 0 13.5 -6t5.5 -13l-4 -514h592l-7 514q0 7 6 13t13 6h280zM1266 670l6 -439h203q262 0 262 220q0 45 -11.5 81t-28 58.5t-43 38.5t-48 24t-52.5 12t-46.5 4.5t-39.5 0.5h-202z" />
    <glyph glyph-name="uni040B" unicode="&#x40b;" horiz-adv-x="1574" 
d="M985 905q129 0 223.5 -21.5t155.5 -59.5t97 -99t50.5 -131t14.5 -164v-412q0 -7 -5.5 -12.5t-13.5 -5.5h-272q-7 0 -12.5 5t-5.5 13l2 412q0 120 -66.5 182t-210.5 62q-93 0 -213 -10l14 -646q0 -8 -5.5 -13t-12.5 -5h-291q-8 0 -13 5t-5 13l14 637l-10 547h-393
q-7 0 -13 6t-6 13v194q0 7 6 13t13 6h1169q7 0 12.5 -5.5t5.5 -13.5v-194q0 -8 -5.5 -13.5t-12.5 -5.5h-457l-6 -311q164 14 252 14z" />
    <glyph glyph-name="uni040C" unicode="&#x40c;" horiz-adv-x="1282" 
d="M883 1872q17 8 24 -10l60 -193q3 -7 -1 -13.5t-12 -8.5l-503 -134q-17 -6 -23 13l-45 110q-6 19 10 25zM868 1421q6 13 23 13h293q11 0 14.5 -6t-2.5 -17l-379 -612l477 -776q6 -11 2.5 -17t-14.5 -6h-334q-16 0 -22 12l-142 250l-219 387l-196 -2l6 -629
q0 -7 -5.5 -12.5t-13.5 -5.5h-280q-8 0 -13.5 5.5t-5.5 12.5l11 699l-9 698q0 7 5.5 13t13.5 6h278q8 0 13.5 -6t5.5 -13l-4 -534h194z" />
    <glyph glyph-name="uni040D" unicode="&#x40d;" horiz-adv-x="1382" 
d="M434 1862q8 19 25 10l487 -211q16 -6 10 -25l-43 -110q-6 -18 -22 -13l-508 134q-8 2 -11.5 8.5t-0.5 13.5zM360 418l635 1003q7 13 23 13h287q7 0 12.5 -5.5t5.5 -13.5l-8 -698l8 -699q0 -8 -5.5 -13t-12.5 -5h-279q-8 0 -13 5t-5 13l4 562l12 444v4l-639 -1016
q-6 -12 -23 -12h-286q-8 0 -13.5 5.5t-5.5 12.5l11 699l-11 698q0 7 5.5 13t13.5 6h278q8 0 13.5 -6t5.5 -13l-2 -553l-11 -442v-2z" />
    <glyph glyph-name="uni040E" unicode="&#x40e;" horiz-adv-x="1259" 
d="M649 1532q183 0 288 91t105 251h-233q-3 -79 -44 -123.5t-112 -44.5q-72 0 -111.5 44t-39.5 124h-234q0 -160 102 -251t279 -91zM680 645l2 -4l281 778q6 15 22 15h268q9 0 13.5 -6t1.5 -15l-381 -956q-71 -177 -143 -277.5t-166 -148t-228 -47.5q-60 0 -110 12
q-17 3 -17 20v199q0 9 6 13t15 1q46 -8 82 -8q129 0 209 96l-541 1094q-4 11 -0.5 17t14.5 6h316q12 0 20 -15l231 -536z" />
    <glyph glyph-name="uni040F" unicode="&#x40f;" horiz-adv-x="1349" 
d="M973 1415q0 8 5.5 13.5t12.5 5.5h281q7 0 12.5 -5.5t5.5 -13.5l-8 -698l8 -699q0 -8 -5 -13t-13 -5h-436l-5 -309q0 -8 -5.5 -13.5t-12.5 -5.5h-254q-7 0 -12.5 5.5t-5.5 13.5l-4 309h-461q-8 0 -13.5 5.5t-5.5 12.5l11 699l-11 698q0 7 5.5 13t13.5 6h280q8 0 13.5 -6
t5.5 -13l-6 -698l4 -486h602l6 486z" />
    <glyph glyph-name="uni0410" unicode="&#x410;" horiz-adv-x="1357" 
d="M877 1434q14 0 20 -15l477 -1399q6 -20 -16 -20h-283q-17 0 -20 14l-113 351h-539l-106 -349q-3 -16 -21 -16h-278q-20 0 -14 20l483 1399q6 15 22 15h388zM864 612l-196 613l-187 -613h383z" />
    <glyph glyph-name="uni0411" unicode="&#x411;" horiz-adv-x="1239" 
d="M375 1202l-4 -301h278q299 0 434.5 -111t135.5 -333q0 -215 -148 -336t-424 -121h-571q-8 0 -13.5 5.5t-5.5 12.5l11 699l-11 698q0 7 5.5 13t13.5 6h968q8 0 13.5 -6t5.5 -13v-194q0 -7 -5.5 -13t-13.5 -6h-669zM369 659l4 -428h284q252 0 252 220q0 110 -59.5 164.5
t-194.5 54.5h-286v-11z" />
    <glyph glyph-name="uni0412" unicode="&#x412;" horiz-adv-x="1263" 
d="M702 0h-626q-8 0 -13.5 5.5t-5.5 12.5l11 699l-11 698q0 7 5.5 13t13.5 6h616q151 0 263 -36t179.5 -117.5t67.5 -201.5q0 -243 -248 -317q141 -31 214 -118.5t73 -209.5q0 -112 -45 -198t-122.5 -136t-171 -75t-200.5 -25zM696 1217h-321l-8 -361h329q92 0 143.5 45.5
t51.5 132.5q0 91 -55 137t-140 46zM696 639h-329l8 -422h321q230 0 230 217q0 107 -63.5 156t-166.5 49z" />
    <glyph glyph-name="uni0413" unicode="&#x413;" horiz-adv-x="1007" 
d="M61 1415q0 7 5.5 13t13.5 6h901q7 0 12.5 -5.5t5.5 -13.5v-194q0 -8 -5.5 -13.5t-12.5 -5.5h-602l-6 -485l12 -699q0 -8 -5.5 -13t-12.5 -5h-291q-8 0 -13.5 5.5t-5.5 12.5l15 699z" />
    <glyph glyph-name="uni0414" unicode="&#x414;" horiz-adv-x="1513" 
d="M1292 1434q8 0 13.5 -6t5.5 -13v-708l12 -476h156q7 0 12.5 -5.5t5.5 -12.5v-522q0 -8 -5.5 -13.5t-12.5 -5.5h-256q-7 0 -13 6t-6 13l-10 309h-881l-10 -309q0 -8 -5.5 -13.5t-12.5 -5.5h-258q-7 0 -13 6t-6 13v522q0 7 5.5 12.5t13.5 5.5h94q129 175 155 445
q28 274 37 739q0 19 19 19h960zM559 688q-30 -297 -125 -457h574l4 476l-6 495h-414q-12 -305 -33 -514z" />
    <glyph glyph-name="uni0415" unicode="&#x415;" horiz-adv-x="1101" 
d="M1059 231q7 0 12.5 -5.5t5.5 -12.5v-195q0 -8 -5.5 -13t-12.5 -5h-983q-8 0 -13.5 5.5t-5.5 12.5l11 699l-11 698q0 7 5.5 13t13.5 6h966q8 0 13.5 -6t5.5 -13v-194q0 -7 -5.5 -13t-13.5 -6h-667l-8 -330h616q7 0 12.5 -5t5.5 -13v-195q0 -7 -5.5 -12.5t-12.5 -5.5h-616
l8 -410h684z" />
    <glyph glyph-name="uni0416" unicode="&#x416;" horiz-adv-x="2052" 
d="M1632 1421q6 13 23 13h293q11 0 14.5 -6t-2.5 -17l-379 -612l477 -776q6 -11 2.5 -17t-14.5 -6h-334q-16 0 -22 12l-142 250l-219 387l-158 -2l9 -629q0 -7 -5.5 -12.5t-13.5 -5.5h-278q-8 0 -13.5 5.5t-5.5 12.5l10 629l-155 2l-219 -387l-142 -250q-6 -12 -22 -12h-334
q-11 0 -14.5 6t2.5 17l477 776l-379 612q-6 11 -2.5 17t14.5 6h293q17 0 23 -13l301 -540h155l-6 534q0 7 6 13t13 6h276q7 0 13 -6t6 -13l-6 -534h157z" />
    <glyph glyph-name="uni0417" unicode="&#x417;" horiz-adv-x="1193" 
d="M567 641h-118q-8 0 -13.5 5.5t-5.5 12.5v179q0 7 5.5 12.5t13.5 5.5h116q132 0 195 52t63 143q0 92 -59 142t-162 50q-107 0 -176.5 -55t-79.5 -160q-3 -18 -20 -18h-289q-9 0 -14.5 5.5t-4.5 14.5q33 221 189.5 327.5t410.5 106.5q230 0 373.5 -101t143.5 -280
q0 -247 -248 -321q142 -32 213 -122.5t71 -227.5q0 -141 -80 -243t-212 -151t-301 -49q-257 0 -412 125.5t-164 372.5q0 18 18 18h289q18 0 21 -18q7 -67 22.5 -114.5t45 -86t80 -57.5t122.5 -19q119 0 186.5 55.5t67.5 166.5q0 124 -71 176.5t-216 52.5z" />
    <glyph glyph-name="uni0418" unicode="&#x418;" horiz-adv-x="1382" 
d="M360 418l635 1003q7 13 23 13h287q7 0 12.5 -5.5t5.5 -13.5l-8 -698l8 -699q0 -8 -5.5 -13t-12.5 -5h-279q-8 0 -13 5t-5 13l4 562l12 444v4l-639 -1016q-6 -12 -23 -12h-286q-8 0 -13.5 5.5t-5.5 12.5l11 699l-11 698q0 7 5.5 13t13.5 6h278q8 0 13.5 -6t5.5 -13
l-2 -553l-11 -442v-2z" />
    <glyph glyph-name="uni0419" unicode="&#x419;" horiz-adv-x="1382" 
d="M711 1532q183 0 288 91t105 251h-234q-3 -80 -44 -124t-111 -44q-72 0 -112 44t-40 124h-233q0 -160 102 -251t279 -91zM360 418l635 1003q7 13 23 13h287q7 0 12.5 -5.5t5.5 -13.5l-8 -698l8 -699q0 -8 -5.5 -13t-12.5 -5h-279q-8 0 -13 5t-5 13l4 562l12 444v4
l-639 -1016q-6 -12 -23 -12h-286q-8 0 -13.5 5.5t-5.5 12.5l11 699l-11 698q0 7 5.5 13t13.5 6h278q8 0 13.5 -6t5.5 -13l-2 -553l-11 -442v-2z" />
    <glyph glyph-name="uni041A" unicode="&#x41a;" horiz-adv-x="1282" 
d="M868 1421q6 13 23 13h293q11 0 14.5 -6t-2.5 -17l-379 -612l477 -776q6 -11 2.5 -17t-14.5 -6h-334q-16 0 -22 12l-142 250l-219 387l-196 -2l6 -629q0 -7 -5.5 -12.5t-13.5 -5.5h-280q-8 0 -13.5 5.5t-5.5 12.5l11 699l-9 698q0 7 5.5 13t13.5 6h278q8 0 13.5 -6
t5.5 -13l-4 -534h194z" />
    <glyph glyph-name="uni041B" unicode="&#x41b;" horiz-adv-x="1368" 
d="M1298 670l11 -652q0 -7 -5.5 -12.5t-13.5 -5.5h-280q-8 0 -13.5 5.5t-5.5 12.5l6 652l-6 532h-405q-21 -460 -39 -684q-10 -113 -25 -191t-43.5 -147t-72 -109.5t-109.5 -63.5t-156 -23q-62 0 -116 12q-15 3 -15 20v193q0 19 21 16q14 -4 43 -4q99 0 138.5 70t55.5 248
q26 312 39 876q0 19 19 19h960q8 0 13.5 -6t5.5 -13z" />
    <glyph glyph-name="uni041C" unicode="&#x41c;" horiz-adv-x="1677" 
d="M340 606v-588q0 -8 -5 -13t-13 -5h-246q-8 0 -13.5 5.5t-5.5 12.5l9 699l-9 698q0 7 5.5 13t13.5 6h381q16 0 22 -15l383 -1034l361 1034q6 15 22 15h357q7 0 12.5 -5.5t5.5 -13.5l-8 -698l8 -699q0 -8 -5 -13t-13 -5h-277q-7 0 -12.5 5t-5.5 13v588l10 402l-348 -994
q-6 -14 -23 -14h-213q-16 0 -22 14l-383 1037z" />
    <glyph glyph-name="uni041D" unicode="&#x41d;" horiz-adv-x="1363" 
d="M993 881l-6 534q0 7 5.5 13t13.5 6h282q8 0 13.5 -6t5.5 -13l-11 -698l11 -699q0 -7 -5.5 -12.5t-13.5 -5.5h-282q-8 0 -13.5 5.5t-5.5 12.5l8 631h-626l8 -631q0 -7 -5.5 -12.5t-13.5 -5.5h-282q-8 0 -13.5 5.5t-5.5 12.5l11 699l-11 698q0 7 5.5 13t13.5 6h282
q8 0 13.5 -6t5.5 -13l-6 -534h622z" />
    <glyph glyph-name="uni041E" unicode="&#x41e;" 
d="M750 -31q-216 0 -381 94.5t-253.5 263t-88.5 386.5q0 343 196.5 547t526.5 204q329 0 527 -203t198 -548q0 -217 -89 -386t-254.5 -263.5t-381.5 -94.5zM752 209q192 0 296.5 133.5t104.5 370.5q0 238 -104.5 375t-298.5 137t-298 -135t-104 -377q0 -235 106 -369.5
t298 -134.5z" />
    <glyph glyph-name="uni041F" unicode="&#x41f;" horiz-adv-x="1339" 
d="M57 1415q0 7 5.5 13t13.5 6h1188q7 0 12.5 -5.5t5.5 -13.5l-8 -698l8 -699q0 -8 -5 -13t-13 -5h-281q-7 0 -12.5 5t-5.5 13l8 699l-4 485h-596l-4 -485l6 -699q0 -7 -5.5 -12.5t-13.5 -5.5h-280q-8 0 -13.5 5.5t-5.5 12.5l11 699z" />
    <glyph glyph-name="uni0420" unicode="&#x420;" horiz-adv-x="1177" 
d="M57 1415q0 7 5.5 13t13.5 6h540q262 0 403.5 -117.5t141.5 -343.5q0 -225 -145 -350t-402 -125h-243l6 -480q0 -7 -5.5 -12.5t-13.5 -5.5h-282q-8 0 -13.5 5.5t-5.5 12.5l11 699zM375 1206l-6 -481h268q98 0 160.5 60t62.5 182q0 239 -231 239h-254z" />
    <glyph glyph-name="uni0421" unicode="&#x421;" horiz-adv-x="1411" 
d="M739 -31q-216 0 -378.5 94.5t-248 262t-85.5 385.5q0 343 193 548t517 205q532 0 641 -508q3 -20 -16 -20h-268q-15 0 -21 16q-30 132 -116 202.5t-224 70.5q-186 0 -285.5 -135t-99.5 -377q0 -240 100 -372t283 -132q288 0 348 305q3 16 19 16h274q20 0 17 -24
q-60 -281 -224 -409t-426 -128z" />
    <glyph glyph-name="uni0422" unicode="&#x422;" horiz-adv-x="1165" 
d="M733 717l12 -699q0 -8 -5.5 -13t-12.5 -5h-289q-8 0 -13 5t-5 13l12 699l-8 485h-397q-7 0 -13 6t-6 13v194q0 7 6 13t13 6h1110q7 0 12.5 -5.5t5.5 -13.5v-194q0 -8 -5.5 -13.5t-12.5 -5.5h-396z" />
    <glyph glyph-name="uni0423" unicode="&#x423;" horiz-adv-x="1259" 
d="M680 645l2 -4l281 778q6 15 22 15h268q9 0 13.5 -6t1.5 -15l-381 -956q-71 -177 -143 -277.5t-166 -148t-228 -47.5q-60 0 -110 12q-17 3 -17 20v199q0 9 6 13t15 1q46 -8 82 -8q129 0 209 96l-541 1094q-4 11 -0.5 17t14.5 6h316q12 0 20 -15l231 -536z" />
    <glyph glyph-name="uni0424" unicode="&#x424;" horiz-adv-x="1675" 
d="M1649 721q0 -101 -23 -189.5t-73 -166.5t-125.5 -135t-185.5 -93.5t-247 -44.5l2 -104q0 -8 -5.5 -13.5t-12.5 -5.5h-281q-7 0 -12.5 5.5t-5.5 13.5l2 104q-139 7 -249.5 42.5t-185.5 92t-125 134.5t-72.5 166.5t-22.5 189.5q0 130 36.5 237t113 192t205.5 136t302 59
l-2 105q0 8 5 13t13 5h279q7 0 12.5 -5t5.5 -13l-2 -105q170 -9 297.5 -59.5t204.5 -134.5t114.5 -190.5t37.5 -235.5zM344 717q0 -183 78 -286.5t262 -117.5l6 398l-4 409q-95 -8 -162 -40.5t-106 -86.5t-56.5 -121.5t-17.5 -154.5zM993 1120l-6 -405l6 -402q93 8 160 41.5
t106 89.5t56.5 126.5t17.5 162.5q0 173 -80 273t-260 114z" />
    <glyph glyph-name="uni0425" unicode="&#x425;" horiz-adv-x="1284" 
d="M637 506l-291 -494q-6 -12 -22 -12h-316q-11 0 -14.5 6t2.5 17l465 731l-428 657q-6 9 -2.5 16t14.5 7h334q15 0 22 -13l246 -420l250 420q7 13 23 13h313q11 0 14.5 -6t-2.5 -17l-426 -666l469 -722q6 -9 2.5 -16t-14.5 -7h-338q-17 0 -23 12z" />
    <glyph glyph-name="uni0426" unicode="&#x426;" horiz-adv-x="1458" 
d="M1257 1434q7 0 13 -6t6 -13l-8 -696l6 -488h156q8 0 13 -5.5t5 -12.5v-522q0 -8 -5.5 -13.5t-12.5 -5.5h-259q-7 0 -12.5 5.5t-5.5 13.5l-8 309h-1069q-8 0 -13.5 5.5t-5.5 12.5l11 699l-11 698q0 7 5.5 13t13.5 6h280q8 0 13.5 -6t5.5 -13l-6 -698l4 -486h590l4 486
l-9 698q0 7 6 13t13 6h280z" />
    <glyph glyph-name="uni0427" unicode="&#x427;" horiz-adv-x="1230" 
d="M862 813l-6 602q0 8 5.5 13.5t12.5 5.5h281q7 0 13 -6t6 -13l-9 -667l9 -730q0 -7 -5.5 -12.5t-13.5 -5.5h-281q-8 0 -13 5t-5 13l6 566q-168 -21 -274 -21q-131 0 -226 22t-155 60.5t-95.5 101t-49 133.5t-13.5 167v368q0 7 5.5 13t13.5 6h276q7 0 12.5 -5.5t5.5 -13.5
l-2 -366q0 -127 63 -189.5t208 -62.5q113 0 231 16z" />
    <glyph glyph-name="uni0428" unicode="&#x428;" horiz-adv-x="1945" 
d="M1579 717l-8 698q0 8 5.5 13.5t12.5 5.5h281q7 0 12.5 -5.5t5.5 -13.5l-8 -698l6 -699q0 -8 -5 -13t-13 -5h-1792q-8 0 -13.5 5.5t-5.5 12.5l11 699l-11 698q0 7 5.5 13t13.5 6h280q8 0 13.5 -6t5.5 -13l-6 -698l4 -486h444l6 486l-8 698q0 7 5.5 13t13.5 6h280
q8 0 13.5 -6t5.5 -13l-11 -698l6 -486h445z" />
    <glyph glyph-name="uni0429" unicode="&#x429;" horiz-adv-x="2064" 
d="M1870 1434q7 0 12.5 -5.5t5.5 -13.5l-8 -698l4 -486h156q8 0 13 -5.5t5 -12.5v-522q0 -8 -5.5 -13.5t-12.5 -5.5h-258q-8 0 -13.5 6t-5.5 13l-6 309h-1681q-8 0 -13.5 5.5t-5.5 12.5l11 699l-11 698q0 7 5.5 13t13.5 6h280q8 0 13.5 -6t5.5 -13l-6 -698l4 -486h444l6 486
l-8 698q0 7 5.5 13t13.5 6h280q8 0 13.5 -6t5.5 -13l-11 -698l6 -486h445l6 486l-8 698q0 8 5.5 13.5t12.5 5.5h281z" />
    <glyph glyph-name="uni042A" unicode="&#x42a;" horiz-adv-x="1550" 
d="M707 1434q7 0 12.5 -5.5t5.5 -13.5l-6 -502l237 -2q572 -3 572 -454q0 -218 -147 -337.5t-425 -119.5h-530q-8 0 -13 5t-5 13l10 699l-6 485h-385q-7 0 -13 6t-6 13v194q0 7 6 13t13 6h680zM717 682l6 -451h244q252 0 252 232q0 105 -66 162t-188 57h-248z" />
    <glyph glyph-name="uni042B" unicode="&#x42b;" horiz-adv-x="1605" 
d="M1241 717l-10 698q0 8 5.5 13.5t12.5 5.5h281q7 0 12.5 -5.5t5.5 -13.5l-8 -667l8 -730q0 -8 -5 -13t-13 -5h-281q-7 0 -12.5 5t-5.5 13zM356 1432q8 0 13.5 -6t5.5 -13l-4 -502h235q300 0 435 -111.5t135 -338.5q0 -219 -147.5 -341t-424.5 -122h-528q-8 0 -13.5 5.5
t-5.5 12.5l11 699l-11 698q0 7 5.5 13t13.5 6h280zM369 680l4 -451h241q252 0 252 222q0 116 -59.5 172.5t-194.5 56.5h-243z" />
    <glyph glyph-name="uni042C" unicode="&#x42c;" horiz-adv-x="1204" 
d="M356 1436q8 0 13.5 -6t5.5 -13l-6 -502h241q287 0 429.5 -118.5t142.5 -343.5q0 -218 -147.5 -334.5t-426.5 -116.5h-532q-8 0 -13.5 5.5t-5.5 12.5l11 699l-11 698q0 7 5.5 13t13.5 6h280zM367 684l6 -451h243q254 0 254 224q0 112 -64.5 169.5t-189.5 57.5h-249z" />
    <glyph glyph-name="uni042D" unicode="&#x42d;" horiz-adv-x="1411" 
d="M702 1464q309 0 495.5 -205.5t186.5 -547.5q0 -217 -85 -385t-244.5 -262.5t-370.5 -94.5q-271 0 -437 128.5t-224 412.5q-3 20 16 20h274q16 0 19 -16q30 -157 116.5 -235t243.5 -78q165 0 258.5 109.5t108.5 316.5h-555q-8 0 -13.5 5.5t-5.5 12.5v195q0 7 5.5 12.5
t13.5 5.5h549q-25 180 -116.5 277.5t-242.5 97.5q-145 0 -235 -72t-121 -209q-6 -16 -21 -16h-268q-19 0 -16 25q31 139 93 238t151 156t193 83t232 26z" />
    <glyph glyph-name="uni042E" unicode="&#x42e;" horiz-adv-x="1916" 
d="M1186 1464q321 0 512.5 -202t191.5 -545q0 -220 -86 -389.5t-246.5 -264t-371.5 -94.5q-287 0 -472.5 168.5t-221.5 450.5h-121l4 -570q0 -7 -5.5 -12.5t-13.5 -5.5h-280q-8 0 -13.5 5.5t-5.5 12.5l11 699l-11 698q0 7 5.5 13t13.5 6h280q8 0 13.5 -6t5.5 -13l-6 -596
h120q29 298 215.5 471.5t481.5 173.5zM1188 209q184 0 282.5 133t98.5 371q0 239 -98.5 375.5t-284.5 136.5t-283.5 -134.5t-97.5 -377.5q0 -237 99 -370.5t284 -133.5z" />
    <glyph glyph-name="uni042F" unicode="&#x42f;" horiz-adv-x="1247" 
d="M590 1434h581q7 0 13 -6t6 -13l-8 -698l8 -699q0 -7 -5.5 -12.5t-13.5 -5.5h-278q-8 0 -13.5 5.5t-5.5 12.5l5 514h-207l-135 -213l-183 -307q-6 -12 -22 -12h-316q-11 0 -14.5 6t2.5 17l342 542q-155 45 -238 152t-83 266q0 222 146.5 336.5t418.5 114.5zM881 760
l-4 446h-299q-121 0 -186.5 -55.5t-65.5 -163.5q0 -117 68.5 -172t178.5 -55h308z" />
    <glyph glyph-name="uni0430" unicode="&#x430;" horiz-adv-x="1144" 
d="M793 942l-5 94q0 19 17 19h274q7 0 13 -5.5t6 -13.5l-6 -510l6 -508q0 -7 -5.5 -12.5t-13.5 -5.5h-272q-19 0 -19 18l5 105q-118 -143 -312 -143q-110 0 -197 41.5t-143.5 115.5t-86 172.5t-29.5 214.5q0 153 55 277.5t161 199t246 74.5q195 0 306 -133zM567 184
q229 0 232 336q1 168 -57 258t-169 92q-116 3 -175.5 -81t-59.5 -248q0 -177 59 -268t170 -89z" />
    <glyph glyph-name="uni0431" unicode="&#x431;" horiz-adv-x="1138" 
d="M664 1018q112 0 199.5 -40t141 -110t80.5 -159t27 -193q0 -248 -144 -394.5t-395 -146.5q-256 0 -396 166t-140 506q0 311 125.5 501.5t384.5 233.5q63 11 236.5 26t240.5 24q20 3 20 -17v-198q0 -18 -16 -21q-77 -14 -240.5 -28t-203.5 -21q-136 -23 -203 -102t-88 -226
q113 199 371 199zM575 182q109 0 166.5 79t57.5 233q0 155 -58.5 236t-167.5 81t-168 -82.5t-59 -234.5q0 -153 59 -232.5t170 -79.5z" />
    <glyph glyph-name="uni0432" unicode="&#x432;" horiz-adv-x="1048" 
d="M774 563v-2q129 -27 188.5 -93t59.5 -173q0 -57 -18.5 -103t-47.5 -76t-71.5 -52.5t-83 -34.5t-89.5 -19t-83 -8.5t-72 -1.5h-489q-8 0 -13.5 5.5t-5.5 12.5l6 508l-6 510q0 8 5.5 13.5t13.5 5.5h483q440 0 440 -262q0 -89 -57.5 -146.5t-159.5 -83.5zM549 854h-197
l-2 -211h199q65 0 100 27.5t35 79.5t-36 78t-99 26zM350 449l4 -248h197q74 0 117 30.5t43 90.5q0 63 -43.5 95t-116.5 32h-201z" />
    <glyph glyph-name="uni0433" unicode="&#x433;" horiz-adv-x="800" 
d="M49 1036q0 8 5.5 13.5t13.5 5.5h700q7 0 12.5 -5.5t5.5 -13.5v-180q0 -8 -5 -13t-13 -5h-410l-2 -312l6 -508q0 -8 -5 -13t-13 -5h-276q-8 0 -13.5 5.5t-5.5 12.5l6 508z" />
    <glyph glyph-name="uni0434" unicode="&#x434;" horiz-adv-x="1218" 
d="M1036 1055q8 0 13.5 -5.5t5.5 -13.5v-487l8 -336l127 2q8 0 13 -5.5t5 -12.5v-435q0 -8 -5 -13t-13 -5h-232q-8 0 -13 5t-5 13l-6 238h-643l-6 -238q0 -7 -5.5 -12.5t-13.5 -5.5h-235q-8 0 -13.5 5.5t-5.5 12.5v433q0 7 5.5 12.5t13.5 5.5h73q76 74 99 256q26 189 35 567
q0 19 18 19h780zM758 213l2 336l-4 293h-264q-10 -224 -27 -367q-16 -141 -76 -262h369z" />
    <glyph glyph-name="uni0435" unicode="&#x435;" horiz-adv-x="1128" 
d="M571 178q167 0 205 162q6 16 21 16h258q21 0 18 -18q-21 -154 -157.5 -259.5t-348.5 -105.5q-257 0 -399.5 152.5t-142.5 398.5q0 254 143 405.5t393 151.5q257 0 398.5 -159t146.5 -439q0 -18 -19 -18h-753q9 -148 67.5 -217.5t169.5 -69.5zM563 879q-183 0 -221 -220
h432q-10 94 -63 157t-148 63z" />
    <glyph glyph-name="uni0436" unicode="&#x436;" horiz-adv-x="1642" 
d="M1309 1042q7 13 22 13h268q10 0 13.5 -7t-2.5 -16l-297 -432l344 -577q5 -9 0 -16t-15 -7h-313q-14 0 -20 12l-115 209l-121 232h-102l6 -435q0 -7 -5.5 -12.5t-13.5 -5.5h-276q-8 0 -13 5t-5 13l6 435h-101l-120 -232l-115 -209q-6 -12 -21 -12h-313q-10 0 -14.5 7
t0.5 16l344 577l-297 432q-6 9 -3 16t13 7h268q17 0 23 -13l237 -376h97l-4 370q0 8 5.5 13.5t12.5 5.5h276q8 0 13.5 -5.5t5.5 -13.5l-4 -370h98z" />
    <glyph glyph-name="uni0437" unicode="&#x437;" horiz-adv-x="1038" 
d="M698 319q0 127 -172 127h-127q-7 0 -12.5 5.5t-5.5 13.5v156q0 7 5.5 12.5t12.5 5.5h127q72 0 109 31t37 90q0 52 -40 84.5t-108 32.5q-156 0 -186 -136q-3 -16 -19 -16h-251q-20 0 -17 18q13 163 141.5 248.5t342.5 85.5q203 0 323.5 -75t120.5 -211q0 -174 -217 -228
v-2q129 -27 188.5 -90t59.5 -166q0 -88 -43 -153t-116.5 -101.5t-159 -53.5t-183.5 -17q-228 0 -357.5 92.5t-136.5 267.5q0 18 19 18h262q18 0 18 -18q6 -80 58.5 -120t142.5 -40q86 0 135 36t49 103z" />
    <glyph glyph-name="uni0438" unicode="&#x438;" horiz-adv-x="1118" 
d="M346 330l365 712q5 13 20 13h322q7 0 12.5 -5.5t5.5 -13.5l-6 -510l6 -508q0 -8 -5.5 -13t-12.5 -5h-271q-8 0 -13 5t-5 13l6 496l6 203l-362 -705q-5 -12 -21 -12h-325q-8 0 -13.5 5.5t-5.5 12.5l6 525l-6 493q0 8 5.5 13.5t13.5 5.5h270q7 0 12.5 -5.5t5.5 -13.5
l-4 -501l-6 -203v-2z" />
    <glyph glyph-name="uni0439" unicode="&#x439;" horiz-adv-x="1118" 
d="M565 1153q183 0 288 91t105 251h-233q-3 -79 -44 -123.5t-112 -44.5q-72 0 -111.5 44t-39.5 124h-234q0 -160 102 -251t279 -91zM346 330l365 712q5 13 20 13h322q7 0 12.5 -5.5t5.5 -13.5l-6 -510l6 -508q0 -8 -5.5 -13t-12.5 -5h-271q-8 0 -13 5t-5 13l6 496l6 203
l-362 -705q-5 -12 -21 -12h-325q-8 0 -13.5 5.5t-5.5 12.5l6 525l-6 493q0 8 5.5 13.5t13.5 5.5h270q7 0 12.5 -5.5t5.5 -13.5l-4 -501l-6 -203v-2z" />
    <glyph glyph-name="uni043A" unicode="&#x43a;" horiz-adv-x="1062" 
d="M725 1042q7 13 23 13h264q11 0 14.5 -7t-2.5 -16l-287 -422l340 -587q5 -9 1.5 -16t-13.5 -7h-320q-14 0 -20 12l-229 434h-140l6 -428q0 -8 -5 -13t-13 -5h-276q-8 0 -13.5 5.5t-5.5 12.5l6 508l-6 510q0 8 5.5 13.5t13.5 5.5h276q7 0 12.5 -5.5t5.5 -13.5l-4 -372h140z
" />
    <glyph glyph-name="uni043B" unicode="&#x43b;" horiz-adv-x="1114" 
d="M1044 1055q8 0 13.5 -5.5t5.5 -13.5l-2 -530l6 -488q0 -8 -5.5 -13t-12.5 -5h-275q-8 0 -13 5t-5 13l2 488l-4 332h-262q-12 -312 -31 -480q-10 -93 -28.5 -157.5t-54 -118.5t-95 -80.5t-144.5 -26.5q-59 0 -112 17q-15 6 -15 22v168q0 9 6 13.5t15 1.5q24 -4 39 -4
q63 0 92 44t39 164q21 230 33 635q0 19 18 19h790z" />
    <glyph glyph-name="uni043C" unicode="&#x43c;" horiz-adv-x="1341" 
d="M668 338l245 702q6 15 23 15h338q7 0 12.5 -5.5t5.5 -13.5l-4 -508l4 -510q0 -8 -5 -13t-13 -5h-256q-8 0 -13.5 5.5t-5.5 12.5v465l7 211v35l-246 -715q-6 -14 -23 -14h-180q-16 0 -22 14l-254 729l2 -51l8 -209v-465q0 -7 -5.5 -12.5t-13.5 -5.5h-204q-8 0 -13.5 5.5
t-5.5 12.5l6 510l-6 508q0 8 5.5 13.5t13.5 5.5h335q17 0 23 -15z" />
    <glyph glyph-name="uni043D" unicode="&#x43d;" horiz-adv-x="1091" 
d="M737 662l-4 374q0 8 5.5 13.5t13.5 5.5h274q7 0 12.5 -5.5t5.5 -13.5l-6 -510l6 -508q0 -8 -5 -13t-13 -5h-274q-8 0 -13.5 5.5t-5.5 12.5l6 426h-385l6 -426q0 -8 -5 -13t-13 -5h-274q-8 0 -13.5 5.5t-5.5 12.5l6 508l-6 510q0 8 5.5 13.5t13.5 5.5h274q7 0 12.5 -5.5
t5.5 -13.5l-4 -374h381z" />
    <glyph glyph-name="uni043E" unicode="&#x43e;" horiz-adv-x="1132" 
d="M567 -27q-256 0 -399 148t-143 403t143.5 406t398.5 151t397 -148t142 -403q0 -256 -142 -406.5t-397 -150.5zM567 178q115 0 169.5 83t54.5 263q0 353 -226 353q-117 -1 -172 -88.5t-55 -266.5q0 -177 56.5 -260.5t172.5 -83.5z" />
    <glyph glyph-name="uni043F" unicode="&#x43f;" horiz-adv-x="1075" 
d="M49 1036q0 8 5.5 13.5t13.5 5.5h942q7 0 12.5 -5.5t5.5 -13.5l-6 -510l6 -508q0 -8 -5 -13t-13 -5h-277q-7 0 -12.5 5t-5.5 13l6 508l-4 312h-359l-2 -312l6 -508q0 -8 -5 -13t-13 -5h-276q-8 0 -13.5 5.5t-5.5 12.5l6 508z" />
    <glyph glyph-name="uni0440" unicode="&#x440;" horiz-adv-x="1144" 
d="M664 1075q145 0 250 -73t155.5 -194.5t50.5 -277.5q0 -153 -55 -277.5t-161.5 -198.5t-246.5 -74q-190 0 -301 129l4 -439q0 -8 -5 -13t-13 -5h-276q-8 0 -13.5 5.5t-5.5 12.5l6 758l-6 608q0 8 5.5 13.5t13.5 5.5h274q18 0 18 -19l-6 -104q118 143 312 143zM571 186
q117 0 176.5 83t59.5 245q0 174 -58 263t-171 89t-172 -83.5t-60 -247.5q-2 -168 56.5 -258.5t168.5 -90.5z" />
    <glyph glyph-name="uni0441" unicode="&#x441;" horiz-adv-x="1073" 
d="M563 -27q-252 0 -395 148.5t-143 402.5q0 255 144.5 406t399.5 151q200 0 326 -104.5t145 -278.5q3 -18 -16 -18h-250q-15 0 -18 16q-17 87 -67.5 132.5t-119.5 45.5q-117 -1 -173 -87t-56 -261q0 -180 56 -263t173 -85q80 -2 133 53t62 156q3 19 20 19h254q20 0 17 -17
q-15 -183 -151 -299.5t-341 -116.5z" />
    <glyph glyph-name="uni0442" unicode="&#x442;" horiz-adv-x="1034" 
d="M14 1036q0 8 6 13.5t13 5.5h968q7 0 13 -5.5t6 -13.5v-180q0 -7 -5.5 -12.5t-13.5 -5.5h-331l-4 -312l6 -508q0 -7 -5.5 -12.5t-13.5 -5.5h-276q-8 0 -13.5 5.5t-5.5 12.5l7 508l-5 312h-327q-8 0 -13.5 5.5t-5.5 12.5v180z" />
    <glyph glyph-name="uni0443" unicode="&#x443;" horiz-adv-x="1034" 
d="M309 -348q-20 0 -14 20l108 318l-421 1044q-3 9 1 15t13 6h307q17 0 23 -15l229 -661l190 659q3 17 21 17h272q21 0 15 -21l-467 -1368q-6 -14 -23 -14h-254z" />
    <glyph glyph-name="uni0444" unicode="&#x444;" horiz-adv-x="1495" 
d="M1468 530q0 -117 -32 -211.5t-99 -168.5t-178.5 -118.5t-261.5 -54.5l2 -307q0 -8 -5.5 -13t-12.5 -5h-269q-8 0 -13 5t-5 13l2 307q-293 18 -432 163.5t-139 383.5q0 116 33 210.5t100 169t179 119.5t261 54l-4 338q0 8 5.5 13.5t12.5 5.5h269q7 0 12.5 -5.5t5.5 -13.5
l-2 -338q157 -9 270 -52.5t177.5 -117t94 -166t29.5 -211.5zM332 522q0 -162 58 -245t208 -97l4 393l-2 301q-142 -17 -205 -105t-63 -247zM895 874l-2 -294l2 -400q147 18 206.5 103.5t59.5 240.5q0 158 -62.5 245t-203.5 105z" />
    <glyph glyph-name="uni0445" unicode="&#x445;" horiz-adv-x="993" 
d="M977 1055q10 0 13.5 -7t-1.5 -16l-289 -493l308 -516q5 -9 0 -16t-15 -7h-305q-14 0 -20 12l-185 353l-186 -353q-6 -12 -21 -12h-278q-10 0 -13.5 7t1.5 16l313 536l-297 473q-6 10 -2.5 16.5t14.5 6.5h303q15 0 21 -13l182 -335l166 333q8 15 21 15h270z" />
    <glyph glyph-name="uni0446" unicode="&#x446;" horiz-adv-x="1173" 
d="M1004 1055q7 0 12.5 -5.5t5.5 -13.5l-6 -510l4 -311h123q7 0 12.5 -5.5t5.5 -12.5v-435q0 -8 -5.5 -13t-12.5 -5h-232q-7 0 -12.5 5t-5.5 13l-6 238h-819q-8 0 -13.5 5.5t-5.5 12.5l6 508l-6 510q0 8 5.5 13.5t13.5 5.5h276q7 0 12.5 -5.5t5.5 -13.5l-6 -510l2 -311h353
l4 311l-6 510q0 8 5.5 13.5t12.5 5.5h277z" />
    <glyph glyph-name="uni0447" unicode="&#x447;" horiz-adv-x="1056" 
d="M698 625l-4 411q0 8 6 13.5t13 5.5h276q7 0 13 -5.5t6 -13.5l-7 -510l7 -508q0 -7 -5.5 -12.5t-13.5 -5.5h-276q-8 0 -13.5 5.5t-5.5 12.5l4 404q-138 -27 -258 -27q-222 0 -314.5 98t-92.5 302v241q0 8 5.5 13.5t12.5 5.5h275q7 0 12.5 -5.5t5.5 -13.5v-241
q0 -93 41 -140t139 -47q74 0 174 17z" />
    <glyph glyph-name="uni0448" unicode="&#x448;" horiz-adv-x="1570" 
d="M1214 526l-6 510q0 8 6 13.5t13 5.5h276q7 0 13 -5.5t6 -13.5l-6 -510l6 -508q0 -7 -5.5 -12.5t-13.5 -5.5h-1435q-8 0 -13.5 5.5t-5.5 12.5l6 508l-6 510q0 8 5.5 13.5t13.5 5.5h276q7 0 12.5 -5.5t5.5 -13.5l-6 -510l2 -309h273l4 309l-6 510q0 8 5.5 13.5t12.5 5.5
h277q7 0 12.5 -5.5t5.5 -13.5l-6 -510l2 -309h272z" />
    <glyph glyph-name="uni0449" unicode="&#x449;" horiz-adv-x="1671" 
d="M1516 526l4 -309h122q8 0 13.5 -5.5t5.5 -12.5v-437q0 -7 -5.5 -12.5t-13.5 -5.5h-231q-7 0 -12.5 5t-5.5 13l-7 238h-1318q-8 0 -13.5 5.5t-5.5 12.5l6 508l-6 510q0 8 5.5 13.5t13.5 5.5h276q7 0 12.5 -5.5t5.5 -13.5l-6 -510l2 -309h273l4 309l-6 510q0 8 5.5 13.5
t12.5 5.5h277q7 0 12.5 -5.5t5.5 -13.5l-6 -510l2 -309h272l4 309l-6 510q0 8 6 13.5t13 5.5h276q7 0 13 -5.5t6 -13.5z" />
    <glyph glyph-name="uni044A" unicode="&#x44a;" horiz-adv-x="1294" 
d="M633 1055q7 0 12.5 -5.5t5.5 -13.5l-4 -334h127q249 0 372.5 -85.5t123.5 -262.5q0 -354 -496 -354h-418q-8 0 -13 5t-5 13l6 508l-4 312h-307q-8 0 -13.5 5.5t-5.5 12.5v180q0 8 6 13.5t13 5.5h600zM645 502l4 -301h127q180 0 180 145q0 74 -41.5 115t-138.5 41h-131z
" />
    <glyph glyph-name="uni044B" unicode="&#x44b;" horiz-adv-x="1409" 
d="M344 1057q7 0 12.5 -5.5t5.5 -13.5l-4 -336h125q249 0 372.5 -85.5t123.5 -262.5q0 -354 -496 -354h-123v-2h-292q-8 0 -13.5 5.5t-5.5 12.5l6 525l-6 497q0 8 5.5 13.5t13.5 5.5h276zM1055 526l-6 510q0 8 5.5 13.5t12.5 5.5h276q7 0 13 -5.5t6 -13.5l-6 -510l6 -508
q0 -7 -5.5 -12.5t-13.5 -5.5h-276q-7 0 -12.5 5t-5.5 13zM356 502l2 -301h127q181 0 181 145q0 156 -181 156h-129z" />
    <glyph glyph-name="uni044C" unicode="&#x44c;" horiz-adv-x="1003" 
d="M344 1057q7 0 12.5 -5.5t5.5 -13.5l-4 -336h125q249 0 372.5 -85.5t123.5 -262.5q0 -354 -496 -354h-415q-8 0 -13.5 5.5t-5.5 12.5l6 523l-6 497q0 8 5.5 13.5t13.5 5.5h276zM356 502l2 -301h127q181 0 181 145q0 156 -181 156h-129z" />
    <glyph glyph-name="uni044D" unicode="&#x44d;" horiz-adv-x="1075" 
d="M524 1081q245 0 385 -151t140 -406q0 -254 -143.5 -402.5t-395.5 -148.5q-204 0 -339.5 115.5t-152.5 298.5q-3 19 17 19h254q17 0 20 -19q9 -102 63 -155.5t144 -53.5q192 0 215 271h-289q-8 0 -13 5.5t-5 12.5v158q0 7 5 12.5t13 5.5h283q-34 231 -209 231
q-78 0 -130 -44.5t-69 -133.5q-3 -16 -18 -16h-250q-19 0 -16 16q15 174 147.5 279.5t343.5 105.5z" />
    <glyph glyph-name="uni044E" unicode="&#x44e;" horiz-adv-x="1519" 
d="M979 1081q241 0 378.5 -148.5t137.5 -402.5q0 -255 -137.5 -406t-378.5 -151q-224 0 -359.5 123.5t-158.5 341.5h-103l4 -420q0 -8 -5 -13t-13 -5h-276q-8 0 -13.5 5.5t-5.5 12.5l6 508l-6 510q0 8 5.5 13.5t13.5 5.5h276q7 0 12.5 -5.5t5.5 -13.5l-4 -393h107
q33 203 168 320.5t346 117.5zM979 178q203 0 203 346q0 177 -53 266t-152 87q-207 -3 -207 -355q0 -344 209 -344z" />
    <glyph glyph-name="uni044F" unicode="&#x44f;" horiz-adv-x="1067" 
d="M555 1055h446q7 0 13 -5.5t6 -13.5l-6 -508l6 -510q0 -7 -5.5 -12.5t-13.5 -5.5h-274q-7 0 -12.5 5t-5.5 13l4 332h-162l-66 -112l-125 -226q-6 -12 -22 -12h-272q-11 0 -15 6t2 17l232 364q-228 74 -228 322q0 176 123 261t375 85zM715 553l-4 301h-158
q-91 0 -137.5 -39.5t-46.5 -109.5q0 -73 47 -112.5t137 -39.5h162z" />
    <glyph glyph-name="uni0450" unicode="&#x450;" horiz-adv-x="1128" 
d="M285 1483q7 18 24 10l488 -211q16 -6 10 -25l-43 -110q-6 -18 -23 -12l-508 133q-8 2 -11.5 8.5t-0.5 13.5zM571 178q167 0 205 162q6 16 21 16h258q21 0 18 -18q-21 -154 -157.5 -259.5t-348.5 -105.5q-257 0 -399.5 152.5t-142.5 398.5q0 254 143 405.5t393 151.5
q257 0 398.5 -159t146.5 -439q0 -18 -19 -18h-753q9 -148 67.5 -217.5t169.5 -69.5zM563 879q-183 0 -221 -220h432q-10 94 -63 157t-148 63z" />
    <glyph glyph-name="uni0451" unicode="&#x451;" horiz-adv-x="1128" 
d="M453 1434q7 0 12.5 -5.5t5.5 -13.5v-239q0 -8 -5.5 -13.5t-12.5 -5.5h-213q-8 0 -13.5 5.5t-5.5 13.5v239q0 7 5.5 13t13.5 6h213zM883 1434q7 0 12.5 -5.5t5.5 -13.5v-239q0 -8 -5.5 -13.5t-12.5 -5.5h-213q-8 0 -13.5 5.5t-5.5 13.5v239q0 7 5.5 13t13.5 6h213z
M571 178q167 0 205 162q6 16 21 16h258q21 0 18 -18q-21 -154 -157.5 -259.5t-348.5 -105.5q-257 0 -399.5 152.5t-142.5 398.5q0 254 143 405.5t393 151.5q257 0 398.5 -159t146.5 -439q0 -18 -19 -18h-753q9 -148 67.5 -217.5t169.5 -69.5zM563 879q-183 0 -221 -220h432
q-10 94 -63 157t-148 63z" />
    <glyph glyph-name="uni0452" unicode="&#x452;" horiz-adv-x="1075" 
d="M602 -369q-77 0 -156 17q-16 3 -16 20l2 176q0 10 6 15t15 2q37 -11 82 -11q98 0 150 55.5t52 203.5v497q0 215 -157 215q-73 0 -137.5 -53t-92.5 -150l8 -600q0 -8 -5 -13t-13 -5h-268q-8 0 -13.5 5.5t-5.5 12.5l8 701l-4 409h-51q-7 0 -12.5 5.5t-5.5 13.5v176
q0 7 5 12.5t13 5.5h47v74q0 7 5.5 13t13.5 6h268q7 0 12.5 -5.5t5.5 -13.5v-74h310q8 0 13 -5.5t5 -12.5v-176q0 -8 -5.5 -13.5t-12.5 -5.5h-312l-4 -215q110 134 310 134q182 0 279 -112t97 -339l-2 -487q-1 -117 -24 -203.5t-60 -138.5t-94 -83t-117 -42t-139 -11z" />
    <glyph glyph-name="uni0453" unicode="&#x453;" horiz-adv-x="800" 
d="M696 1493q18 9 25 -10l59 -193q3 -7 -0.5 -13.5t-11.5 -8.5l-504 -133q-16 -5 -22 12l-45 110q-6 19 10 25zM49 1036q0 8 5.5 13.5t13.5 5.5h700q7 0 12.5 -5.5t5.5 -13.5v-180q0 -8 -5 -13t-13 -5h-410l-2 -312l6 -508q0 -8 -5 -13t-13 -5h-276q-8 0 -13.5 5.5
t-5.5 12.5l6 508z" />
    <glyph glyph-name="uni0454" unicode="&#x454;" horiz-adv-x="1075" 
d="M764 387q3 19 20 19h254q20 0 17 -19q-17 -183 -152.5 -298.5t-339.5 -115.5q-252 0 -395 148.5t-143 402.5q0 255 144.5 406t399.5 151q200 0 326 -104.5t145 -278.5q3 -18 -16 -18h-250q-15 0 -18 16q-17 88 -68 133t-123 45q-183 0 -217 -231h283q7 0 12.5 -5.5
t5.5 -12.5v-158q0 -7 -5.5 -12.5t-12.5 -5.5h-289q12 -138 68 -203.5t159 -67.5q80 -2 133 53t62 156z" />
    <glyph glyph-name="uni0455" unicode="&#x455;" horiz-adv-x="1054" 
d="M537 -25q-234 0 -370.5 93t-143.5 268q0 18 18 18h262q19 0 19 -18q11 -170 229 -170q90 0 138 33.5t48 95.5q0 32 -23.5 53.5t-63.5 33.5t-92 20t-109 17t-114 21t-109 35t-92 56t-63.5 87t-23.5 125q0 162 122 249t339 87q212 0 340 -84.5t141 -246.5q3 -19 -16 -19
h-252q-16 0 -19 16q-26 148 -198 148q-164 0 -164 -127q0 -32 23.5 -53t63.5 -32.5t92 -19t109 -16t114 -19.5t109 -34t92 -56t63.5 -87.5t23.5 -126.5q0 -162 -137 -254.5t-356 -92.5z" />
    <glyph glyph-name="uni0456" unicode="&#x456;" horiz-adv-x="421" 
d="M348 1434q8 0 13.5 -6t5.5 -13v-239q0 -8 -5.5 -13.5t-13.5 -5.5h-274q-8 0 -13.5 5.5t-5.5 13.5v239q0 7 5.5 13t13.5 6h274zM362 526l7 -508q0 -7 -5.5 -12.5t-13.5 -5.5h-276q-8 0 -13.5 5.5t-5.5 12.5l6 508l-6 510q0 8 5.5 13.5t13.5 5.5h276q8 0 13.5 -5.5
t5.5 -13.5z" />
    <glyph glyph-name="uni0457" unicode="&#x457;" horiz-adv-x="419" 
d="M172 1434q7 0 12.5 -5.5t5.5 -13.5v-239q0 -8 -5.5 -13.5t-12.5 -5.5h-139q-7 0 -13 5.5t-6 13.5v239q0 7 6 13t13 6h139zM389 1434q7 0 13 -6t6 -13v-239q0 -8 -6 -13.5t-13 -5.5h-137q-8 0 -13.5 5.5t-5.5 13.5v239q0 7 5.5 13t13.5 6h137zM362 526l5 -508
q0 -7 -5.5 -12.5t-13.5 -5.5h-274q-8 0 -13.5 5.5t-5.5 12.5l4 508l-4 510q0 8 5.5 13.5t13.5 5.5h274q8 0 13.5 -5.5t5.5 -13.5z" />
    <glyph glyph-name="uni0458" unicode="&#x458;" horiz-adv-x="421" 
d="M348 1434q8 0 13.5 -6t5.5 -13v-239q0 -8 -5.5 -13.5t-13.5 -5.5h-274q-8 0 -13.5 5.5t-5.5 13.5v239q0 7 5.5 13t13.5 6h274zM362 362l7 -692q0 -7 -5.5 -12.5t-13.5 -5.5h-276q-8 0 -13.5 5.5t-5.5 12.5l6 692l-6 674q0 8 5.5 13.5t13.5 5.5h276q8 0 13.5 -5.5
t5.5 -13.5z" />
    <glyph glyph-name="uni0459" unicode="&#x459;" horiz-adv-x="1705" 
d="M1040 1055q8 0 13.5 -5.5t5.5 -13.5l-2 -334h129q249 0 372 -85.5t123 -262.5q0 -178 -123 -266t-372 -88l-414 -2q-8 0 -13 5t-5 13l2 490l-4 332h-260q-13 -316 -31 -480q-10 -93 -28.5 -157.5t-54 -118.5t-95 -80.5t-144.5 -26.5q-59 0 -112 17q-15 6 -15 22v168
q0 9 6 13.5t15 1.5q24 -4 39 -4q63 0 92 44t39 164q21 230 33 635q0 19 18 19h786zM1055 502l4 -301h129q180 0 180 147q0 154 -180 154h-133z" />
    <glyph glyph-name="uni045A" unicode="&#x45a;" horiz-adv-x="1687" 
d="M1018 1059q7 0 12.5 -5.5t5.5 -13.5l-4 -356h135q496 0 496 -338q0 -344 -496 -344h-426q-7 0 -12.5 5t-5.5 13l6 461h-373l6 -458q0 -8 -5.5 -13.5t-12.5 -5.5h-276q-8 0 -13.5 6t-5.5 13l6 507l-6 510q0 8 5.5 13.5t13.5 5.5h276q7 0 12.5 -5.5t5.5 -13.5l-4 -354h369
l-4 354q0 8 5.5 13.5t12.5 5.5h277zM1030 483l4 -280h135q89 0 135 35t46 100q0 145 -181 145h-139z" />
    <glyph glyph-name="uni045B" unicode="&#x45b;" horiz-adv-x="1091" 
d="M352 596l6 -578q0 -8 -5 -13t-13 -5h-268q-8 0 -13.5 5.5t-5.5 12.5l8 701l-4 409h-51q-7 0 -12.5 5.5t-5.5 13.5v176q0 7 5 12.5t13 5.5h47v74q0 7 5.5 13t13.5 6h268q7 0 12.5 -5.5t5.5 -13.5v-74h310q8 0 13 -5.5t5 -12.5v-176q0 -8 -5.5 -13.5t-12.5 -5.5h-312
l-4 -223q112 142 322 142q182 0 279.5 -112t97.5 -339v-193l4 -385q0 -7 -5.5 -12.5t-13.5 -5.5h-274q-8 0 -13.5 5.5t-5.5 12.5l5 381v213q0 106 -41 157.5t-115 51.5q-80 0 -148 -59t-92 -166z" />
    <glyph glyph-name="uni045C" unicode="&#x45c;" horiz-adv-x="1062" 
d="M786 1493q18 9 25 -10l59 -193q3 -7 -0.5 -13.5t-11.5 -8.5l-504 -133q-16 -5 -22 12l-45 110q-6 19 10 25zM725 1042q7 13 23 13h264q11 0 14.5 -7t-2.5 -16l-287 -422l340 -587q5 -9 1.5 -16t-13.5 -7h-320q-14 0 -20 12l-229 434h-140l6 -428q0 -8 -5 -13t-13 -5h-276
q-8 0 -13.5 5.5t-5.5 12.5l6 508l-6 510q0 8 5.5 13.5t13.5 5.5h276q7 0 12.5 -5.5t5.5 -13.5l-4 -372h140z" />
    <glyph glyph-name="uni045D" unicode="&#x45d;" horiz-adv-x="1118" 
d="M289 1483q7 18 24 10l488 -211q16 -6 10 -25l-43 -110q-6 -18 -23 -12l-507 133q-8 2 -12 8.5t-1 13.5zM346 330l365 712q5 13 20 13h322q7 0 12.5 -5.5t5.5 -13.5l-6 -510l6 -508q0 -8 -5.5 -13t-12.5 -5h-271q-8 0 -13 5t-5 13l6 496l6 203l-362 -705q-5 -12 -21 -12
h-325q-8 0 -13.5 5.5t-5.5 12.5l6 525l-6 493q0 8 5.5 13.5t13.5 5.5h270q7 0 12.5 -5.5t5.5 -13.5l-4 -501l-6 -203v-2z" />
    <glyph glyph-name="uni045E" unicode="&#x45e;" horiz-adv-x="1034" 
d="M535 1153q183 0 288 91t105 251h-234q-3 -80 -44 -124t-111 -44q-72 0 -112 44t-40 124h-233q0 -160 102 -251t279 -91zM309 -348q-20 0 -14 20l108 318l-421 1044q-3 9 1 15t13 6h307q17 0 23 -15l229 -661l190 659q3 17 21 17h272q21 0 15 -21l-467 -1368
q-6 -14 -23 -14h-254z" />
    <glyph glyph-name="uni045F" unicode="&#x45f;" horiz-adv-x="1077" 
d="M719 526l-6 510q0 8 5.5 13.5t12.5 5.5h277q7 0 12.5 -5.5t5.5 -13.5l-6 -510l6 -508q0 -8 -5 -13t-13 -5h-326v-227q0 -8 -5.5 -13.5t-12.5 -5.5h-258q-8 0 -13.5 6t-5.5 13v227h-319q-8 0 -13.5 5.5t-5.5 12.5l6 508l-6 510q0 8 5.5 13.5t13.5 5.5h276q7 0 12.5 -5.5
t5.5 -13.5l-6 -510l2 -309h359z" />
    <glyph glyph-name="uni0462" unicode="&#x462;" horiz-adv-x="1558" 
d="M727 1094l-2 -226h246q285 0 425 -112t140 -318q0 -210 -147.5 -324t-425.5 -114h-531q-8 0 -13 5t-5 13l10 699l-6 377h-391q-8 0 -13.5 5.5t-5.5 12.5v188q0 8 6 13.5t13 5.5h389l-2 127q0 8 5 13t13 5h281q7 0 12.5 -5t5.5 -13l-2 -127h410q7 0 12.5 -5.5t5.5 -13.5
v-188q0 -8 -5.5 -13t-12.5 -5h-412zM725 643l4 -418h242q123 0 188.5 53t65.5 154t-65.5 156t-188.5 55h-246z" />
    <glyph glyph-name="uni0463" unicode="&#x463;" horiz-adv-x="1282" 
d="M631 717v-47h131q495 0 495 -336q0 -334 -495 -334h-410q-8 0 -13 5t-5 13l8 699l-2 121h-309q-8 0 -13.5 5.5t-5.5 12.5v180q0 8 6 13.5t13 5.5h307l-4 360q0 8 5.5 13.5t12.5 5.5h269q7 0 12.5 -5.5t5.5 -13.5l-4 -360h319q8 0 13.5 -5.5t5.5 -13.5v-180
q0 -7 -5.5 -12.5t-13.5 -5.5h-321zM633 469l4 -268h127q88 0 134 34t46 95q0 139 -180 139h-131z" />
    <glyph glyph-name="uni0472" unicode="&#x472;" 
d="M750 1464q329 0 527 -203t198 -548q0 -217 -89 -386t-254.5 -263.5t-381.5 -94.5t-381 94.5t-253.5 263t-88.5 386.5q0 343 196.5 547t526.5 204zM750 1225q-164 0 -264 -97t-128 -276q100 41 203 41q73 0 197.5 -26.5t199.5 -26.5q114 0 181 34q-33 167 -132.5 259
t-256.5 92zM752 209q180 0 283.5 116.5t115.5 327.5q-91 -45 -203 -45q-59 0 -196 27t-211 27q-108 0 -189 -37q20 -197 123.5 -306.5t276.5 -109.5z" />
    <glyph glyph-name="uni0473" unicode="&#x473;" horiz-adv-x="1130" 
d="M567 1081q255 0 396 -148t141 -403q0 -256 -141.5 -406.5t-395.5 -150.5q-256 0 -399 148t-143 403t143.5 406t398.5 151zM565 877q-101 -2 -157.5 -61.5t-71.5 -182.5q60 26 123 26q42 0 113 -15t114 -15q64 0 105 20q-37 231 -226 228zM567 178q108 0 164.5 67
t65.5 210q-58 -25 -117 -25q-34 0 -113 15.5t-121 15.5q-63 0 -112 -25q12 -133 69.5 -195.5t163.5 -62.5z" />
    <glyph glyph-name="uni0474" unicode="&#x474;" horiz-adv-x="1417" 
d="M1294 1456q51 0 97 -8q16 -3 16 -21l-2 -204q0 -21 -21 -17q-14 2 -38 2q-59 0 -96.5 -36t-55.5 -81t-55 -168q-3 -8 -4 -12l-277 -897q-3 -14 -20 -14h-375q-15 0 -21 14l-460 1399q-6 21 16 21h307q18 0 21 -17l342 -1143l198 705q26 93 41.5 140.5t42 113.5t54 98
t69 65.5t96 46.5t125.5 13z" />
    <glyph glyph-name="uni0475" unicode="&#x475;" horiz-adv-x="1155" 
d="M1022 1075q52 0 102 -8q17 -3 17 -20v-173q0 -18 -19 -18q-12 2 -32 2q-58 0 -92 -45t-76 -174l-207 -625q-6 -14 -21 -14h-325q-17 0 -23 14l-356 1020q-6 21 14 21h293q17 0 20 -17l226 -770l133 426q21 67 37 110t38.5 91.5t47 77.5t57 54.5t74 36.5t92.5 11z" />
    <glyph glyph-name="uni0490" unicode="&#x490;" horiz-adv-x="1001" 
d="M57 1415q0 7 5.5 13t13.5 6h620l4 292q0 8 6 13.5t13 5.5h254q7 0 12.5 -5.5t5.5 -13.5v-505q0 -8 -5.5 -13.5t-12.5 -5.5h-602l-2 -485l4 -699q0 -7 -5.5 -12.5t-13.5 -5.5h-278q-8 0 -13.5 5.5t-5.5 12.5l6 699z" />
    <glyph glyph-name="uni0491" unicode="&#x491;" horiz-adv-x="800" 
d="M49 1036q0 8 5.5 13.5t13.5 5.5h440l6 237q0 8 5.5 13.5t12.5 5.5h236q7 0 12.5 -5.5t5.5 -13.5v-432q0 -8 -5 -13t-13 -5h-410l-2 -316l6 -508q0 -8 -5 -13t-13 -5h-276q-8 0 -13.5 5.5t-5.5 12.5l6 508z" />
    <glyph glyph-name="uni0492" unicode="&#x492;" horiz-adv-x="1032" 
d="M90 1415q0 7 6 13t13 6h897q7 0 12.5 -5.5t5.5 -13.5v-194q0 -8 -5.5 -13.5t-12.5 -5.5h-600l-5 -393h359q8 0 13 -5.5t5 -12.5v-195q0 -8 -5 -13t-13 -5h-359l7 -560q0 -7 -5.5 -12.5t-13.5 -5.5h-280q-8 0 -13.5 5.5t-5.5 12.5l6 560h-61q-8 0 -13.5 5.5t-5.5 12.5v195
q0 7 5.5 12.5t13.5 5.5h61z" />
    <glyph glyph-name="uni0493" unicode="&#x493;" horiz-adv-x="890" 
d="M139 1036q0 8 5.5 13.5t13.5 5.5h700q8 0 13.5 -5.5t5.5 -13.5v-180q0 -7 -5.5 -12.5t-13.5 -5.5h-409l-3 -224h259q7 0 12.5 -5t5.5 -13v-168q0 -8 -5.5 -13t-12.5 -5h-256l4 -392q0 -7 -5.5 -12.5t-13.5 -5.5h-276q-8 0 -13.5 5.5t-5.5 12.5l4 392h-108q-8 0 -13.5 5.5
t-5.5 12.5v168q0 7 5.5 12.5t13.5 5.5h110z" />
    <glyph glyph-name="uni0496" unicode="&#x496;" horiz-adv-x="2068" 
d="M1946 1434q11 0 14.5 -6t-2.5 -17l-379 -612l344 -568h123q8 0 13 -5.5t5 -12.5v-522q0 -8 -5.5 -13.5t-12.5 -5.5h-260q-8 0 -13.5 6t-5.5 13l-6 309h-51q-16 0 -22 12l-363 637h-151l6 -631q0 -7 -5.5 -12.5t-13.5 -5.5h-280q-8 0 -13.5 5.5t-5.5 12.5l10 631h-151
l-363 -637q-6 -12 -22 -12h-334q-11 0 -14.5 6t2.5 17l477 776l-379 612q-6 11 -2.5 17t14.5 6h293q17 0 23 -13l301 -540h153l-6 534q0 7 6 13t13 6h278q7 0 13 -6t6 -13l-4 -534h153l301 540q6 13 23 13h293z" />
    <glyph glyph-name="uni0497" unicode="&#x497;" horiz-adv-x="1665" 
d="M1599 1055q11 0 15 -7t-2 -16l-299 -434l223 -383h100q8 0 13.5 -5.5t5.5 -12.5v-435q0 -7 -5.5 -12.5t-13.5 -5.5h-233q-8 0 -13.5 5.5t-5.5 12.5l-6 238h-45q-14 0 -20 12l-115 209l-125 232h-102l6 -435q0 -7 -5.5 -12.5t-13.5 -5.5h-276q-8 0 -13 5t-5 13l6 435h-101
l-120 -232l-115 -209q-6 -12 -21 -12h-313q-10 0 -14.5 7t0.5 16l344 577l-297 432q-6 9 -3 16t13 7h268q17 0 23 -13l237 -376h97l-4 370q0 8 5.5 13.5t12.5 5.5h276q8 0 13.5 -5.5t5.5 -13.5l-4 -370h98l238 376q7 13 22 13h268z" />
    <glyph glyph-name="uni049A" unicode="&#x49a;" horiz-adv-x="1310" 
d="M1184 1434q11 0 14.5 -6t-2.5 -17l-379 -612l346 -568h123q8 0 13.5 -5.5t5.5 -12.5v-522q0 -7 -5.5 -13t-13.5 -6h-260q-7 0 -12.5 5.5t-5.5 13.5l-7 309h-51q-16 0 -22 12l-363 637l-196 -2l6 -629q0 -7 -5.5 -12.5t-13.5 -5.5h-280q-8 0 -13.5 5.5t-5.5 12.5l11 699
l-9 698q0 7 5.5 13t13.5 6h278q8 0 13.5 -6t5.5 -13l-4 -534h196l301 540q6 13 23 13h293z" />
    <glyph glyph-name="uni049B" unicode="&#x49b;" horiz-adv-x="1091" 
d="M1012 1055q11 0 14.5 -7t-2.5 -16l-287 -422l226 -395h98q7 0 12.5 -5.5t5.5 -12.5v-435q0 -8 -5.5 -13t-12.5 -5h-232q-7 0 -12.5 5t-5.5 13l-6 238h-55q-15 0 -21 12l-108 205l-123 229h-142l6 -428q0 -8 -5 -13t-13 -5h-276q-8 0 -13.5 5.5t-5.5 12.5l6 508l-6 510
q0 8 5.5 13.5t13.5 5.5h276q7 0 12.5 -5.5t5.5 -13.5l-4 -372h140l227 378q7 13 23 13h264z" />
    <glyph glyph-name="uni04A2" unicode="&#x4a2;" horiz-adv-x="1484" 
d="M1286 1434q8 0 13.5 -6t5.5 -13l-11 -698l6 -486h160q8 0 13.5 -5.5t5.5 -12.5v-522q0 -7 -5.5 -13t-13.5 -6h-262q-7 0 -12.5 5.5t-5.5 13.5l-6 309h-164q-8 0 -13.5 5.5t-5.5 12.5l4 631h-626l6 -631q0 -7 -5.5 -12.5t-13.5 -5.5h-280q-8 0 -13.5 5.5t-5.5 12.5l11 699
l-11 698q0 7 5.5 13t13.5 6h280q8 0 13.5 -6t5.5 -13l-4 -534h622l-6 534q0 7 5.5 13t13.5 6h280z" />
    <glyph glyph-name="uni04A3" unicode="&#x4a3;" horiz-adv-x="1202" 
d="M1028 1055q8 0 13.5 -5.5t5.5 -13.5l-7 -510l2 -311h129q8 0 13.5 -5.5t5.5 -12.5v-435q0 -7 -5.5 -12.5t-13.5 -5.5h-231q-8 0 -13 5t-5 13l-7 238h-161q-8 0 -13.5 5.5t-5.5 12.5l4 426h-383l6 -426q0 -8 -5 -13t-13 -5h-276q-8 0 -13.5 5.5t-5.5 12.5l6 508l-6 510
q0 8 5.5 13.5t13.5 5.5h276q7 0 12.5 -5.5t5.5 -13.5l-4 -374h379l-4 374q0 8 5.5 13.5t13.5 5.5h276z" />
    <glyph glyph-name="uni04AE" unicode="&#x4ae;" horiz-adv-x="1222" 
d="M471 0q-7 0 -12.5 5t-5.5 13l6 453l-482 940q-4 10 0 16.5t15 6.5h317q13 0 21 -15l293 -661l299 661q8 15 20 15h289q11 0 14.5 -6t-0.5 -17l-481 -940l6 -453q0 -8 -5 -13t-13 -5h-281z" />
    <glyph glyph-name="uni04AF" unicode="&#x4af;" horiz-adv-x="1062" 
d="M293 1055q17 0 20 -15l228 -727l247 727q6 15 23 15h250q9 0 13 -6t1 -15l-393 -1034v-330q0 -8 -5 -13t-13 -5h-273q-7 0 -12.5 5t-5.5 13v330l-387 1034q-6 21 14 21h293z" />
    <glyph glyph-name="uni04B0" unicode="&#x4b0;" horiz-adv-x="1222" 
d="M623 784l299 635q8 15 20 15h289q22 0 12 -23l-477 -907h244q7 0 12.5 -5.5t5.5 -13.5v-194q0 -8 -5.5 -13.5t-12.5 -5.5h-244l4 -254q0 -8 -5 -13t-13 -5h-281q-7 0 -12.5 5t-5.5 13l2 254h-244q-7 0 -12.5 5.5t-5.5 13.5v194q0 8 5.5 13.5t12.5 5.5h244l-475 907
q-10 23 12 23h317q13 0 21 -15z" />
    <glyph glyph-name="uni04B1" unicode="&#x4b1;" horiz-adv-x="1062" 
d="M541 299l250 741q6 15 20 15h250q9 0 13 -6t1 -15l-391 -1034h172q8 0 13 -5t5 -13v-164q0 -8 -5.5 -13.5t-12.5 -5.5h-172v-129q0 -8 -5 -13t-13 -5h-273q-7 0 -12.5 5t-5.5 13v129h-172q-7 0 -13 5.5t-6 13.5v164q0 7 5.5 12.5t13.5 5.5h172l-389 1034q-3 9 1 15t13 6
h293q17 0 20 -15z" />
    <glyph glyph-name="uni04B2" unicode="&#x4b2;" horiz-adv-x="1304" 
d="M1233 1434q11 0 14.5 -6t-2.5 -17l-426 -666l332 -514h131q8 0 13 -5.5t5 -12.5v-522q0 -8 -5.5 -13.5t-12.5 -5.5h-256q-7 0 -12.5 5.5t-5.5 13.5l-4 309h-66q-17 0 -23 12l-278 494l-291 -494q-6 -12 -22 -12h-316q-11 0 -14.5 6t2.5 17l465 731l-428 657q-6 9 -2.5 16
t14.5 7h334q15 0 22 -13l246 -420l250 420q7 13 23 13h313z" />
    <glyph glyph-name="uni04B3" unicode="&#x4b3;" horiz-adv-x="1028" 
d="M975 1055q10 0 14.5 -7t-0.5 -16l-291 -493l191 -324h110q8 0 13.5 -5.5t5.5 -12.5v-424q0 -7 -6 -13t-13 -6h-239q-8 0 -13.5 6t-5.5 13l-4 227h-47q-14 0 -20 12l-187 353l-186 -353q-6 -12 -21 -12h-278q-10 0 -13.5 7t1.5 16l313 536l-297 473q-6 10 -2.5 16.5
t14.5 6.5h303q15 0 21 -13l182 -335l166 333q8 15 21 15h268z" />
    <glyph glyph-name="uni04B6" unicode="&#x4b6;" horiz-adv-x="1355" 
d="M1155 1434q7 0 13 -6t6 -13l-9 -698l4 -486h160q8 0 13.5 -5.5t5.5 -12.5v-522q0 -7 -6 -13t-13 -6h-262q-7 0 -12.5 5.5t-5.5 13.5l-7 309h-161q-8 0 -13.5 5.5t-5.5 12.5l2 566q-172 -21 -276 -21q-131 0 -226 22t-155 60.5t-95.5 101t-49 133.5t-13.5 167v368
q0 7 5.5 13t13.5 6h276q7 0 12.5 -5.5t5.5 -13.5l-2 -366q0 -127 63 -189.5t208 -62.5q113 0 231 16l-6 602q0 8 5.5 13.5t12.5 5.5h281z" />
    <glyph glyph-name="uni04B7" unicode="&#x4b7;" horiz-adv-x="1177" 
d="M1004 1055q7 0 12.5 -5.5t5.5 -13.5l-6 -510l6 -311h125q7 0 12.5 -5.5t5.5 -12.5v-435q0 -8 -5.5 -13t-12.5 -5h-232q-7 0 -12.5 5t-5.5 13l-6 238h-162q-7 0 -12.5 5t-5.5 13l4 406q-141 -29 -266 -29q-224 0 -316 102t-92 326v213q0 8 5.5 13.5t12.5 5.5h275
q7 0 12.5 -5.5t5.5 -13.5v-221q0 -107 40.5 -157t139.5 -50q81 0 181 23l-4 405q0 8 5.5 13.5t12.5 5.5h277z" />
    <glyph glyph-name="uni04BA" unicode="&#x4ba;" horiz-adv-x="1210" 
d="M621 905q132 0 227.5 -21.5t155.5 -59.5t95.5 -99t48.5 -130.5t13 -164.5v-412q0 -8 -5.5 -13t-12.5 -5h-273q-8 0 -13 5t-5 13l2 412q0 122 -63 183t-213 61q-91 0 -211 -10l8 -644q0 -7 -5.5 -12.5t-13.5 -5.5h-280q-8 0 -13.5 5.5t-5.5 12.5l11 699l-11 698
q0 7 5.5 13t13.5 6h280q8 0 13.5 -6t5.5 -13l-6 -526q164 14 252 14z" />
    <glyph glyph-name="uni04BB" unicode="&#x4bb;" horiz-adv-x="1087" 
d="M346 625l8 -607q0 -8 -5 -13t-13 -5h-268q-8 0 -13.5 5.5t-5.5 12.5l8 701l-8 696q0 7 5.5 13t13.5 6h268q7 0 12.5 -5.5t5.5 -13.5l-6 -477q111 141 320 141q183 0 281.5 -112t94.5 -338v-226l7 -385q0 -7 -5.5 -12.5t-13.5 -5.5h-276q-8 0 -13.5 5.5t-5.5 12.5l6 381
l-2 267q-1 91 -44.5 139.5t-110.5 48.5q-79 0 -147.5 -60.5t-92.5 -168.5z" />
    <glyph glyph-name="uni04C0" unicode="&#x4c0;" horiz-adv-x="450" 
d="M373 717l10 -699q0 -8 -5.5 -13t-12.5 -5h-279q-8 0 -13 5t-5 13l10 699l-10 698q0 8 5.5 13.5t12.5 5.5h279q7 0 12.5 -5.5t5.5 -13.5z" />
    </font>
</defs>
</svg>
